<!DOCTYPE svg PUBLIC "-//W3C//DTD SVG 20010904//EN" "http://www.w3.org/TR/2001/REC-SVG-20010904/DTD/svg10.dtd">
<svg version="1.0" xmlns="http://www.w3.org/2000/svg" width="512px" height="512px" viewBox="0 0 5120 5120" preserveAspectRatio="xMidYMid meet">
<g id="layer101" fill="#000000" stroke="none">
 <path d="M0 6715 l0 -6715 5000 0 5000 0 0 6715 0 6715 -5000 0 -5000 0 0 -6715z"/>
 </g>
<g id="layer102" fill="#000000" stroke="none">
 <path d="M3721 5009 c-321 -25 -628 -154 -884 -372 -43 -36 -189 -174 -325 -305 -136 -132 -279 -268 -318 -302 -434 -379 -844 -435 -1043 -142 -59 88 -83 141 -167 372 -103 285 -140 340 -233 340 -59 0 -116 -34 -189 -115 -235 -257 -498 -889 -552 -1325 -15 -125 -13 -328 6 -418 37 -184 135 -307 284 -358 90 -30 266 -26 405 10 60 15 143 41 184 57 41 16 76 27 79 25 2 -3 -18 -37 -45 -78 -177 -264 -344 -660 -423 -1007 -48 -210 -62 -329 -63 -521 -1 -170 1 -193 26 -285 38 -143 112 -287 183 -358 32 -32 83 -70 113 -85 51 -25 66 -27 171 -27 108 0 120 2 192 33 245 106 469 297 823 701 254 290 300 334 401 385 68 34 132 35 189 1 51 -29 70 -54 170 -223 138 -233 226 -316 395 -376 80 -28 94 -30 230 -30 203 0 352 37 566 140 473 229 824 661 824 1013 0 121 -29 191 -99 238 -78 53 -169 57 -416 17 -211 -33 -414 -38 -514 -11 -181 49 -295 172 -347 377 -61 238 38 516 246 689 103 86 187 128 418 211 542 193 779 315 953 490 107 108 151 198 157 321 3 55 0 108 -8 137 -51 187 -265 435 -500 579 -255 156 -571 227 -889 202z m417 -135 c120 -18 268 -62 357 -107 200 -100 337 -248 431 -462 37 -87 39 -94 39 -200 0 -100 -2 -115 -28 -167 -54 -110 -154 -198 -327 -290 -105 -55 -216 -101 -525 -219 -385 -146 -554 -236 -676 -358 -113 -114 -168 -261 -176 -479 -9 -202 26 -324 131 -467 78 -106 249 -210 396 -240 99 -21 261 -21 395 0 59 10 133 15 164 13 163 -12 257 -142 216 -300 -18 -71 -45 -121 -124 -227 -178 -242 -347 -381 -638 -526 -324 -161 -562 -177 -735 -50 -64 47 -113 115 -199 275 -125 233 -208 338 -295 375 -53 22 -136 19 -187 -6 -96 -49 -241 -187 -502 -479 -492 -549 -705 -726 -908 -755 -163 -23 -299 119 -374 390 -26 94 -28 112 -27 295 0 145 4 221 18 295 69 380 239 815 497 1267 43 76 79 145 79 153 0 43 -76 36 -210 -18 -162 -65 -272 -90 -400 -91 -201 -1 -320 71 -381 233 -54 142 -28 504 57 791 61 205 200 537 290 690 27 47 78 115 114 152 60 62 69 68 106 68 70 0 97 -41 164 -245 93 -285 202 -434 383 -521 175 -84 383 -68 613 45 166 82 292 180 586 454 323 302 464 416 641 519 298 172 686 244 1035 192z"/>
 <path d="M1392 1790 c-197 -27 -394 -158 -512 -341 -113 -175 -104 -372 21 -467 24 -19 48 -42 52 -51 12 -25 102 -77 166 -95 292 -85 683 151 743 449 25 127 -27 289 -127 394 -91 96 -198 130 -343 111z m186 -129 c59 -30 125 -98 158 -163 20 -40 28 -72 32 -130 4 -69 2 -83 -25 -140 -56 -117 -172 -219 -314 -272 -129 -48 -249 -44 -358 15 -30 16 -65 29 -77 29 -29 0 -79 69 -96 134 -22 83 19 210 100 307 85 103 218 196 335 234 64 21 191 14 245 -14z"/>
 <path d="M699 1018 c-62 -65 -80 -205 -36 -288 32 -62 46 -67 90 -39 54 35 92 114 84 179 -7 56 -28 103 -65 143 -31 33 -45 34 -73 5z m56 -98 c21 -41 18 -88 -10 -140 l-23 -45 -11 28 c-16 42 -13 111 6 152 9 19 18 35 20 35 1 0 9 -13 18 -30z"/>
 <path d="M1110 751 c-72 -23 -148 -80 -176 -133 -36 -70 4 -79 59 -13 47 55 102 85 174 92 l54 6 -7 -39 c-11 -65 -42 -110 -102 -153 -75 -52 -140 -46 -179 19 -21 36 -50 47 -70 27 -36 -36 39 -139 112 -153 57 -10 119 4 170 40 93 67 149 185 128 272 l-9 39 -64 2 c-36 1 -76 -2 -90 -6z"/>
 </g>

</svg>