<!DOCTYPE svg PUBLIC "-//W3C//DTD SVG 20010904//EN" "http://www.w3.org/TR/2001/REC-SVG-20010904/DTD/svg10.dtd">
<svg version="1.0" xmlns="http://www.w3.org/2000/svg" width="1281px" height="1600px" viewBox="0 0 12810 16000" preserveAspectRatio="xMidYMid meet">
<g id="layer101" fill="#040404" stroke="none">
 <path d="M0 8000 l0 -8000 6405 0 6405 0 0 8000 0 8000 -6405 0 -6405 0 0 -8000z"/>
 </g>
<g id="layer102" fill="#fdfdfd" stroke="none">
 <path d="M0 8000 l0 -8000 6405 0 6405 0 0 8000 0 8000 -6405 0 -6405 0 0 -8000z m5829 7849 c46 -28 67 -55 91 -116 40 -105 48 -284 24 -534 l-7 -65 84 -104 c195 -243 431 -442 608 -515 l54 -23 91 44 c122 59 189 75 328 81 130 6 208 -4 325 -43 274 -91 511 -293 730 -621 41 -62 76 -113 78 -113 1 0 -13 62 -31 137 -60 248 -79 408 -78 668 0 179 4 252 18 330 55 301 170 502 331 580 147 72 322 11 389 -134 15 -34 21 -66 21 -122 0 -67 -4 -83 -39 -153 -54 -110 -126 -178 -336 -317 -190 -127 -270 -200 -315 -289 l-28 -55 16 -135 c30 -251 114 -598 188 -777 30 -70 33 -75 42 -52 89 231 214 350 414 395 59 13 103 15 197 11 276 -13 517 -126 732 -341 240 -240 389 -571 450 -1001 19 -132 25 -545 11 -736 l-7 -106 26 -17 c14 -10 27 -16 29 -14 2 2 8 59 14 128 49 543 234 1006 512 1280 48 47 113 101 145 120 300 180 534 34 424 -265 -17 -45 -38 -75 -84 -121 -80 -79 -158 -116 -396 -189 -221 -67 -310 -108 -383 -175 -51 -46 -56 -55 -80 -142 -54 -190 -97 -458 -97 -603 l0 -70 65 -48 c67 -48 85 -75 85 -128 0 -16 2 -29 3 -29 2 0 30 13 63 30 123 61 319 81 454 46 306 -79 549 -388 630 -803 27 -138 36 -372 21 -518 -39 -364 -182 -747 -407 -1093 -30 -46 -54 -94 -54 -108 0 -18 14 -39 42 -65 24 -22 46 -39 51 -39 4 0 12 10 16 23 275 681 524 1064 771 1185 146 71 250 82 341 34 130 -68 131 -223 2 -328 -67 -55 -147 -84 -263 -95 -304 -30 -341 -38 -433 -93 -45 -28 -58 -44 -114 -146 -66 -122 -216 -451 -254 -561 l-23 -65 41 -55 c165 -219 252 -583 224 -935 -38 -476 -215 -839 -581 -1187 -164 -156 -363 -297 -617 -438 -19 -11 -45 -48 -83 -121 -30 -59 -52 -109 -49 -113 4 -3 47 14 95 38 126 63 369 159 504 200 335 101 548 110 747 30 86 -34 166 -109 182 -170 35 -129 -102 -272 -237 -248 -121 21 -197 66 -371 223 -100 91 -133 115 -178 129 l-54 17 -117 -38 c-118 -39 -385 -147 -469 -189 l-45 -24 78 -27 c229 -81 412 -223 493 -384 45 -90 61 -156 61 -258 0 -272 -181 -507 -428 -555 -103 -20 -307 2 -437 46 -11 4 30 -21 90 -55 355 -200 582 -396 753 -649 210 -312 268 -534 167 -635 -60 -61 -185 -72 -256 -23 -82 56 -98 126 -81 365 12 169 7 277 -18 412 -12 63 -15 68 -89 138 -155 148 -382 298 -646 427 -242 117 -346 156 -437 163 -104 7 -104 -11 0 -62 249 -123 461 -329 577 -562 66 -134 88 -231 83 -363 -6 -149 -29 -204 -122 -296 -114 -113 -235 -160 -411 -159 -167 1 -298 47 -485 172 -135 89 -343 291 -455 439 l-70 93 -45 0 c-63 0 -95 24 -290 214 l-165 161 -2 -40 c-25 -402 -199 -1013 -424 -1483 -37 -78 -53 -122 -43 -118 112 43 161 51 314 50 142 0 162 -3 240 -28 90 -30 147 -56 193 -89 l29 -20 -84 -31 c-45 -17 -112 -49 -148 -71 -127 -77 -280 -247 -396 -440 -92 -154 -155 -223 -264 -289 l-45 -27 40 7 c60 10 167 50 248 94 68 36 161 72 217 84 18 4 30 18 44 53 31 75 131 216 193 274 106 96 223 133 346 109 131 -25 221 -93 247 -184 30 -109 -47 -222 -177 -262 -35 -11 -88 -14 -198 -12 -389 6 -445 -3 -670 -113 -114 -55 -251 -99 -311 -99 -24 0 -20 -4 33 -39 109 -70 153 -148 153 -272 0 -241 -242 -422 -595 -446 l-100 -7 113 -27 c160 -39 334 -68 462 -75 l110 -7 72 74 c40 41 109 126 152 189 219 317 326 438 433 488 48 22 72 27 138 27 67 0 86 -4 118 -24 85 -52 119 -153 93 -277 -31 -153 -130 -300 -250 -373 -66 -39 -218 -93 -326 -115 -109 -22 -379 -39 -500 -31 -229 14 -484 62 -699 131 -58 18 -109 34 -113 34 -3 0 -9 -19 -13 -42 -39 -235 -348 -348 -662 -243 -40 14 -76 25 -79 25 -3 0 20 -31 51 -69 44 -54 75 -81 150 -125 237 -141 376 -295 377 -415 0 -87 -63 -173 -138 -187 -139 -26 -241 69 -263 246 -12 92 -47 232 -80 320 -18 49 -60 108 -153 219 l-27 32 -83 -17 c-154 -31 -347 -7 -522 66 -100 42 -258 148 -378 254 -86 76 -102 86 -135 86 -74 0 -298 31 -412 56 -240 54 -399 109 -618 214 -337 162 -617 364 -906 652 -146 146 -148 148 -192 148 -91 0 -152 93 -143 219 6 83 36 140 102 198 l43 37 -23 45 c-28 52 -31 120 -7 161 20 34 76 67 129 76 l40 6 37 119 c79 252 222 549 372 774 112 166 194 266 349 420 164 163 343 301 511 394 l115 63 -56 61 c-72 78 -104 144 -104 217 1 95 58 180 143 211 30 10 36 18 41 51 10 59 51 133 92 164 49 38 137 44 211 16 l52 -20 30 53 c56 99 143 150 246 143 81 -5 134 -40 170 -111 45 -92 27 -187 -70 -357 -53 -93 -100 -198 -92 -206 2 -2 37 3 78 10 331 63 866 76 1316 31 436 -43 956 -144 1335 -259 65 -20 121 -36 124 -36 13 0 -9 57 -44 114 -73 121 -213 274 -334 365 -35 26 -58 51 -58 63 0 10 9 46 21 80 11 34 18 72 14 85 -7 29 -125 155 -213 226 -96 78 -246 176 -492 322 -467 278 -579 368 -653 524 -96 202 0 509 211 676 229 183 552 216 959 99 19 -5 23 1 37 49 9 30 16 57 16 60 0 18 -238 90 -400 122 -335 65 -839 75 -915 17 -73 -55 -178 -230 -234 -393 -54 -155 -110 -230 -206 -275 -60 -29 -176 -33 -246 -9 -67 23 -138 82 -173 145 -69 124 -19 256 137 362 203 138 560 232 967 253 292 16 734 -45 985 -136 44 -16 84 -30 90 -32 5 -1 17 29 27 68 20 81 20 79 -65 137 -196 133 -465 199 -757 185 -69 -4 -270 -27 -447 -52 -518 -72 -700 -78 -849 -25 -193 67 -313 230 -345 465 -25 191 39 424 165 600 52 73 162 181 236 233 92 64 95 71 15 27 -169 -92 -475 -309 -612 -436 -86 -79 -98 -157 -67 -425 20 -175 15 -308 -15 -385 -63 -162 -214 -229 -350 -154 -112 62 -164 165 -142 283 27 149 136 310 372 553 229 235 553 478 837 629 34 18 62 36 62 40 0 4 -16 15 -35 26 -43 23 -56 19 -239 -73 -302 -151 -482 -282 -756 -548 -261 -254 -451 -336 -743 -322 -244 11 -457 128 -591 325 -109 159 -140 396 -81 622 8 30 13 55 12 57 -2 1 -30 -41 -62 -95 -114 -187 -230 -357 -277 -404 -62 -63 -154 -122 -236 -150 -57 -19 -87 -23 -197 -23 -157 0 -225 19 -342 97 -117 79 -201 200 -240 348 -25 97 -22 278 7 400 43 181 130 373 238 524 115 160 320 340 480 419 34 17 62 34 62 38 0 3 -20 9 -44 12 -24 4 -74 16 -111 29 l-68 22 -71 -37 c-124 -64 -351 -272 -563 -513 -109 -126 -132 -207 -158 -571 -23 -320 -45 -434 -106 -556 -64 -127 -223 -243 -349 -254 -48 -5 -67 -1 -112 20 -60 27 -94 65 -130 143 -21 44 -23 63 -22 199 1 179 19 260 89 402 80 163 208 300 390 419 83 54 259 144 281 144 7 0 22 12 34 28 12 15 78 88 146 163 187 204 377 368 491 424 52 25 53 27 38 48 -19 27 -19 109 0 173 l14 49 -41 -50 c-87 -105 -316 -324 -389 -372 -237 -155 -503 -129 -700 67 -138 137 -196 296 -186 509 6 145 36 254 111 406 190 383 558 608 1135 692 l55 8 23 59 c12 33 22 60 20 61 -1 2 -38 10 -82 20 -150 32 -307 117 -371 200 -24 32 -31 35 -79 35 -57 0 -209 -26 -236 -40 -31 -17 -80 -108 -148 -278 -78 -196 -129 -287 -207 -371 -138 -149 -311 -155 -381 -14 -22 46 -25 62 -20 110 12 118 109 253 266 371 185 139 411 230 651 262 47 7 86 13 87 14 2 1 -6 22 -18 45 -35 72 -52 175 -45 276 13 206 111 403 290 580 328 325 892 506 1451 466 86 -7 170 -14 188 -18 31 -6 31 -5 -18 32 -129 98 -263 229 -302 293 -13 20 -23 51 -23 67 l0 30 -83 1 c-45 0 -142 7 -214 14 -105 10 -141 11 -173 1 -43 -13 -102 -67 -251 -231 -131 -145 -219 -182 -345 -145 -203 58 -228 231 -53 360 53 39 128 71 214 90 63 14 307 5 520 -20 121 -13 261 -25 311 -25 l90 0 70 56 c79 64 318 185 464 236 83 29 107 33 190 32 61 0 110 -6 137 -17 40 -15 41 -15 65 10 38 41 195 140 276 173 322 135 693 115 1028 -53 160 -80 375 -237 483 -350 l34 -36 226 6 c124 3 248 3 274 -1 57 -9 106 -48 146 -117 l27 -47 56 54 55 53 -63 30 c-216 101 -488 359 -718 681 -178 249 -249 401 -250 535 -1 84 18 119 79 146 53 24 102 24 144 -2z"/>
 <path d="M5679 15791 c-25 -25 -29 -37 -29 -84 0 -32 10 -86 25 -128 31 -92 45 -108 45 -50 0 34 6 49 29 72 18 17 40 29 56 29 32 0 80 -24 95 -47 8 -14 9 -9 4 22 -11 79 -38 148 -69 181 -28 29 -39 34 -79 34 -39 0 -53 -5 -77 -29z"/>
 <path d="M5765 15585 c-21 -20 -25 -34 -25 -82 0 -35 8 -74 19 -100 24 -52 119 -193 130 -193 26 0 30 283 5 336 -31 66 -86 83 -129 39z"/>
 <path d="M8516 15524 c-89 -32 -164 -112 -226 -239 -41 -82 -98 -245 -86 -245 2 0 23 29 46 65 74 114 147 165 235 165 39 0 52 -5 77 -31 30 -29 30 -32 26 -101 -5 -60 -13 -87 -55 -170 -28 -54 -48 -98 -46 -98 18 0 193 133 237 180 141 153 155 330 35 433 -65 56 -160 72 -243 41z"/>
 <path d="M8399 15227 c-56 -30 -129 -120 -180 -222 -37 -75 -40 -88 -50 -216 -6 -75 -9 -150 -7 -167 l3 -32 47 59 c25 32 84 86 129 120 92 70 102 81 152 167 44 74 77 171 77 224 0 84 -79 115 -171 67z"/>
 <path d="M4642 14989 c-102 -10 -225 -41 -317 -81 -97 -42 -255 -148 -305 -205 -151 -172 -139 -366 34 -539 91 -90 139 -113 356 -168 148 -37 261 -73 390 -124 17 -7 4 12 -43 60 -246 250 -271 517 -67 712 162 154 438 196 744 111 47 -13 86 -21 86 -19 0 2 -44 29 -97 61 -196 115 -375 175 -577 193 -61 5 -113 9 -116 9 -3 -1 -42 -5 -88 -10z"/>
 <path d="M5005 14770 c-291 -45 -482 -281 -421 -520 48 -186 221 -375 436 -476 58 -27 126 -61 152 -75 l48 -25 86 29 c48 16 138 36 201 45 96 13 113 18 108 31 -20 51 -100 332 -121 421 -26 116 -32 231 -11 248 7 6 67 18 132 27 66 9 135 18 154 21 l35 6 -64 56 c-116 104 -154 128 -257 160 -54 17 -125 36 -158 42 -88 15 -251 20 -320 10z m130 -215 c191 -93 208 -345 31 -437 -56 -30 -163 -30 -226 -2 -103 47 -150 118 -151 226 -1 75 15 119 62 173 71 80 173 95 284 40z"/>
 <path d="M4935 14552 c-82 -39 -125 -112 -125 -210 0 -112 75 -197 196 -222 106 -22 196 18 241 108 57 116 1 248 -136 317 -52 26 -129 29 -176 7z m154 -122 c34 -24 55 -76 45 -114 -10 -41 -59 -76 -106 -76 -57 0 -108 51 -108 107 1 99 88 142 169 83z"/>
 <path d="M4984 14428 c-50 -24 -57 -96 -15 -139 47 -47 119 -33 142 27 13 35 -12 89 -50 108 -34 18 -47 19 -77 4z"/>
 <path d="M3747 14735 c-89 -24 -89 -24 32 -71 62 -24 116 -44 120 -44 3 0 16 16 28 35 l23 35 -60 30 c-66 33 -74 34 -143 15z"/>
 <path d="M3930 14720 c8 -5 22 -10 30 -10 13 0 13 1 0 10 -8 5 -22 10 -30 10 -13 0 -13 -1 0 -10z"/>
 <path d="M3561 14673 c-59 -24 -62 -27 -40 -36 13 -5 89 -33 169 -62 80 -29 153 -56 162 -60 13 -5 19 2 28 35 6 23 9 44 6 47 -3 4 -259 104 -261 103 0 -1 -29 -13 -64 -27z"/>
 <path d="M3391 14596 l-63 -32 167 -43 c92 -23 214 -58 271 -76 l104 -33 0 39 c0 22 -2 39 -4 39 -2 0 -90 32 -195 70 -106 39 -198 70 -204 70 -7 -1 -41 -16 -76 -34z"/>
 <path d="M7050 14573 c-200 -26 -394 -130 -492 -264 -57 -78 -79 -145 -85 -254 -14 -238 71 -371 561 -880 l125 -130 -33 101 c-66 197 -80 275 -80 434 -1 182 16 234 103 322 71 71 137 94 246 85 304 -26 758 -343 943 -660 l39 -67 7 83 7 82 -76 155 c-148 300 -289 505 -463 672 -213 204 -438 312 -676 322 -50 2 -107 2 -126 -1z"/>
 <path d="M3238 14505 c-53 -39 -60 -55 -25 -55 28 0 470 -99 595 -133 83 -23 93 -24 87 -9 -4 9 -9 31 -12 49 -5 31 -9 33 -103 62 -140 44 -441 121 -470 121 -14 0 -46 -16 -72 -35z"/>
 <path d="M6140 14422 c36 -31 115 -105 176 -164 60 -60 113 -108 116 -108 3 0 9 16 12 36 8 42 4 48 -128 197 l-88 97 -76 0 -77 -1 65 -57z"/>
 <path d="M6321 14409 c35 -39 79 -90 97 -113 19 -22 37 -42 40 -44 4 -1 15 10 24 25 15 26 15 29 -8 75 -46 91 -100 128 -186 128 l-30 0 63 -71z"/>
 <path d="M2203 14454 c-47 -23 -133 -118 -133 -146 0 -76 132 -133 227 -97 15 5 79 64 143 129 l115 118 -65 6 c-125 11 -253 7 -287 -10z"/>
 <path d="M5902 14461 l-33 -6 83 -60 c136 -97 277 -214 376 -309 l92 -89 0 34 c0 19 3 44 6 56 5 17 -11 40 -83 114 -48 50 -134 131 -191 180 l-102 89 -58 -1 c-31 -1 -72 -4 -90 -8z"/>
 <path d="M5810 14454 c-8 -2 -45 -6 -83 -9 l-67 -7 162 -108 c193 -128 381 -277 534 -424 l112 -106 -19 61 c-10 33 -19 69 -19 78 0 35 -228 242 -455 412 -121 92 -146 107 -165 103z"/>
 <path d="M2095 14432 c-68 -29 -99 -49 -137 -89 -89 -92 -75 -177 36 -229 93 -44 217 -22 284 49 l21 22 -63 -3 c-72 -4 -129 18 -165 64 -41 52 -22 108 59 181 30 27 19 28 -35 5z"/>
 <path d="M3145 14417 c-11 -18 -13 -31 -6 -49 9 -23 18 -27 93 -37 181 -27 498 -92 712 -146 l29 -8 -32 47 c-18 25 -34 46 -36 46 -2 0 -81 20 -177 44 -141 37 -343 82 -540 122 -21 4 -30 0 -43 -19z"/>
 <path d="M5545 14421 c-20 -4 -31 -13 -33 -27 -3 -18 15 -32 99 -79 302 -171 627 -415 941 -705 62 -58 98 -88 81 -67 -18 20 -56 72 -84 115 -114 168 -426 447 -729 649 -190 127 -199 130 -275 114z"/>
 <path d="M5513 14326 c3 -7 9 -35 12 -60 5 -32 14 -51 29 -60 11 -7 89 -53 171 -101 268 -157 541 -345 740 -509 66 -55 162 -112 171 -103 5 5 -187 185 -312 293 -185 159 -449 347 -683 486 -118 70 -137 78 -128 54z"/>
 <path d="M3179 14302 c5 -9 27 -34 49 -56 39 -37 43 -39 169 -57 171 -25 390 -71 571 -121 203 -56 206 -56 157 -22 -22 15 -61 44 -86 65 -39 33 -64 43 -185 73 -175 44 -344 79 -504 105 -69 12 -137 23 -153 26 -24 4 -26 2 -18 -13z"/>
 <path d="M3358 14130 l63 -53 172 -29 c303 -51 631 -135 852 -217 97 -37 109 -39 138 -28 l31 13 -124 53 c-314 133 -774 256 -1145 307 l-50 7 63 -53z"/>
 <path d="M5550 14168 c0 -7 8 -42 18 -78 l17 -65 130 -64 c197 -96 420 -217 513 -277 66 -43 189 -104 209 -104 15 0 -27 35 -151 127 -173 130 -324 231 -521 350 -191 115 -215 127 -215 111z"/>
 <path d="M3470 14045 c0 -3 24 -21 53 -40 39 -26 84 -43 172 -64 66 -16 156 -41 200 -55 44 -14 146 -39 227 -56 80 -16 184 -41 231 -55 70 -20 91 -23 116 -14 17 6 31 15 31 19 0 10 -140 61 -289 105 -183 54 -342 91 -526 125 -93 17 -180 33 -192 36 -13 2 -23 2 -23 -1z"/>
 <path d="M5600 13983 c0 -4 10 -36 21 -73 l22 -66 87 -23 c48 -12 125 -38 171 -57 78 -33 290 -96 297 -89 5 4 -227 134 -348 195 -145 73 -250 120 -250 113z"/>
 <path d="M4281 13976 c2 -2 54 -23 114 -46 61 -24 142 -57 180 -74 66 -30 73 -31 120 -21 l50 12 -141 46 c-151 50 -339 98 -323 83z"/>
 <path d="M2875 13940 c-257 -89 -466 -263 -571 -475 -124 -250 -85 -485 108 -659 121 -110 278 -164 499 -173 170 -7 306 9 419 49 281 100 489 147 689 157 l133 6 -48 34 c-161 114 -372 294 -416 355 -39 54 -37 86 10 128 60 55 213 145 404 238 l177 87 -132 55 c-162 68 -312 118 -477 158 -191 45 -307 60 -515 66 l-190 5 -90 -31z m17 -389 c121 -58 189 -160 196 -296 5 -106 -21 -179 -90 -248 -68 -67 -124 -91 -218 -91 -105 1 -175 30 -249 103 -77 75 -105 145 -99 251 6 91 30 151 89 215 71 77 119 96 239 91 63 -2 97 -8 132 -25z"/>
 <path d="M2625 13537 c-102 -49 -175 -167 -175 -282 0 -226 253 -389 452 -292 61 30 105 74 140 140 32 59 33 201 2 268 -54 116 -154 180 -288 186 -70 4 -88 1 -131 -20z m210 -147 c42 -26 75 -88 75 -139 0 -144 -171 -210 -285 -110 -145 128 43 352 210 249z"/>
 <path d="M2697 13386 c-51 -19 -67 -34 -89 -83 -15 -35 -17 -50 -9 -81 40 -148 271 -140 288 11 12 107 -89 189 -190 153z"/>
 <path d="M7285 13961 c-84 -22 -159 -94 -195 -187 -20 -50 -23 -78 -24 -184 0 -141 16 -232 71 -404 52 -163 65 -188 150 -289 177 -208 316 -412 427 -625 l71 -135 80 -28 c44 -16 86 -29 93 -29 9 0 12 33 12 133 1 233 40 435 93 472 67 47 345 -24 661 -169 l79 -36 -105 109 c-186 192 -226 265 -314 581 -66 233 -366 540 -679 694 -60 30 -141 64 -180 76 -77 23 -194 34 -240 21z m291 -225 c136 -63 204 -252 138 -384 -84 -169 -306 -211 -431 -80 -77 80 -100 219 -53 325 24 57 91 126 143 148 51 23 144 19 203 -9z"/>
 <path d="M7384 13726 c-162 -71 -209 -310 -86 -439 114 -121 326 -79 403 79 60 125 -27 323 -160 362 -51 16 -118 14 -157 -2z m146 -121 c40 -21 60 -63 60 -126 0 -46 -4 -55 -39 -90 -32 -33 -45 -39 -80 -39 -57 0 -95 22 -116 66 -55 116 66 246 175 189z"/>
 <path d="M7434 13590 c-28 -11 -61 -54 -69 -90 -8 -38 11 -96 38 -115 65 -45 167 12 167 94 0 90 -62 141 -136 111z"/>
 <path d="M2725 13940 c-204 -36 -346 -81 -510 -160 -161 -78 -257 -144 -372 -253 -147 -141 -234 -279 -274 -435 -23 -89 -25 -233 -5 -308 48 -182 191 -312 411 -376 71 -20 101 -23 260 -23 200 1 277 12 489 70 96 26 419 144 432 158 1 1 -84 2 -189 2 -224 1 -278 11 -427 82 -203 97 -330 287 -330 493 0 194 122 423 308 575 74 62 192 134 262 161 44 17 74 35 55 33 -6 0 -55 -9 -110 -19z"/>
 <path d="M8880 13880 c-128 -20 -210 -62 -294 -150 -67 -70 -119 -173 -142 -280 -23 -110 -14 -287 20 -403 51 -172 102 -253 272 -429 68 -70 151 -162 185 -205 41 -52 60 -70 56 -53 -28 119 -41 231 -41 385 -1 152 2 178 23 245 54 174 139 252 305 281 207 35 437 -55 639 -250 95 -92 143 -153 196 -251 22 -41 41 -68 41 -60 0 30 -59 239 -95 336 -182 492 -573 812 -1025 838 -47 3 -110 1 -140 -4z"/>
 <path d="M5661 13792 c10 -28 12 -29 117 -38 59 -6 109 -9 110 -8 4 3 -167 58 -210 68 -26 6 -27 5 -17 -22z"/>
 <path d="M4120 13807 c3 -2 52 -25 109 -51 96 -42 108 -45 139 -35 45 15 33 21 -94 53 -137 33 -160 38 -154 33z"/>
 <path d="M4773 13803 c-7 -2 39 -31 102 -62 63 -32 136 -74 162 -93 26 -19 53 -37 58 -40 6 -3 25 5 44 18 l35 24 -145 68 c-187 90 -219 100 -256 85z"/>
 <path d="M4635 13773 l-50 -16 35 -15 c129 -57 227 -108 303 -156 l89 -56 34 28 c19 15 34 29 34 32 0 10 -167 110 -259 154 -103 50 -112 51 -186 29z"/>
 <path d="M4480 13718 c-46 -18 -51 -22 -35 -29 181 -74 328 -140 404 -181 l93 -50 27 26 26 27 -25 19 c-86 65 -339 193 -405 205 -18 3 -52 -4 -85 -17z"/>
 <path d="M5450 13696 c-362 -76 -601 -326 -640 -669 -18 -151 23 -344 94 -452 126 -191 340 -294 892 -430 144 -36 270 -67 280 -71 10 -4 -21 20 -71 53 -424 284 -569 614 -413 942 41 87 140 186 228 229 146 71 351 92 561 56 141 -24 355 -98 515 -178 l141 -71 -111 117 c-106 112 -117 121 -241 187 -232 125 -480 221 -688 267 -140 32 -440 42 -547 20z"/>
 <path d="M4311 13649 c-35 -16 -62 -31 -60 -33 2 -2 74 -25 159 -51 85 -25 228 -76 318 -111 l163 -65 19 23 c18 22 18 24 2 36 -53 42 -482 233 -520 232 -10 -1 -46 -14 -81 -31z"/>
 <path d="M4120 13561 c-82 -43 -82 -44 25 -61 119 -19 389 -88 528 -136 179 -62 169 -60 189 -25 l17 31 -45 19 c-145 65 -518 191 -604 205 -28 5 -50 -2 -110 -33z"/>
 <path d="M3933 13463 c-35 -21 -63 -41 -63 -45 0 -4 13 -8 30 -8 107 0 567 -77 789 -132 102 -25 125 -28 132 -17 5 8 9 17 9 20 0 21 -402 141 -615 184 -204 41 -210 41 -282 -2z"/>
 <path d="M3767 13360 c-31 -23 -57 -44 -57 -48 0 -4 80 -13 178 -20 211 -14 555 -52 743 -82 74 -12 140 -22 148 -23 7 -1 17 8 21 19 8 21 1 23 -138 57 -175 43 -378 79 -597 107 -88 11 -178 22 -200 25 -36 5 -48 1 -98 -35z"/>
 <path d="M5980 13334 c-149 -32 -298 -139 -363 -261 -35 -66 -67 -191 -67 -262 1 -237 167 -469 480 -674 102 -66 181 -104 315 -153 116 -42 266 -116 344 -168 30 -20 55 -35 56 -34 1 2 -4 59 -12 128 -8 70 -13 189 -11 270 4 184 11 200 93 200 95 0 407 -73 729 -170 92 -27 169 -50 172 -50 11 0 -113 226 -181 330 -150 232 -388 517 -481 576 -134 86 -364 188 -527 233 -181 51 -405 66 -547 35z m301 -204 c111 -35 190 -108 248 -230 22 -48 26 -68 26 -155 0 -89 -3 -105 -27 -151 -34 -65 -115 -138 -175 -158 -66 -23 -186 -21 -257 4 -262 90 -336 408 -143 608 93 96 199 123 328 82z"/>
 <path d="M6101 13119 c-51 -15 -103 -52 -149 -104 -117 -133 -114 -340 6 -463 69 -71 147 -105 252 -110 117 -5 180 18 249 94 189 206 22 570 -269 590 -30 2 -70 -1 -89 -7z m158 -194 c40 -20 78 -69 92 -115 24 -78 -24 -156 -109 -180 -52 -14 -81 -12 -128 9 -125 57 -132 225 -12 284 41 21 120 22 157 2z"/>
 <path d="M6103 12901 c-40 -25 -65 -73 -65 -122 1 -48 14 -72 58 -106 71 -53 186 -29 228 48 27 49 16 100 -33 152 -35 37 -43 41 -97 44 -46 3 -66 0 -91 -16z"/>
 <path d="M3730 13251 c11 -16 38 -43 59 -60 l39 -31 178 0 c99 0 311 -5 472 -11 202 -8 297 -8 304 -1 14 14 2 17 -192 46 -254 38 -713 86 -833 86 l-48 0 21 -29z"/>
 <path d="M11125 13270 c-107 -22 -224 -98 -339 -221 -42 -45 -76 -86 -76 -90 0 -4 33 12 73 36 83 51 182 80 236 70 121 -23 154 -129 76 -245 l-33 -50 36 16 c154 64 242 183 242 327 0 99 -41 147 -135 159 -22 3 -58 2 -80 -2z"/>
 <path d="M9241 13245 c-168 -38 -256 -157 -283 -384 -13 -110 1 -291 33 -455 18 -90 28 -113 90 -217 88 -148 144 -281 166 -399 l18 -92 65 -42 c36 -24 92 -66 125 -94 57 -49 75 -56 75 -27 0 8 14 56 31 107 54 162 123 279 176 299 34 13 130 -20 289 -101 76 -38 139 -68 140 -67 1 1 8 90 14 197 17 293 0 558 -45 677 -57 151 -194 329 -336 439 -177 136 -391 197 -558 159z m334 -310 c151 -74 241 -280 190 -436 -78 -233 -468 -262 -587 -42 -52 95 -54 229 -5 336 70 154 249 218 402 142z"/>
 <path d="M9352 12932 c-64 -23 -124 -78 -160 -147 -34 -66 -43 -203 -18 -270 30 -76 69 -120 140 -155 62 -31 70 -32 159 -28 81 3 100 8 147 34 99 56 147 145 137 254 -21 222 -222 377 -405 312z m198 -146 c75 -49 105 -149 67 -222 -43 -84 -155 -119 -236 -73 -122 68 -120 259 4 316 42 19 119 9 165 -21z"/>
 <path d="M9394 12786 c-94 -42 -111 -167 -35 -248 32 -35 45 -41 87 -45 161 -14 228 191 90 277 -46 28 -102 34 -142 16z"/>
 <path d="M3866 13123 c12 -10 38 -31 58 -47 l37 -29 372 7 c425 8 439 9 435 40 -3 20 -11 21 -123 27 -66 4 -273 10 -460 14 -330 6 -339 6 -319 -12z"/>
 <path d="M4662 13043 c-46 -2 -216 -7 -379 -11 l-296 -7 56 -43 56 -44 213 17 c117 9 263 22 323 30 61 8 113 15 118 15 4 0 7 11 7 25 0 14 -3 24 -7 23 -5 -1 -45 -4 -91 -5z"/>
 <path d="M10920 13034 c-62 -17 -117 -47 -208 -113 -52 -38 -72 -61 -112 -131 -43 -77 -110 -219 -110 -235 0 -3 13 3 30 15 50 36 148 76 319 130 185 59 223 84 261 171 36 84 10 146 -71 169 -41 12 -41 12 -109 -6z"/>
 <path d="M4675 12969 c-43 -7 -217 -24 -473 -45 l-73 -6 53 -40 c61 -46 51 -46 288 -2 207 38 290 62 290 85 0 21 -7 21 -85 8z"/>
 <path d="M4682 12900 c-35 -10 -131 -31 -215 -45 -217 -38 -208 -34 -150 -74 l48 -34 160 40 c214 54 235 63 235 102 0 17 -3 30 -7 30 -5 -1 -36 -9 -71 -19z"/>
 <path d="M4668 12805 c-37 -13 -112 -34 -168 -47 -55 -13 -100 -26 -100 -29 0 -11 76 -59 93 -59 25 0 206 59 250 82 27 13 37 24 33 34 -3 9 -6 22 -6 30 0 19 -23 17 -102 -11z"/>
 <path d="M3949 12789 c-105 -8 -288 -47 -414 -86 -102 -32 -327 -114 -323 -118 2 -2 50 10 108 26 187 53 501 128 645 153 77 13 132 25 123 25 -9 1 -22 3 -30 5 -7 2 -56 0 -109 -5z"/>
 <path d="M4040 12755 c-189 -31 -345 -65 -555 -121 -165 -44 -475 -136 -519 -154 -11 -5 -88 -32 -171 -61 -153 -52 -505 -190 -650 -253 l-80 -34 -22 -64 c-12 -35 -22 -69 -22 -76 -1 -7 52 14 122 49 619 311 1364 576 1941 690 107 21 161 36 149 40 -25 10 -31 10 -193 -16z"/>
 <path d="M4260 12742 c-14 -1 -83 -14 -155 -28 -589 -115 -1306 -369 -1945 -689 -144 -72 -150 -76 -159 -113 -19 -69 -24 -105 -15 -101 5 2 72 42 149 88 592 356 1317 635 2014 775 95 19 175 37 178 39 9 9 -44 32 -67 29z"/>
 <path d="M4721 12719 c-23 -10 -75 -28 -115 -40 -110 -32 -103 -29 -85 -39 12 -7 277 6 286 14 6 5 -23 86 -32 85 -5 0 -30 -9 -54 -20z"/>
 <path d="M4155 12655 c-331 -68 -608 -146 -913 -257 -404 -146 -889 -381 -1188 -574 l-84 -54 0 -63 c0 -35 2 -66 5 -69 4 -3 52 26 108 64 226 154 589 357 837 468 63 29 192 89 285 135 94 46 217 100 275 120 84 29 616 167 868 225 43 10 51 15 41 26 -16 20 -54 17 -234 -21z"/>
 <path d="M8166 12604 c146 -170 334 -470 444 -709 33 -72 41 -83 59 -78 12 3 21 7 21 8 0 21 -75 206 -119 295 -81 161 -283 476 -333 517 -7 7 -38 15 -68 19 l-55 7 51 -59z"/>
 <path d="M8075 12627 c-16 -25 -16 -26 55 -109 114 -131 239 -328 386 -605 56 -108 81 -133 99 -103 13 21 -167 364 -278 530 -65 97 -188 258 -220 288 l-25 24 -17 -25z"/>
 <path d="M4315 12619 c-47 -12 -57 -17 -30 -14 22 2 70 7 107 11 37 4 65 11 62 15 -8 13 -61 9 -139 -12z"/>
 <path d="M8286 12618 c4 -7 42 -62 84 -123 141 -202 259 -421 316 -590 28 -84 29 -85 62 -85 38 0 38 -2 -11 145 -56 170 -130 320 -251 512 l-71 113 -59 20 c-70 23 -80 24 -70 8z"/>
 <path d="M4530 12584 c-234 -22 -442 -55 -520 -80 -205 -68 -369 -222 -475 -446 -75 -160 -105 -321 -86 -476 35 -282 175 -461 425 -541 125 -40 209 -51 388 -51 228 -1 291 11 412 75 190 101 419 187 571 215 119 22 116 17 34 64 -181 103 -259 172 -259 229 0 43 37 118 96 197 64 84 229 248 332 329 l81 64 -131 44 c-73 25 -165 60 -206 78 -148 69 -276 173 -333 273 l-24 42 -85 -1 c-47 -1 -146 -7 -220 -15z m-398 -485 c125 -27 229 -104 281 -209 44 -88 54 -162 33 -253 -21 -88 -48 -139 -107 -202 -161 -171 -460 -164 -583 14 -60 86 -90 219 -75 328 32 225 232 368 451 322z"/>
 <path d="M3981 12079 c-106 -21 -202 -96 -249 -197 -24 -51 -27 -68 -27 -172 0 -124 12 -166 72 -253 107 -155 373 -167 528 -26 121 111 163 288 102 431 -44 101 -150 186 -266 212 -76 17 -94 18 -160 5z m179 -154 c89 -46 136 -194 90 -285 -48 -95 -193 -154 -283 -116 -117 50 -148 253 -54 354 62 67 170 87 247 47z"/>
 <path d="M4017 11917 c-88 -28 -137 -97 -137 -194 0 -107 67 -193 150 -193 50 0 154 53 187 96 72 95 13 261 -105 294 -44 12 -46 12 -95 -3z"/>
 <path d="M8462 12558 c159 -244 277 -495 328 -695 10 -39 14 -43 40 -43 22 0 30 5 30 18 0 31 -40 173 -77 272 -43 117 -171 396 -188 410 -6 5 -42 21 -80 35 l-68 26 15 -23z"/>
 <path d="M8041 12522 c-6 -29 -11 -60 -11 -69 0 -9 32 -51 71 -94 106 -118 227 -284 320 -440 80 -133 105 -160 124 -129 7 11 -121 254 -213 407 -76 123 -170 255 -230 323 l-49 55 -12 -53z"/>
 <path d="M1170 12505 c-124 -49 -217 -104 -257 -150 -61 -71 -105 -150 -110 -198 -4 -36 -1 -48 23 -76 26 -32 30 -33 85 -29 42 3 68 12 99 33 48 33 60 55 130 230 28 70 60 145 71 167 11 22 19 41 17 42 -2 2 -28 -7 -58 -19z"/>
 <path d="M8630 12505 c0 -1 24 -52 54 -111 98 -199 196 -476 196 -554 0 -11 10 -20 28 -23 15 -3 28 -4 30 -2 6 5 -57 300 -83 389 -30 104 -81 230 -98 244 -14 12 -127 63 -127 57z"/>
 <path d="M3735 12451 c-397 -103 -650 -234 -786 -409 -68 -88 -133 -226 -160 -337 -28 -112 -30 -312 -6 -421 58 -259 214 -467 423 -566 112 -52 188 -70 334 -75 219 -8 388 36 665 174 160 80 297 154 293 158 -2 2 -55 -1 -118 -6 -136 -12 -328 1 -447 31 -197 50 -353 164 -425 310 -60 122 -82 216 -82 355 0 166 27 280 104 435 72 145 209 294 327 358 32 17 51 31 43 31 -8 0 -82 -17 -165 -38z"/>
 <path d="M8805 12414 c51 -122 115 -358 146 -536 11 -68 11 -68 51 -79 22 -5 42 -8 46 -5 7 8 -16 249 -32 326 -25 118 -36 144 -85 205 -50 62 -143 128 -126 89z"/>
 <path d="M8017 12333 l-5 -67 113 -117 c110 -114 242 -279 287 -359 24 -41 33 -46 57 -31 12 7 4 27 -39 103 -98 173 -205 323 -339 476 -30 34 -58 62 -61 62 -4 0 -10 -30 -13 -67z"/>
 <path d="M2510 12359 c-25 -5 -81 -13 -125 -18 -44 -5 -124 -23 -177 -40 l-96 -31 -16 -47 c-9 -26 -16 -50 -16 -54 0 -5 37 8 83 27 45 20 150 63 232 95 214 85 221 89 115 68z"/>
 <path d="M802 12289 c-74 -61 -156 -166 -177 -228 -8 -25 -15 -64 -15 -88 0 -117 105 -176 216 -122 46 22 156 133 189 190 l19 34 -26 -17 c-39 -26 -103 -38 -143 -27 -47 13 -85 61 -85 107 0 38 34 122 71 173 11 16 19 29 17 29 -2 0 -31 -23 -66 -51z"/>
 <path d="M6780 12320 c-6 -10 -13 -38 -16 -62 -5 -43 -5 -43 48 -78 82 -55 320 -241 468 -368 171 -146 535 -510 665 -666 55 -65 110 -131 122 -145 l22 -26 -9 40 c-5 22 -10 65 -10 95 l0 55 -112 125 c-253 283 -746 750 -1036 983 -87 71 -123 82 -142 47z"/>
 <path d="M2130 12315 c0 -18 4 -18 50 0 l35 13 -42 1 c-32 1 -43 -3 -43 -14z"/>
 <path d="M6910 12316 c0 -2 55 -50 123 -107 307 -260 773 -710 957 -922 41 -47 76 -84 78 -83 2 2 9 29 16 59 l13 55 -85 104 c-46 56 -191 209 -321 338 -199 199 -294 288 -528 493 -25 23 -253 79 -253 63z"/>
 <path d="M7240 12217 c25 -23 111 -101 190 -173 184 -167 514 -503 605 -616 l70 -86 21 51 c25 62 33 46 -106 212 -208 251 -553 585 -617 598 -15 4 -68 17 -118 31 l-90 25 45 -42z"/>
 <path d="M8010 12165 l1 -70 77 -51 c42 -28 94 -61 114 -73 54 -32 104 -95 147 -184 34 -72 38 -76 56 -63 18 13 16 18 -40 100 -64 95 -211 270 -299 356 l-56 54 0 -69z"/>
 <path d="M2760 12067 c-269 -134 -499 -267 -669 -385 l-95 -66 30 -12 c17 -7 57 -15 90 -19 l59 -6 130 91 c154 108 376 248 498 314 48 26 87 51 87 56 0 4 32 42 71 84 39 42 69 76 67 76 -2 0 -123 -60 -268 -133z"/>
 <path d="M6760 12142 c0 -99 10 -138 41 -156 16 -9 72 -51 126 -94 775 -608 1380 -1327 1748 -2077 89 -181 182 -403 221 -528 11 -37 26 -63 42 -73 l25 -16 -7 38 c-4 22 -28 102 -53 179 -138 422 -463 1062 -667 1308 -31 38 -72 96 -92 130 -75 128 -345 439 -586 673 -221 216 -525 472 -742 626 l-56 40 0 -50z"/>
 <path d="M9030 12170 c0 -8 7 -51 14 -95 8 -44 18 -128 22 -186 l7 -107 38 -15 c21 -8 40 -12 43 -9 3 3 6 44 6 92 0 82 -2 91 -44 176 -52 108 -86 164 -86 144z"/>
 <path d="M7520 12149 c146 -121 404 -389 553 -574 44 -55 83 -101 86 -102 3 -2 16 15 29 37 l22 39 -59 84 c-85 119 -232 283 -377 420 -55 52 -70 60 -160 87 -117 35 -127 36 -94 9z"/>
 <path d="M1930 12153 c-79 -12 -235 -48 -302 -69 -72 -23 -80 -28 -126 -87 -168 -212 -238 -388 -230 -577 6 -122 32 -191 99 -265 125 -135 340 -169 587 -90 126 41 188 81 262 171 35 43 112 127 171 187 l107 107 -167 0 c-174 1 -295 16 -350 45 -39 20 -61 67 -61 129 0 63 34 235 70 346 16 52 30 98 30 103 0 7 -44 8 -90 0z m-196 -457 c64 -19 106 -54 138 -112 54 -102 43 -201 -33 -288 -102 -116 -257 -126 -363 -23 -130 125 -71 357 106 418 65 22 91 23 152 5z"/>
 <path d="M1610 11681 c-75 -24 -138 -81 -168 -150 -22 -53 -19 -138 7 -189 44 -86 155 -135 253 -111 41 9 63 23 105 64 90 90 103 197 38 297 -45 69 -162 113 -235 89z m98 -121 c19 -12 40 -37 49 -58 13 -32 14 -42 2 -77 -16 -45 -67 -85 -108 -85 -61 0 -123 68 -123 135 0 44 15 69 54 88 44 22 86 21 126 -3z"/>
 <path d="M1595 11548 c-33 -17 -45 -40 -45 -81 0 -29 7 -45 29 -67 54 -54 116 -47 154 17 16 28 17 38 7 69 -20 59 -93 91 -145 62z"/>
 <path d="M5576 12131 c5 -5 63 -18 129 -30 66 -12 129 -25 140 -28 11 -3 17 -2 12 3 -4 4 -58 20 -120 36 -113 28 -179 36 -161 19z"/>
 <path d="M5475 12063 l-59 -47 214 -33 c437 -67 858 -164 1075 -248 41 -16 -9 23 -95 75 -141 84 -279 136 -475 180 -156 35 -576 120 -593 120 -4 0 -34 -21 -67 -47z"/>
 <path d="M7856 12003 c111 -109 228 -243 307 -351 l60 -83 26 25 25 25 -30 62 c-41 87 -177 294 -206 312 -20 13 -250 97 -266 97 -3 0 35 -39 84 -87z"/>
 <path d="M5880 12071 c8 -5 33 -12 55 -15 28 -4 33 -3 15 2 -46 16 -86 23 -70 13z"/>
 <path d="M8017 12059 c7 -7 15 -10 18 -7 3 3 -2 9 -12 12 -14 6 -15 5 -6 -5z"/>
 <path d="M1380 11979 c-329 -175 -545 -472 -591 -815 -26 -199 35 -397 164 -528 159 -163 385 -201 590 -101 133 66 381 310 570 562 5 7 -21 -1 -58 -18 -258 -117 -546 -97 -688 46 -87 89 -123 203 -114 362 8 152 75 316 191 471 30 39 50 72 43 72 -7 0 -55 -23 -107 -51z"/>
 <path d="M5331 11936 l-54 -54 54 -6 c30 -3 104 -8 164 -11 360 -19 770 -77 1060 -150 94 -24 178 -46 188 -50 12 -5 17 -2 17 8 0 36 -338 139 -710 216 -174 35 -581 101 -631 101 -29 0 -44 -9 -88 -54z"/>
 <path d="M2690 11894 c-168 -100 -470 -303 -470 -315 0 -5 35 -9 78 -9 l77 0 62 50 c91 74 208 156 285 201 60 35 72 48 98 100 17 32 27 59 22 59 -4 0 -73 -39 -152 -86z"/>
 <path d="M6773 11949 c3 -19 9 -64 12 -100 l7 -67 67 -48 c327 -238 696 -562 907 -796 66 -73 139 -150 164 -172 341 -309 568 -630 715 -1011 49 -125 110 -329 121 -400 6 -42 10 -47 60 -74 30 -16 54 -26 54 -22 0 15 -49 150 -100 276 -200 493 -545 1029 -965 1500 -273 307 -751 743 -1000 915 l-48 33 6 -34z"/>
 <path d="M8154 11876 c34 -51 79 -125 100 -165 l37 -71 25 17 c18 14 23 24 19 43 -10 45 -58 133 -94 173 -37 41 -116 97 -137 97 -6 0 16 -42 50 -94z"/>
 <path d="M9763 11888 c212 -489 327 -1226 327 -2105 l0 -233 35 17 35 17 0 325 c0 733 -56 1336 -164 1764 -19 76 -40 145 -46 152 -12 14 -159 75 -181 75 -6 0 -9 -6 -6 -12z"/>
 <path d="M9711 11862 c-11 -16 -34 -57 -50 -91 l-29 -61 49 -121 c53 -129 113 -317 155 -483 33 -129 139 -664 154 -776 28 -217 33 -553 10 -734 -5 -44 -8 -81 -6 -83 10 -10 64 28 70 49 17 66 0 679 -29 1008 -41 459 -133 908 -245 1193 -54 136 -53 135 -79 99z"/>
 <path d="M5210 11813 l-42 -48 129 -2 c457 -8 970 -60 1316 -133 77 -17 144 -30 149 -30 4 0 8 8 8 18 0 16 -23 25 -132 55 -309 84 -761 152 -1148 172 -63 3 -142 8 -176 11 l-61 5 -43 -48z"/>
 <path d="M9183 11796 c1 -37 7 -61 15 -64 16 -5 15 31 -3 83 l-13 40 1 -59z"/>
 <path d="M2681 11770 c-101 -66 -246 -173 -257 -192 -5 -8 15 -10 80 -5 l87 6 77 70 c67 61 79 77 93 125 9 31 16 56 15 56 -1 0 -43 -27 -95 -60z"/>
 <path d="M9984 11794 c32 -84 86 -339 115 -545 54 -387 71 -653 78 -1196 6 -460 6 -462 26 -452 20 11 20 17 13 293 -3 154 -12 353 -19 441 -19 248 -16 529 7 650 15 82 18 124 12 230 -7 136 -27 305 -46 390 -27 124 -26 122 -93 159 -89 50 -102 54 -93 30z"/>
 <path d="M8635 11765 c-84 -18 -214 -79 -275 -130 -140 -116 -251 -343 -250 -512 1 -109 54 -236 148 -354 61 -77 342 -366 342 -352 0 4 -7 40 -15 78 -70 334 22 607 240 709 96 46 163 61 275 60 251 0 522 -168 703 -434 64 -93 65 -86 15 58 -166 474 -419 748 -793 857 -113 33 -284 42 -390 20z"/>
 <path d="M6800 11738 c0 -19 28 -190 32 -192 2 -2 32 -20 68 -41 149 -88 377 -257 495 -365 28 -26 88 -68 135 -95 47 -26 119 -71 160 -99 108 -74 110 -75 53 -15 -29 29 -53 57 -53 60 0 10 -271 262 -414 385 -116 98 -360 293 -443 352 -22 16 -33 19 -33 10z"/>
 <path d="M5122 11697 c-18 -25 -32 -48 -32 -50 0 -3 136 -3 303 0 449 8 777 -16 1152 -83 105 -19 202 -37 216 -40 24 -5 26 -4 22 20 -6 31 -16 34 -228 76 -334 65 -738 107 -1141 117 l-261 6 -31 -46z"/>
 <path d="M10174 11685 c22 -83 46 -249 57 -385 l13 -152 27 61 c16 34 37 74 48 90 24 33 28 121 11 231 -15 94 -16 96 -68 126 -26 15 -58 34 -71 43 -24 15 -24 15 -17 -14z"/>
 <path d="M2679 11630 l-54 -49 41 -1 c23 0 46 6 52 13 7 9 23 87 17 87 -1 0 -26 -22 -56 -50z"/>
 <path d="M9612 11650 c-15 -38 -52 -165 -52 -178 0 -6 24 -43 53 -82 71 -94 126 -191 187 -330 27 -63 50 -110 50 -105 0 56 -149 545 -203 665 -24 53 -25 54 -35 30z"/>
 <path d="M5185 11624 c-108 -6 -115 -9 -115 -48 0 -59 1 -59 302 -46 483 22 998 -7 1341 -76 43 -9 81 -14 83 -11 3 3 2 16 -1 29 -6 24 -16 27 -168 57 -177 34 -382 63 -577 81 -124 11 -730 21 -865 14z"/>
 <path d="M10344 11578 c3 -13 9 -66 13 -119 l6 -96 27 31 c15 17 30 44 34 59 10 43 -10 100 -43 125 -38 28 -45 28 -37 0z"/>
 <path d="M2618 11531 c-77 -15 -166 -92 -310 -265 -153 -183 -161 -216 -20 -76 129 128 234 202 355 252 74 31 77 33 77 65 0 31 -2 33 -32 32 -18 -1 -50 -5 -70 -8z"/>
 <path d="M5340 11510 c-96 -5 -184 -11 -195 -13 -15 -2 -1 -15 56 -53 l76 -51 94 13 c424 57 996 40 1377 -40 l63 -13 -3 31 -3 31 -113 21 c-132 26 -324 50 -502 64 -185 15 -650 20 -850 10z"/>
 <path d="M6835 11503 c3 -10 9 -44 15 -76 11 -56 13 -58 63 -83 29 -15 81 -44 117 -65 36 -21 101 -51 145 -67 44 -17 107 -42 140 -56 l60 -26 -35 30 c-116 101 -346 267 -462 334 -40 23 -46 25 -43 9z"/>
 <path d="M10691 11505 c-243 -55 -394 -241 -444 -545 -27 -159 -30 -281 -13 -490 9 -107 16 -225 16 -262 0 -37 4 -69 8 -72 5 -3 15 20 22 52 35 161 128 381 213 506 96 142 231 236 371 257 256 40 439 -148 540 -556 33 -135 65 -428 67 -609 0 -95 3 -91 55 89 96 332 104 681 23 973 -87 311 -287 557 -519 639 -93 32 -241 40 -339 18z"/>
 <path d="M2660 11426 c-169 -68 -363 -227 -508 -417 -37 -50 -81 -144 -70 -154 2 -2 28 26 58 62 65 78 181 183 270 243 75 51 207 114 273 131 l48 12 -7 71 c-4 39 -7 72 -8 73 -1 1 -26 -8 -56 -21z"/>
 <path d="M5675 11414 c-22 -2 -96 -9 -165 -15 -69 -5 -141 -14 -160 -18 l-35 -7 71 -37 71 -36 136 15 c316 33 731 34 1091 4 123 -10 155 -8 128 9 -17 10 -236 48 -387 67 -114 14 -657 27 -750 18z"/>
 <path d="M6870 11321 c0 -20 12 -25 105 -47 40 -9 32 -2 -42 35 -59 29 -63 30 -63 12z"/>
 <path d="M5752 11309 c-56 -5 -137 -12 -180 -17 l-77 -9 79 -37 79 -37 156 20 c86 11 226 25 311 31 85 6 191 19 235 30 44 10 89 21 100 23 37 8 -598 4 -703 -4z"/>
 <path d="M2659 11261 c-120 -39 -238 -109 -367 -221 -96 -83 -226 -236 -218 -257 3 -8 6 -20 6 -26 0 -6 42 30 93 81 156 155 312 262 460 313 45 16 92 29 105 29 26 0 25 -2 11 56 -6 24 -16 44 -23 43 -6 0 -36 -8 -67 -18z"/>
 <path d="M6486 11269 c-392 -54 -656 -296 -696 -639 -24 -212 56 -430 225 -608 161 -170 281 -228 654 -312 97 -22 218 -52 270 -65 52 -14 95 -24 97 -22 2 1 -20 18 -49 37 -223 150 -426 359 -510 525 -103 204 -70 417 91 596 241 269 743 247 1297 -56 l100 -55 -60 55 c-83 77 -278 214 -399 282 -347 195 -751 299 -1020 262z"/>
 <path d="M5332 11250 c-89 -13 -71 -20 49 -20 104 1 112 2 89 15 -27 16 -57 17 -138 5z"/>
 <path d="M9004 11241 c-349 -56 -491 -348 -386 -792 17 -70 24 -82 96 -164 185 -212 322 -481 404 -795 l35 -135 1 -255 c1 -140 -2 -286 -7 -325 l-7 -70 50 124 c64 158 125 272 172 323 34 37 41 40 77 35 73 -9 233 -125 413 -296 l90 -85 -9 110 c-15 206 -10 487 12 614 16 95 20 161 20 385 0 280 -11 402 -56 624 -51 249 -291 534 -545 646 -114 50 -255 72 -360 56z m275 -350 c96 -50 176 -168 202 -299 30 -155 -39 -305 -169 -369 -48 -24 -69 -28 -137 -28 -105 1 -183 34 -255 111 -69 73 -102 148 -108 245 -10 165 74 299 220 351 72 25 185 20 247 -11z"/>
 <path d="M9053 10886 c-88 -29 -157 -89 -195 -171 -18 -40 -23 -67 -23 -140 0 -77 4 -98 27 -147 84 -180 282 -263 440 -185 130 64 193 213 154 365 -32 124 -98 217 -188 263 -53 27 -156 34 -215 15z m154 -167 c101 -38 142 -182 82 -288 -27 -49 -66 -71 -124 -71 -62 0 -111 24 -146 73 -59 81 -61 171 -6 234 51 58 126 78 194 52z"/>
 <path d="M9070 10688 c-54 -37 -74 -72 -74 -127 0 -97 80 -181 171 -181 146 0 179 245 43 315 -43 22 -101 19 -140 -7z"/>
 <path d="M6035 11235 c-5 -2 -81 -11 -167 -20 -87 -10 -158 -21 -158 -25 0 -4 33 -22 73 -39 l74 -32 94 16 c65 11 108 25 139 45 25 15 59 35 75 43 30 16 29 16 -45 16 -41 0 -79 -2 -85 -4z"/>
 <path d="M5080 11192 c-82 -28 -222 -84 -218 -87 2 -2 66 6 143 16 89 12 235 22 400 26 l260 6 -55 25 c-52 24 -66 25 -265 29 -184 3 -217 1 -265 -15z"/>
 <path d="M2649 11136 c-150 -52 -312 -162 -463 -314 l-88 -90 25 -16 c25 -17 26 -16 133 70 185 149 347 246 482 289 56 19 57 20 42 59 -12 33 -41 33 -131 2z"/>
 <path d="M5175 11119 c-380 -37 -483 -69 -568 -178 -27 -34 -46 -61 -43 -61 3 0 70 18 148 40 327 91 645 144 958 159 l145 7 -40 20 c-36 17 -65 19 -275 20 -129 1 -275 -2 -325 -7z"/>
 <path d="M5930 11110 l-35 -7 28 -11 c37 -16 41 -15 62 8 18 19 17 20 -1 19 -10 -1 -35 -5 -54 -9z"/>
 <path d="M2718 11046 c-119 -42 -286 -145 -456 -282 -61 -49 -80 -69 -70 -75 27 -18 54 -7 159 60 144 94 274 165 390 215 l96 42 -15 32 c-9 18 -20 32 -26 32 -6 0 -41 -11 -78 -24z"/>
 <path d="M5575 11054 c-16 -2 -79 -9 -140 -15 -217 -22 -497 -77 -755 -150 l-146 -41 -42 -66 c-23 -36 -40 -67 -38 -69 2 -2 90 26 197 61 209 70 548 160 749 200 110 21 250 41 454 62 104 10 40 24 -109 22 -77 0 -153 -3 -170 -4z"/>
 <path d="M5845 11013 c-372 -31 -749 -114 -1204 -265 -211 -71 -214 -72 -228 -107 -20 -47 -27 -97 -15 -105 5 -3 92 30 193 73 451 193 931 337 1222 367 51 5 70 11 78 25 5 11 6 18 2 17 -4 -1 -26 -3 -48 -5z"/>
 <path d="M2740 10942 c-155 -68 -466 -255 -454 -273 10 -17 34 -9 176 60 141 68 302 131 338 131 12 0 25 16 39 49 11 27 21 54 21 60 0 19 -32 11 -120 -27z"/>
 <path d="M5790 10953 c-174 -20 -526 -112 -810 -213 -205 -73 -552 -221 -553 -235 0 -5 25 -23 55 -39 l55 -30 94 43 c491 227 794 337 1170 425 15 3 34 17 43 31 18 28 23 26 -54 18z"/>
 <path d="M6880 10935 c-173 -39 -314 -151 -391 -312 -38 -78 -44 -97 -47 -175 -7 -146 46 -273 182 -437 139 -167 427 -389 591 -456 274 -112 527 -281 642 -429 l30 -40 32 105 c76 250 135 378 186 401 38 17 186 -35 418 -150 109 -53 197 -92 197 -86 0 6 -13 57 -29 115 -116 409 -290 731 -566 1042 -123 140 -496 328 -800 403 -128 32 -346 41 -445 19z m346 -285 c82 -40 154 -112 193 -192 79 -162 59 -313 -55 -417 -150 -137 -382 -128 -539 20 -172 162 -163 423 19 560 72 55 125 70 229 65 74 -3 98 -9 153 -36z"/>
 <path d="M6944 10652 c-89 -31 -166 -108 -205 -202 -8 -21 -14 -68 -14 -115 1 -105 35 -183 110 -254 155 -147 377 -157 518 -22 168 158 95 457 -139 572 -83 41 -191 50 -270 21z m231 -197 c105 -79 94 -250 -19 -304 -78 -38 -157 -22 -215 45 -80 91 -58 214 49 272 61 32 133 27 185 -13z"/>
 <path d="M7002 10449 c-73 -37 -105 -104 -82 -173 35 -106 150 -158 230 -103 77 52 99 129 58 206 -29 57 -64 82 -119 88 -32 3 -56 -2 -87 -18z"/>
 <path d="M4514 10925 c-16 -12 -17 -14 -3 -15 9 0 19 7 23 15 7 19 5 19 -20 0z"/>
 <path d="M10856 10930 c-75 -13 -186 -73 -248 -133 -139 -133 -255 -375 -324 -677 -21 -91 -24 -130 -24 -297 0 -106 4 -193 8 -193 5 0 53 18 108 40 202 83 388 135 434 123 11 -3 38 -33 61 -67 69 -102 227 -438 283 -600 6 -16 14 -9 51 46 52 77 143 247 203 375 40 87 42 96 42 185 -1 418 -82 821 -203 1011 -93 144 -239 214 -391 187z m201 -334 c74 -37 118 -79 149 -142 50 -102 22 -246 -66 -334 -55 -55 -103 -74 -197 -78 -71 -3 -89 -1 -135 20 -72 34 -109 67 -143 129 -55 102 -43 255 27 335 89 101 245 131 365 70z"/>
 <path d="M10816 10585 c-68 -27 -109 -63 -139 -120 -17 -32 -22 -57 -22 -125 0 -73 4 -92 27 -135 49 -93 122 -138 236 -144 91 -4 145 15 202 70 126 123 119 309 -16 412 -91 69 -188 83 -288 42z m199 -115 c51 -31 79 -84 79 -147 0 -64 -22 -98 -85 -131 -81 -43 -195 -8 -232 71 -56 118 30 247 156 233 27 -3 64 -15 82 -26z"/>
 <path d="M10854 10461 c-47 -21 -74 -68 -74 -126 0 -109 142 -182 235 -121 90 59 74 196 -29 245 -52 26 -79 26 -132 2z"/>
 <path d="M2882 10895 c-16 -35 -16 -35 18 -35 35 0 36 6 12 38 l-18 23 -12 -26z"/>
 <path d="M4388 10859 c-32 -16 -58 -30 -58 -32 0 -1 31 0 69 3 61 4 72 8 91 33 l21 27 -33 0 c-18 -1 -59 -14 -90 -31z"/>
 <path d="M5645 10844 c-158 -42 -215 -60 -415 -134 -228 -85 -660 -274 -649 -284 2 -2 37 -13 78 -24 l73 -21 131 66 c283 141 646 293 849 355 57 17 80 29 87 46 6 13 11 25 11 27 0 10 -39 2 -165 -31z"/>
 <path d="M2903 10841 c-24 -4 -44 -9 -46 -12 -9 -10 -58 -142 -54 -145 2 -2 63 10 135 27 l131 31 -56 52 c-30 28 -58 52 -62 52 -3 1 -25 -2 -48 -5z"/>
 <path d="M2703 10810 c-115 -39 -325 -142 -315 -152 5 -5 37 2 75 16 36 14 121 39 189 56 67 17 125 34 129 38 3 4 11 22 17 40 14 40 12 40 -95 2z"/>
 <path d="M4315 10800 c-27 -4 -99 -30 -160 -59 -106 -50 -108 -51 -60 -45 28 3 108 11 178 17 l129 12 25 43 25 42 -43 -1 c-24 -1 -66 -5 -94 -9z"/>
 <path d="M5640 10756 c-227 -79 -529 -209 -765 -329 -60 -31 -101 -56 -90 -57 11 0 53 -5 93 -10 l74 -10 118 66 c229 125 485 239 626 279 53 15 63 21 67 44 3 14 9 34 12 44 4 9 3 17 -1 17 -5 0 -65 -20 -134 -44z"/>
 <path d="M2925 10688 c-71 -17 -132 -32 -133 -34 -6 -5 -53 -136 -50 -139 2 -2 48 11 103 29 55 18 165 50 244 71 l143 38 -63 33 c-35 18 -75 33 -89 32 -14 0 -83 -14 -155 -30z"/>
 <path d="M2670 10689 c-212 -55 -415 -149 -565 -261 -55 -41 -107 -83 -116 -94 -29 -34 -89 -212 -106 -315 -38 -230 37 -398 219 -490 99 -50 173 -70 289 -76 135 -7 231 12 354 73 127 62 171 98 262 215 44 57 119 142 167 187 48 46 86 85 84 86 -2 1 -57 12 -123 25 -161 30 -379 85 -438 110 -65 28 -74 51 -60 149 9 60 88 323 119 400 7 15 5 15 -86 -9z m-267 -612 c149 -63 195 -264 89 -387 -87 -102 -237 -118 -344 -37 -77 59 -111 160 -88 257 15 64 86 144 145 165 51 18 156 19 198 2z"/>
 <path d="M2210 10054 c-89 -38 -149 -140 -136 -232 24 -179 239 -262 376 -144 53 45 79 101 80 170 0 89 -48 169 -125 203 -49 23 -146 24 -195 3z m156 -128 c28 -28 34 -41 34 -78 0 -50 -19 -82 -62 -104 -105 -54 -213 102 -129 187 24 24 38 29 76 29 40 0 52 -5 81 -34z"/>
 <path d="M2221 9914 c-29 -36 -27 -85 4 -122 32 -38 67 -47 105 -27 36 19 50 43 50 88 0 76 -113 119 -159 61z"/>
 <path d="M4270 10693 c-197 -20 -320 -38 -397 -59 -50 -14 -143 -31 -205 -39 -62 -8 -196 -35 -298 -60 -200 -50 -663 -199 -678 -218 -14 -17 -24 -90 -14 -104 20 -30 55 -31 127 -1 242 101 628 226 901 293 158 39 446 90 569 100 l81 7 16 44 16 44 -42 -2 c-22 0 -57 -3 -76 -5z"/>
 <path d="M5675 10665 c-77 -24 -79 -21 27 -44 36 -8 36 -8 43 26 3 19 5 36 3 38 -2 2 -34 -7 -73 -20z"/>
 <path d="M3145 10609 c-60 -16 -178 -50 -261 -75 l-152 -46 -20 -67 c-11 -36 -18 -67 -17 -69 2 -2 68 19 147 46 178 62 355 115 523 158 72 18 123 34 115 37 -13 4 -150 32 -205 42 -11 2 -69 -9 -130 -26z"/>
 <path d="M4180 10574 c-374 -50 -805 -166 -1263 -341 -81 -31 -145 -58 -143 -61 3 -2 44 -15 92 -27 l88 -23 80 35 c254 110 599 227 870 294 125 30 391 79 439 79 4 0 7 14 7 30 0 36 -5 36 -170 14z"/>
 <path d="M5645 10572 c83 -31 95 -34 95 -22 0 14 -36 27 -96 34 l-49 6 50 -18z"/>
 <path d="M5478 10553 c-27 -15 -48 -29 -48 -33 0 -3 30 -14 67 -24 37 -9 107 -33 156 -53 49 -19 91 -32 94 -29 3 3 2 26 -2 51 -7 51 -21 61 -125 90 -88 25 -93 25 -142 -2z"/>
 <path d="M8455 10435 c227 -388 473 -955 530 -1222 5 -27 48 -73 68 -73 21 0 -116 499 -195 710 -136 365 -153 393 -368 605 l-111 110 76 -130z"/>
 <path d="M5158 10438 c-87 -45 -158 -85 -158 -89 0 -3 18 -9 41 -12 39 -5 46 -2 160 84 102 77 129 100 117 99 -2 0 -74 -37 -160 -82z"/>
 <path d="M4205 10490 c-299 -46 -639 -144 -1025 -297 -91 -36 -169 -68 -173 -73 -5 -4 34 -16 85 -27 l93 -19 125 62 c300 148 655 261 978 310 l113 17 -22 23 c-26 28 -19 28 -174 4z"/>
 <path d="M5337 10463 c-26 -19 -47 -37 -45 -38 2 -2 68 -21 148 -43 80 -22 190 -56 245 -76 55 -19 101 -33 103 -31 2 2 -3 26 -13 54 l-16 50 -102 40 c-96 37 -239 81 -262 81 -5 0 -32 -17 -58 -37z"/>
 <path d="M4305 10429 c-272 -49 -452 -96 -655 -171 -157 -58 -372 -153 -402 -178 -21 -17 -21 -17 23 -23 38 -5 50 -2 84 22 74 52 190 113 295 156 227 91 441 133 719 142 l184 6 -63 29 c-65 29 -99 32 -185 17z"/>
 <path d="M5210 10370 l-52 -39 53 -14 c274 -75 443 -126 543 -163 66 -24 121 -44 123 -44 7 0 -61 116 -74 126 -25 21 -244 93 -450 148 l-92 24 -51 -38z"/>
 <path d="M4310 10333 c-155 -12 -213 -24 -284 -56 -237 -110 -392 -296 -452 -543 -23 -93 -23 -276 0 -369 39 -161 147 -311 266 -368 130 -63 302 -71 492 -23 113 29 135 39 225 108 158 120 420 275 566 334 37 15 67 30 67 33 0 3 -42 33 -92 66 -134 87 -324 230 -380 286 -30 30 -48 57 -48 71 0 59 131 220 288 353 39 33 68 63 64 67 -25 23 -556 54 -712 41z m60 -435 c191 -94 254 -270 166 -463 -47 -104 -164 -191 -270 -202 -63 -6 -160 17 -222 53 -184 108 -214 363 -62 530 79 86 144 114 258 111 58 -2 87 -8 130 -29z"/>
 <path d="M4122 9893 c-23 -8 -66 -36 -95 -63 -236 -216 -108 -569 208 -574 55 -1 80 4 120 23 134 67 217 225 194 372 -28 178 -251 305 -427 242z m187 -117 c43 -23 99 -91 111 -136 30 -112 -58 -220 -180 -220 -55 0 -119 28 -148 65 -70 88 -38 240 60 288 41 20 120 22 157 3z"/>
 <path d="M4147 9745 c-48 -33 -69 -75 -69 -140 -1 -70 24 -113 82 -142 55 -28 109 -29 160 -3 95 48 112 161 38 246 -62 70 -143 85 -211 39z"/>
 <path d="M5070 10259 c-34 -29 -58 -55 -53 -59 4 -4 46 -15 93 -24 212 -43 591 -141 883 -227 25 -7 22 -1 -31 59 -57 64 -66 69 -169 109 -150 57 -606 193 -649 193 -7 0 -40 -23 -74 -51z"/>
 <path d="M3880 10265 c-267 -74 -473 -185 -653 -354 -152 -143 -265 -329 -318 -521 -34 -123 -34 -323 -1 -430 66 -212 244 -375 479 -442 61 -17 104 -22 198 -22 180 1 305 37 451 133 84 54 392 348 354 337 -376 -106 -648 -21 -778 244 -62 126 -76 192 -75 345 0 99 5 149 21 207 54 201 179 369 357 479 89 55 86 57 -35 24z"/>
 <path d="M1880 10223 c-62 -71 -155 -213 -199 -306 -181 -380 -174 -709 18 -920 203 -221 561 -234 782 -29 67 62 125 144 286 404 58 95 112 183 120 195 11 17 -5 10 -68 -28 -120 -72 -217 -101 -360 -107 -134 -5 -236 15 -354 72 -244 116 -317 371 -200 694 13 37 23 68 21 70 -2 1 -23 -19 -46 -45z"/>
 <path d="M4933 10139 c-24 -22 -43 -42 -43 -44 0 -3 9 -5 21 -5 11 0 102 -16 202 -36 1075 -211 2076 -593 2651 -1011 98 -72 128 -76 51 -7 -158 141 -393 297 -638 424 -251 130 -335 163 -517 205 -281 63 -400 107 -540 201 -50 33 -100 53 -220 89 -235 70 -873 226 -918 225 -4 0 -26 -19 -49 -41z"/>
 <path d="M8820 10008 c101 -249 194 -555 242 -788 12 -58 28 -112 35 -120 13 -13 14 2 11 115 -4 126 -5 135 -55 280 -28 83 -77 210 -108 284 -54 128 -171 371 -179 371 -2 0 22 -64 54 -142z"/>
 <path d="M12201 10134 c-56 -15 -178 -71 -187 -85 -3 -5 14 -2 37 6 53 19 132 19 169 0 86 -44 79 -158 -13 -237 -29 -25 -30 -27 -11 -28 34 0 105 28 155 62 65 44 99 99 99 161 0 42 -5 54 -33 82 -33 33 -90 55 -137 54 -14 0 -49 -7 -79 -15z"/>
 <path d="M4811 10019 c-29 -33 -51 -62 -49 -64 2 -2 60 -11 128 -20 734 -94 1435 -267 2005 -495 334 -133 716 -350 901 -513 l42 -37 7 31 c8 35 14 28 -120 123 -554 392 -1449 741 -2465 960 -63 13 -169 34 -235 45 -66 12 -129 23 -141 26 -15 3 -33 -11 -73 -56z"/>
 <path d="M12060 10036 c-76 -28 -147 -71 -183 -110 -42 -44 -160 -206 -155 -211 2 -2 35 7 73 20 44 15 116 28 195 35 118 10 128 12 176 45 77 53 112 132 84 186 -25 45 -116 62 -190 35z"/>
 <path d="M1205 9961 c-130 -72 -225 -140 -257 -186 -15 -22 -43 -77 -62 -121 -88 -203 -87 -331 3 -391 110 -74 231 -14 312 154 38 78 41 91 54 232 15 163 27 240 50 314 10 35 11 47 2 47 -7 0 -52 -22 -102 -49z"/>
 <path d="M4731 9911 c-17 -31 -13 -45 22 -78 31 -30 37 -31 142 -38 714 -43 1469 -214 2045 -463 309 -133 646 -327 822 -474 47 -39 68 -42 68 -9 0 23 -43 62 -165 152 -590 436 -1682 787 -2867 924 -50 6 -58 4 -67 -14z"/>
 <path d="M4845 9750 c22 -18 59 -46 83 -62 l43 -30 197 -3 c644 -11 1297 -170 1917 -469 233 -113 418 -221 698 -409 26 -19 27 -19 27 0 0 35 -262 219 -497 349 -640 356 -1476 580 -2418 649 l-90 7 40 -32z"/>
 <path d="M10665 9725 c-44 -13 -83 -24 -87 -25 -26 -1 -109 -208 -163 -407 -34 -122 -115 -498 -115 -531 0 -10 22 8 60 48 49 54 63 77 80 135 86 290 202 586 282 719 24 39 45 74 46 78 6 13 -18 9 -103 -17z"/>
 <path d="M835 9678 c-139 -153 -219 -363 -219 -578 0 -263 133 -374 331 -275 77 39 167 124 202 192 31 62 68 197 80 298 15 125 15 127 -20 65 -79 -144 -195 -201 -304 -151 -127 58 -140 196 -41 431 19 44 33 80 31 80 -2 0 -29 -28 -60 -62z"/>
 <path d="M10758 9682 c-47 -72 -124 -236 -173 -367 -30 -80 -135 -400 -135 -412 0 -2 22 11 48 29 45 30 55 44 155 242 59 116 136 258 172 315 61 97 65 107 54 133 -16 39 -67 118 -76 118 -5 0 -25 -26 -45 -58z"/>
 <path d="M10425 9642 l-90 -37 -18 -55 c-58 -171 -137 -723 -137 -951 l0 -54 41 70 c35 60 45 89 66 200 63 344 143 640 209 784 19 41 34 75 34 77 0 7 -16 2 -105 -34z"/>
 <path d="M5031 9631 c-10 -6 2 -19 47 -50 l60 -41 189 -4 c190 -5 347 -21 548 -55 61 -11 169 -25 240 -31 72 -6 195 -24 275 -40 80 -17 156 -32 170 -35 14 -2 -29 13 -95 36 -143 48 -418 120 -567 148 -294 56 -823 100 -867 72z"/>
 <path d="M6973 9583 c4 -3 10 -3 14 0 3 4 0 7 -7 7 -7 0 -10 -3 -7 -7z"/>
 <path d="M10223 9559 l-71 -30 -16 -87 c-22 -122 -33 -226 -51 -462 -23 -307 -23 -299 28 -355 l43 -48 12 169 c24 312 72 626 121 782 10 34 16 62 12 62 -3 0 -38 -14 -78 -31z"/>
 <path d="M7169 9489 c271 -140 418 -238 675 -449 l30 -24 -20 34 c-33 59 -185 203 -284 269 -116 77 -319 177 -458 225 -57 20 -107 36 -110 36 -4 0 71 -41 167 -91z"/>
 <path d="M10864 9513 c-70 -109 -284 -506 -284 -527 0 -2 33 8 73 23 l72 26 129 193 130 192 -34 71 c-19 39 -38 73 -42 75 -4 3 -24 -21 -44 -53z"/>
 <path d="M8090 9518 c-11 -18 -20 -38 -20 -44 0 -6 41 -96 91 -199 111 -231 248 -550 323 -756 31 -85 62 -166 67 -180 9 -23 14 -25 42 -19 24 5 31 11 29 26 -16 100 -121 429 -215 671 -88 223 -208 502 -224 518 -8 8 -28 15 -44 15 -22 0 -34 -8 -49 -32z"/>
 <path d="M8220 9526 c0 -2 23 -57 51 -122 84 -195 183 -448 247 -629 53 -149 78 -233 122 -402 10 -39 14 -43 41 -43 24 0 29 4 25 18 -3 9 -19 78 -36 152 -79 343 -250 923 -281 954 -7 7 -169 76 -169 72z"/>
 <path d="M5190 9513 c0 -5 34 -30 75 -56 l75 -48 133 7 c72 3 170 12 216 20 46 8 102 14 124 14 73 0 26 17 -93 34 -210 30 -530 47 -530 29z"/>
 <path d="M10053 9485 c-67 -31 -72 -36 -80 -72 -12 -58 -6 -392 10 -537 13 -113 18 -131 39 -153 l25 -25 7 124 c11 206 37 477 55 588 10 58 18 106 17 106 0 1 -33 -13 -73 -31z"/>
 <path d="M8042 9420 c-5 -14 -17 -50 -27 -80 l-17 -55 67 -125 c86 -160 264 -532 345 -722 65 -151 76 -164 112 -135 15 11 10 30 -51 192 -113 300 -257 630 -379 870 -38 75 -41 79 -50 55z"/>
 <path d="M8456 9337 c72 -211 143 -462 209 -730 47 -193 72 -277 81 -277 8 0 14 4 14 9 0 40 -136 1001 -143 1007 -6 5 -91 46 -140 68 l-55 24 34 -101z"/>
 <path d="M5715 9395 c-239 -44 -431 -136 -583 -279 -315 -298 -377 -776 -132 -1026 89 -91 184 -127 365 -137 127 -7 251 4 600 52 359 50 337 43 226 71 -313 81 -491 233 -551 470 -90 351 151 600 657 680 75 12 171 17 317 17 l209 1 -54 18 c-104 37 -305 89 -439 114 -171 33 -485 43 -615 19z"/>
 <path d="M5420 9391 c-44 -7 -44 -7 -20 -19 22 -11 32 -10 70 7 49 21 37 24 -50 12z"/>
 <path d="M10927 9298 c-97 -141 -167 -246 -167 -253 0 -3 10 -3 23 -1 12 3 47 8 77 11 l56 6 68 100 68 101 -27 64 c-15 35 -29 64 -30 64 -2 0 -32 -42 -68 -92z"/>
 <path d="M8644 9314 c6 -19 103 -696 127 -886 12 -92 14 -98 36 -98 l23 0 0 288 c0 261 -11 519 -26 597 -5 26 -18 37 -86 74 -64 35 -79 40 -74 25z"/>
 <path d="M7965 9190 c-10 -33 -18 -66 -18 -73 0 -7 49 -103 110 -212 109 -198 201 -369 302 -557 47 -88 54 -97 72 -88 10 6 19 15 19 19 0 49 -437 971 -461 971 -3 0 -14 -27 -24 -60z"/>
 <path d="M10998 9145 l-57 -84 37 -6 c20 -4 48 -8 62 -11 20 -4 31 2 48 25 12 17 22 35 22 40 0 18 -41 121 -48 121 -4 -1 -33 -39 -64 -85z"/>
 <path d="M6315 9209 c-102 -14 -228 -47 -322 -84 -258 -104 -381 -289 -345 -522 29 -183 138 -327 322 -422 162 -84 333 -121 559 -121 294 0 518 -59 697 -185 36 -25 66 -45 68 -45 6 0 14 57 31 204 26 226 32 232 228 223 190 -8 421 -64 560 -134 27 -13 51 -22 53 -20 7 6 -133 170 -251 295 -62 66 -105 122 -120 155 -38 87 -147 203 -310 331 -125 99 -240 170 -411 253 l-158 78 -266 2 c-146 1 -296 -3 -335 -8z m-2 -302 c125 -74 184 -228 142 -373 -13 -47 -27 -69 -68 -109 -60 -58 -105 -75 -198 -75 -193 0 -333 196 -274 384 27 85 110 170 193 197 51 16 157 4 205 -24z"/>
 <path d="M6107 8906 c-187 -67 -245 -307 -109 -450 54 -56 123 -86 200 -86 102 0 177 45 225 135 29 56 30 181 1 246 -61 132 -195 198 -317 155z m154 -152 c27 -13 69 -85 69 -117 0 -36 -29 -86 -59 -101 -92 -48 -211 12 -211 106 0 108 99 163 201 112z"/>
 <path d="M6135 8738 c-61 -33 -73 -107 -27 -159 23 -25 38 -33 79 -36 59 -6 87 6 109 49 21 41 11 89 -27 128 -24 24 -39 30 -72 30 -23 0 -51 -6 -62 -12z"/>
 <path d="M8834 9169 c3 -30 8 -233 12 -451 5 -284 10 -398 18 -398 6 0 20 -3 32 -6 19 -5 21 1 33 108 29 267 41 432 41 571 l0 147 -55 35 c-88 57 -88 57 -81 -6z"/>
 <path d="M9393 9124 c-14 -14 -22 -30 -19 -37 200 -448 319 -878 357 -1292 24 -263 -13 -670 -87 -959 -27 -104 -7 -71 36 59 121 373 176 760 152 1072 -26 336 -111 727 -219 1009 -32 83 -38 92 -84 123 -77 50 -105 55 -136 25z"/>
 <path d="M8987 8908 c-3 -117 -13 -274 -21 -348 -32 -280 -32 -254 -1 -268 14 -7 30 -10 35 -7 26 16 100 433 107 603 l6 133 -53 50 c-29 27 -56 49 -60 49 -4 0 -10 -96 -13 -212z"/>
 <path d="M7911 9000 l-22 -81 129 -197 c134 -205 269 -424 298 -486 l17 -35 29 20 28 21 -67 126 c-90 172 -380 702 -387 710 -2 1 -13 -34 -25 -78z"/>
 <path d="M9301 8969 l-50 -106 53 -119 c170 -382 299 -788 342 -1075 13 -90 15 -157 11 -319 -5 -178 -34 -469 -53 -535 -4 -14 -3 -17 4 -10 17 16 60 227 81 395 41 324 37 554 -14 855 -53 314 -196 776 -303 980 l-21 40 -50 -106z"/>
 <path d="M11100 9050 c-9 -17 -7 -22 12 -29 28 -11 27 -12 21 22 -6 32 -18 35 -33 7z"/>
 <path d="M9620 9027 c0 -2 18 -55 41 -117 66 -187 134 -480 175 -765 25 -164 24 -503 0 -670 -29 -201 -82 -424 -151 -640 -18 -56 21 27 70 150 87 217 141 418 170 641 19 142 21 519 5 729 -10 132 -45 411 -56 446 -6 20 -254 241 -254 226z"/>
 <path d="M10770 8995 c-225 -45 -406 -199 -533 -451 -77 -154 -135 -362 -157 -564 -14 -130 -39 -325 -47 -365 -4 -22 15 -1 70 78 217 308 447 525 634 598 88 34 209 33 286 -3 139 -65 250 -254 292 -497 34 -200 28 -439 -16 -609 -10 -41 -18 -77 -16 -78 6 -7 117 207 145 281 66 174 101 355 109 560 20 535 -195 982 -508 1054 -59 14 -180 12 -259 -4z"/>
 <path d="M7550 8893 c25 -20 86 -77 137 -125 50 -49 96 -88 102 -88 6 0 11 13 11 29 0 26 -12 37 -102 99 -57 38 -123 81 -148 96 l-45 27 45 -38z"/>
 <path d="M7876 8863 c-3 -10 -12 -49 -20 -86 l-14 -68 52 -62 c79 -93 285 -354 336 -424 25 -34 47 -62 50 -62 3 0 13 6 23 13 16 13 15 18 -24 87 -92 162 -382 619 -393 619 -3 0 -7 -8 -10 -17z"/>
 <path d="M9228 8799 c-8 -19 -25 -62 -37 -96 l-23 -63 45 -87 c97 -189 289 -671 337 -843 38 -142 54 -283 54 -495 0 -110 -3 -218 -7 -240 -5 -25 -4 -34 2 -25 16 27 41 321 41 477 0 171 -19 304 -75 523 -54 214 -172 545 -283 794 l-40 89 -14 -34z"/>
 <path d="M9904 8753 c3 -10 10 -54 15 -98 55 -418 60 -838 16 -1115 -18 -107 -64 -295 -95 -384 -11 -33 -18 -61 -16 -63 6 -6 84 218 117 336 41 147 66 286 84 467 19 184 36 285 72 409 21 74 24 104 20 168 -3 43 -12 87 -20 100 -24 36 -178 197 -189 197 -5 0 -7 -8 -4 -17z"/>
 <path d="M4404 8628 c-64 -67 -86 -98 -111 -159 -41 -98 -51 -165 -29 -207 20 -39 44 -52 95 -52 52 0 91 33 121 102 22 52 22 56 10 184 -7 73 -10 151 -6 173 3 23 5 41 2 41 -2 0 -39 -37 -82 -82z"/>
 <path d="M7835 8631 c-10 -60 12 -97 136 -228 63 -66 146 -159 184 -206 39 -47 74 -85 79 -83 5 1 14 9 19 18 8 12 -13 45 -94 149 -111 144 -309 389 -314 389 -2 0 -6 -17 -10 -39z"/>
 <path d="M9117 8494 l-35 -107 44 -67 c23 -37 69 -114 101 -171 32 -57 77 -131 99 -164 130 -190 215 -455 233 -724 9 -139 -1 -325 -23 -441 -8 -41 -12 -77 -10 -79 28 -29 71 389 59 574 -16 254 -43 374 -142 640 -114 301 -265 645 -284 645 -4 0 -23 -48 -42 -106z"/>
 <path d="M10141 8485 c0 -35 1 -37 10 -17 6 15 5 30 -1 40 -7 13 -9 8 -9 -23z"/>
 <path d="M4215 8409 c-65 -88 -127 -218 -133 -278 -7 -76 4 -114 50 -166 146 -165 344 -80 380 163 6 39 7 97 3 129 l-7 58 -15 -30 c-37 -73 -103 -112 -162 -95 -50 14 -72 31 -87 65 -19 46 -18 81 5 154 10 34 17 61 15 61 -2 0 -24 -28 -49 -61z"/>
 <path d="M9058 8309 l-16 -49 58 -40 c32 -22 62 -44 65 -50 3 -5 15 -15 26 -20 14 -8 8 8 -25 63 -24 41 -54 90 -68 110 l-24 36 -16 -50z"/>
 <path d="M10791 8285 c-96 -27 -217 -102 -322 -201 -202 -188 -434 -495 -471 -623 -67 -230 -133 -407 -227 -605 -34 -71 -60 -130 -59 -131 2 -1 64 -10 138 -19 281 -36 523 -93 596 -141 25 -16 26 -21 21 -70 -3 -29 -17 -76 -32 -105 -14 -28 -25 -54 -22 -56 7 -7 218 124 315 195 209 154 439 386 498 503 68 135 105 401 85 618 -30 332 -142 554 -315 629 -47 20 -145 23 -205 6z m62 -285 c203 -33 348 -203 335 -390 -9 -117 -72 -205 -188 -259 -48 -23 -68 -26 -160 -26 -93 0 -111 3 -160 26 -30 14 -72 44 -94 65 -21 22 -51 64 -65 94 -23 48 -26 68 -26 155 1 115 17 164 80 234 53 58 84 79 146 95 67 18 62 18 132 6z"/>
 <path d="M10749 7980 c-61 -10 -95 -30 -146 -82 -65 -67 -87 -126 -88 -233 0 -76 4 -99 26 -145 33 -70 79 -116 149 -149 47 -22 69 -26 150 -26 83 0 103 4 155 28 74 34 109 67 143 132 36 67 38 186 5 257 -30 66 -107 145 -173 178 -50 25 -74 32 -155 44 -11 2 -41 0 -66 -4z m151 -152 c69 -36 103 -86 108 -161 3 -52 0 -67 -20 -96 -41 -61 -71 -76 -148 -76 -60 0 -74 4 -112 30 -116 82 -120 252 -7 308 49 24 126 22 179 -5z"/>
 <path d="M10726 7811 c-126 -84 -58 -284 102 -298 140 -12 216 150 119 256 -53 57 -165 79 -221 42z"/>
 <path d="M8600 8274 c-82 -17 -190 -70 -257 -126 -241 -201 -322 -534 -218 -903 20 -71 49 -188 65 -259 16 -70 31 -130 33 -132 2 -2 7 44 10 103 13 218 68 443 145 587 48 91 140 184 217 222 56 27 68 29 180 29 104 0 129 -3 192 -26 93 -34 201 -107 261 -175 70 -81 138 -206 176 -324 40 -125 54 -195 70 -361 l12 -124 14 90 c24 144 19 433 -8 572 -73 369 -255 660 -483 772 -137 68 -269 85 -409 55z"/>
 <path d="M7403 8198 c-6 -7 -14 -27 -17 -44 -6 -28 3 -46 77 -155 182 -267 365 -603 477 -874 110 -268 207 -594 241 -807 6 -43 15 -78 20 -78 9 0 8 11 -22 205 -42 275 -146 634 -275 950 -73 178 -252 534 -347 690 -69 114 -74 120 -108 123 -21 2 -40 -2 -46 -10z"/>
 <path d="M7513 8203 c2 -5 35 -60 72 -123 312 -529 538 -1128 615 -1635 28 -184 30 -189 39 -179 20 23 -33 435 -91 699 -72 334 -202 693 -393 1093 -49 103 -73 142 -89 146 -31 8 -158 7 -153 -1z"/>
 <path d="M7774 8068 c75 -158 164 -365 216 -501 l37 -99 8 119 c4 65 8 132 8 148 0 54 -146 408 -176 427 -7 4 -37 12 -67 18 -30 6 -63 14 -72 16 -13 4 -1 -30 46 -128z"/>
 <path d="M7910 8147 c0 -3 22 -54 49 -114 27 -59 59 -138 72 -176 13 -37 26 -67 29 -67 3 0 13 26 24 58 l18 59 -33 101 -33 102 -51 16 c-27 9 -56 19 -62 22 -7 2 -13 2 -13 -1z"/>
 <path d="M8070 8084 c0 -11 41 -144 44 -144 2 0 17 23 34 50 l31 50 -49 25 c-52 26 -60 29 -60 19z"/>
 <path d="M7366 8008 c-3 -40 -9 -93 -12 -118 -6 -45 -5 -47 68 -135 315 -381 561 -878 698 -1417 18 -71 37 -128 41 -128 13 0 11 33 -7 135 -85 496 -340 1090 -697 1626 -39 60 -75 109 -78 109 -3 0 -9 -33 -13 -72z"/>
 <path d="M7329 7742 l-15 -67 71 -80 c127 -144 203 -244 292 -386 67 -107 188 -330 226 -415 38 -88 142 -400 177 -534 25 -96 36 -114 45 -78 12 47 -85 386 -180 628 -100 256 -202 451 -352 678 -70 106 -220 303 -241 316 -5 3 -16 -25 -23 -62z"/>
 <path d="M8626 7756 c-219 -93 -345 -381 -376 -861 -8 -130 -7 -173 9 -296 11 -79 22 -179 26 -221 4 -43 8 -78 9 -78 2 0 75 43 162 96 185 111 418 230 469 240 27 5 41 2 54 -10 37 -33 100 -268 141 -524 l12 -73 40 53 c93 124 190 308 248 473 39 111 47 207 31 371 -36 366 -154 618 -355 752 -104 69 -177 93 -306 98 -95 4 -111 2 -164 -20z m328 -336 c145 -55 218 -215 171 -375 -22 -79 -105 -163 -185 -190 -190 -63 -389 53 -425 247 -15 82 38 209 111 265 93 71 223 92 328 53z"/>
 <path d="M8755 7409 c-58 -17 -138 -74 -171 -121 -99 -145 -42 -324 126 -402 78 -36 176 -36 248 0 178 88 216 322 76 458 -65 63 -188 92 -279 65z m190 -159 c64 -62 70 -151 14 -215 -56 -63 -144 -68 -220 -14 -59 42 -77 140 -36 199 34 51 81 72 150 67 49 -3 62 -8 92 -37z"/>
 <path d="M8763 7250 c-116 -70 -58 -241 83 -244 52 -1 91 25 117 77 26 51 14 102 -33 150 -33 33 -43 37 -86 37 -31 0 -61 -7 -81 -20z"/>
 <path d="M5735 7696 c-204 -43 -249 -62 -338 -145 -52 -49 -87 -106 -87 -143 0 -31 33 -83 65 -104 16 -10 45 -17 71 -16 88 1 214 103 274 222 15 30 53 90 83 133 31 42 53 77 49 76 -4 0 -56 -11 -117 -23z"/>
 <path d="M7302 7620 c-30 -79 -29 -84 52 -176 41 -47 106 -107 144 -134 39 -27 101 -80 138 -117 61 -61 66 -64 44 -28 -77 129 -209 305 -314 420 -54 60 -54 60 -64 35z"/>
 <path d="M5320 7560 c-196 -104 -271 -215 -226 -335 24 -61 99 -127 171 -150 160 -50 302 33 365 213 13 37 26 74 29 82 2 8 -15 -2 -40 -22 -106 -86 -197 -105 -263 -54 -90 68 -87 152 10 256 26 27 43 50 38 50 -5 0 -43 -18 -84 -40z"/>
 <path d="M7260 7474 c-13 -34 -15 -32 28 -50 87 -37 86 -37 37 21 -26 30 -49 55 -51 55 -3 0 -9 -12 -14 -26z"/>
 <path d="M6585 7476 c-150 -29 -263 -86 -368 -185 -138 -131 -216 -333 -188 -487 32 -172 148 -288 504 -503 65 -39 120 -71 123 -71 3 0 -11 21 -31 47 -91 119 -153 301 -141 415 16 163 128 299 296 360 57 20 83 23 210 23 181 0 264 -20 435 -105 180 -89 341 -221 487 -400 l37 -45 -14 45 c-68 224 -169 413 -301 559 -147 164 -365 278 -639 336 -108 23 -320 28 -410 11z"/>
 <path d="M9810 7070 c0 -7 3 -10 7 -7 3 4 3 10 0 14 -4 3 -7 0 -7 -7z"/>
 <path d="M6830 7045 c-179 -50 -294 -170 -322 -337 -9 -52 -8 -77 6 -139 20 -90 70 -200 131 -284 57 -79 83 -102 190 -165 215 -127 420 -281 514 -386 46 -52 49 -54 56 -32 4 13 9 88 12 168 4 131 2 157 -22 275 -39 182 -39 189 -20 205 14 11 24 11 66 -3 120 -38 346 -185 496 -323 l86 -78 -6 129 c-3 72 -15 184 -27 250 -19 111 -24 125 -68 190 -65 95 -198 233 -301 311 -104 79 -297 176 -406 205 -107 28 -307 35 -385 14z m247 -236 c163 -79 172 -297 16 -397 -61 -39 -106 -47 -177 -32 -182 38 -255 247 -133 377 77 81 191 101 294 52z"/>
 <path d="M6915 6811 c-72 -18 -132 -68 -159 -133 -30 -72 -12 -151 49 -214 48 -50 132 -80 195 -69 84 14 168 98 184 183 17 93 -54 197 -155 226 -57 17 -68 18 -114 7z m79 -105 c45 -19 66 -52 66 -104 0 -37 -6 -50 -35 -79 -32 -32 -40 -35 -76 -30 -141 19 -142 213 -1 226 7 0 28 -5 46 -13z"/>
 <path d="M6929 6692 c-39 -5 -64 -37 -64 -84 0 -33 6 -45 33 -69 40 -36 71 -37 111 -3 24 20 31 34 31 63 0 63 -46 101 -111 93z"/>
 <path d="M9586 6898 c-3 -13 -5 -34 -5 -48 1 -15 5 -7 10 19 9 47 6 68 -5 29z"/>
 <path d="M9572 6795 c0 -16 2 -22 5 -12 2 9 2 23 0 30 -3 6 -5 -1 -5 -18z"/>
 <path d="M9596 6775 c-3 -9 -6 -22 -5 -28 0 -7 5 -1 10 12 5 13 8 26 5 28 -2 2 -6 -3 -10 -12z"/>
 <path d="M9560 6750 c0 -7 3 -10 7 -7 3 4 3 10 0 14 -4 3 -7 0 -7 -7z"/>
 <path d="M9477 6583 c-64 -198 -161 -384 -284 -549 -29 -39 -53 -74 -53 -77 0 -21 27 4 101 94 103 124 175 233 241 364 48 93 113 264 104 272 -2 2 -19 6 -37 9 l-34 6 -38 -119z"/>
 <path d="M9586 6603 c-61 -188 -193 -410 -360 -603 -56 -66 -76 -97 -74 -113 3 -19 20 -6 119 93 220 221 358 395 439 553 70 138 70 139 -40 152 l-56 6 -28 -88z"/>
 <path d="M9785 6657 c-3 -7 -12 -32 -20 -57 -55 -157 -281 -452 -520 -678 -54 -51 -96 -95 -93 -97 2 -3 58 39 124 92 152 124 378 351 471 473 81 107 167 251 155 261 -15 13 -113 19 -117 6z"/>
 <path d="M9890 6568 c-107 -196 -351 -465 -612 -677 -86 -70 -128 -110 -128 -123 0 -20 1 -20 28 -2 15 10 63 40 107 67 187 112 645 549 757 721 21 33 38 62 38 66 0 4 -24 11 -52 14 -29 4 -62 9 -73 12 -16 3 -28 -11 -65 -78z"/>
 <path d="M10088 6588 c-51 -108 -277 -346 -583 -616 l-59 -52 84 31 c102 37 76 21 255 154 244 182 442 355 502 441 l22 31 -82 18 c-45 9 -91 19 -102 21 -16 4 -25 -3 -37 -28z"/>
 <path d="M8930 6546 c0 -25 -9 -92 -20 -151 -74 -382 -330 -886 -692 -1362 -42 -57 -73 -103 -69 -103 8 0 201 200 333 345 307 338 582 810 564 970 -8 68 -62 278 -81 315 -22 43 -35 37 -35 -14z"/>
 <path d="M8798 6535 c-98 -50 -89 -33 -103 -200 -15 -165 -82 -407 -176 -636 -90 -221 -274 -562 -400 -745 -16 -24 -27 -44 -24 -44 10 0 216 282 310 424 287 435 470 866 501 1177 5 55 4 69 -7 68 -8 0 -53 -20 -101 -44z"/>
 <path d="M10284 6509 c-74 -93 -304 -291 -509 -439 -47 -34 -85 -63 -83 -65 13 -12 152 33 247 80 120 60 236 108 313 131 45 14 50 19 95 102 26 48 56 111 66 141 16 48 17 55 2 70 -8 10 -31 22 -49 28 -34 11 -35 10 -82 -48z"/>
 <path d="M8579 6415 l-96 -55 -6 -157 c-7 -199 -38 -364 -114 -597 -72 -221 -180 -472 -277 -643 -20 -35 -34 -63 -32 -63 2 0 29 37 58 83 324 492 541 1027 565 1390 3 53 4 97 2 97 -2 0 -47 -25 -100 -55z"/>
 <path d="M8375 6295 l-71 -44 9 -88 c17 -175 -8 -445 -59 -652 -30 -122 -102 -335 -144 -428 -17 -36 -28 -68 -25 -71 8 -8 139 274 198 429 68 177 121 356 148 503 22 119 38 396 23 396 -5 0 -41 -20 -79 -45z"/>
 <path d="M7410 6298 c0 -40 29 -99 96 -199 215 -323 336 -621 391 -969 l18 -115 3 90 c12 328 -103 731 -302 1058 -38 64 -47 72 -118 108 -87 44 -88 44 -88 27z"/>
 <path d="M8044 6285 c4 -19 7 -47 21 -205 5 -55 57 -266 69 -277 6 -7 -4 128 -15 192 -15 91 -60 278 -71 295 -7 12 -8 11 -4 -5z"/>
 <path d="M11185 6295 c-5 -1 -43 -8 -84 -15 l-75 -12 30 -16 c16 -8 52 -34 79 -57 99 -84 311 -173 383 -162 129 22 77 158 -92 238 -53 25 -72 29 -146 28 -47 0 -89 -2 -95 -4z"/>
 <path d="M11480 6269 c47 -28 99 -78 116 -111 35 -67 1 -135 -73 -145 -45 -6 -156 23 -226 59 -22 11 -41 18 -43 16 -8 -8 134 -112 186 -137 76 -35 180 -37 228 -3 40 29 72 89 72 135 0 84 -107 165 -265 201 l-30 7 35 -22z"/>
 <path d="M8212 6192 l-54 -36 9 -111 c4 -60 8 -220 8 -355 0 -220 -3 -256 -23 -349 -31 -139 -73 -254 -139 -384 -30 -59 -53 -110 -50 -113 6 -7 97 171 140 276 106 258 166 497 188 755 11 138 3 355 -15 354 -6 0 -35 -17 -64 -37z"/>
 <path d="M7645 6158 c60 -96 158 -311 194 -424 55 -170 98 -401 102 -544 l2 -45 8 45 c11 66 11 472 -1 570 -6 47 -20 120 -32 163 -20 75 -24 81 -80 128 -60 50 -202 149 -213 149 -3 0 6 -19 20 -42z"/>
 <path d="M10170 6166 c-95 -38 -280 -123 -280 -129 0 -2 39 -4 88 -4 48 1 116 -3 152 -6 l65 -7 42 90 c24 51 37 90 30 90 -7 -1 -50 -16 -97 -34z"/>
 <path d="M9055 6135 c-4 -11 -21 -54 -37 -95 -110 -282 -371 -638 -756 -1029 -86 -88 -152 -156 -147 -152 6 4 69 52 140 107 383 291 696 605 812 811 36 65 36 65 29 151 -11 129 -31 232 -41 207z"/>
 <path d="M7456 6068 c7 -40 13 -90 14 -112 0 -32 9 -50 57 -105 171 -200 284 -454 344 -776 l19 -100 -6 79 c-15 199 -99 485 -208 708 -59 122 -213 378 -226 378 -4 0 -1 -33 6 -72z"/>
 <path d="M9860 5983 c-18 -4 -5 -9 50 -19 365 -63 583 -298 583 -629 0 -118 -25 -186 -97 -259 -81 -83 -228 -147 -372 -162 -36 -4 -61 -10 -57 -15 10 -9 211 -66 283 -79 30 -6 97 -10 150 -11 158 0 246 37 348 146 73 77 117 164 139 272 80 387 -326 743 -867 758 -74 2 -146 1 -160 -2z"/>
 <path d="M7945 5909 c18 -70 32 -186 40 -324 6 -105 -8 -447 -21 -510 -13 -63 8 -13 37 86 55 191 70 284 76 464 l6 171 -50 59 c-28 33 -62 71 -76 84 l-26 23 14 -53z"/>
 <path d="M9620 5935 c-102 -30 -298 -126 -395 -193 -52 -35 -71 -55 -73 -74 -3 -24 1 -26 60 -37 198 -39 452 -113 550 -162 74 -37 95 -67 77 -110 -21 -51 -96 -147 -197 -251 -105 -109 -107 -96 13 -119 33 -6 102 -24 153 -41 100 -32 129 -32 273 -2 205 42 339 138 380 276 13 44 12 182 -2 249 -33 162 -161 321 -319 397 -102 50 -223 80 -345 87 -77 5 -102 2 -175 -20z m580 -342 c78 -32 123 -105 123 -198 0 -70 -18 -117 -64 -170 -46 -52 -99 -75 -177 -75 -76 0 -119 18 -166 70 -85 94 -60 284 47 359 56 40 159 46 237 14z"/>
 <path d="M10005 5578 c-11 -6 -33 -22 -48 -37 -110 -101 -87 -305 40 -357 43 -19 125 -18 171 2 165 69 183 314 28 385 -46 21 -158 25 -191 7z m145 -93 c40 -21 60 -53 60 -97 0 -77 -43 -118 -124 -118 -59 0 -104 37 -113 92 -15 100 86 170 177 123z"/>
 <path d="M10041 5467 c-86 -50 -52 -177 47 -177 88 0 134 91 79 155 -27 32 -90 42 -126 22z"/>
 <path d="M8071 5903 c-1 -12 4 -25 9 -28 12 -7 12 2 0 30 -8 19 -9 19 -9 -2z"/>
 <path d="M7463 5799 l-9 -84 57 -67 c166 -193 273 -396 334 -631 29 -113 31 -96 5 49 -59 330 -159 553 -353 788 l-24 29 -10 -84z"/>
 <path d="M4847 5790 c-29 -9 -92 -52 -115 -80 -27 -31 -61 -117 -76 -190 -19 -98 -30 -280 -22 -362 l7 -66 87 23 c48 13 99 26 114 29 22 5 30 16 47 69 12 34 46 107 77 161 72 129 96 190 96 251 1 79 -32 129 -105 160 -40 16 -67 18 -110 5z m89 -154 c25 -24 34 -43 34 -66 0 -23 -9 -41 -34 -66 -46 -46 -104 -48 -147 -5 -64 65 -20 171 71 171 34 0 48 -6 76 -34z"/>
 <path d="M4805 5625 c-50 -49 -15 -135 55 -135 37 0 90 47 90 80 0 12 -13 35 -29 51 -38 37 -82 39 -116 4z"/>
 <path d="M9077 5751 c-112 -201 -462 -545 -846 -833 -61 -45 -108 -84 -106 -87 10 -10 177 82 276 152 148 106 299 239 490 433 210 214 221 230 217 318 l-3 66 -28 -49z"/>
 <path d="M8097 5608 c-6 -176 -33 -322 -96 -518 -22 -68 -39 -126 -37 -128 5 -5 82 176 105 248 35 107 61 252 67 377 5 106 4 121 -14 146 l-19 28 -6 -153z"/>
 <path d="M7433 5625 l-12 -56 42 -37 c164 -145 283 -326 353 -537 31 -93 30 -63 -1 51 -59 214 -165 410 -314 581 -25 29 -48 53 -51 53 -3 0 -11 -25 -17 -55z"/>
 <path d="M4423 5620 c-61 -31 -98 -108 -97 -205 1 -86 42 -213 102 -313 l41 -69 59 20 60 21 5 206 c3 129 11 226 20 262 l14 57 -39 16 c-69 27 -118 29 -165 5z m104 -84 c34 -33 38 -66 11 -106 -26 -38 -60 -51 -101 -37 -77 26 -75 136 3 166 31 12 59 5 87 -23z"/>
 <path d="M4420 5520 c-11 -11 -20 -31 -20 -45 0 -55 77 -87 113 -47 21 23 22 76 1 96 -22 22 -70 20 -94 -4z"/>
 <path d="M9098 5571 c-13 -16 -52 -62 -88 -102 l-65 -72 55 32 c63 37 172 89 245 117 l50 19 -70 17 c-95 22 -100 22 -127 -11z"/>
 <path d="M9265 5531 c-160 -58 -352 -169 -450 -260 -38 -36 -99 -92 -135 -124 l-65 -58 235 115 c255 124 487 221 625 261 49 14 90 27 92 28 5 6 -204 57 -228 56 -13 0 -46 -9 -74 -18z"/>
 <path d="M7398 5498 c-12 -41 -12 -41 22 -67 65 -48 232 -216 282 -284 28 -37 53 -65 55 -63 6 6 -54 122 -104 199 -41 65 -217 257 -234 257 -5 0 -14 -19 -21 -42z"/>
 <path d="M9518 5455 c-104 -29 -243 -80 -398 -148 -181 -78 -578 -281 -649 -331 -36 -25 -62 -46 -59 -46 3 0 52 21 109 46 440 195 850 326 1162 371 97 14 117 19 117 34 0 9 -12 24 -26 34 -26 17 -148 66 -162 64 -4 0 -46 -11 -94 -24z"/>
 <path d="M4223 5370 c-58 -35 -89 -105 -79 -175 9 -55 69 -148 126 -194 l41 -33 55 22 c30 12 54 24 54 27 0 2 -17 35 -37 73 -28 51 -42 68 -53 63 -8 -3 -32 -8 -52 -11 -30 -3 -42 1 -62 22 -51 50 -23 139 43 139 31 0 33 2 27 30 -3 16 -6 36 -6 43 0 19 -19 17 -57 -6z"/>
 <path d="M9660 5324 c-260 -40 -612 -148 -970 -299 -163 -68 -462 -206 -457 -211 2 -2 54 16 116 41 406 160 879 263 1169 254 54 -2 66 1 88 22 22 20 118 133 163 192 16 20 22 20 -109 1z"/>
 <path d="M4222 5268 c-18 -18 -14 -66 8 -88 26 -26 76 -26 90 0 8 15 6 29 -7 57 -14 30 -24 39 -48 41 -17 2 -36 -3 -43 -10z"/>
 <path d="M5455 5179 c-162 -9 -403 -37 -425 -50 -13 -7 -13 -8 1 -9 10 0 57 -20 106 -45 84 -42 160 -105 189 -158 10 -18 14 -18 94 -1 82 16 223 16 263 -1 14 -6 21 2 39 41 24 56 29 140 9 197 l-13 37 -61 -1 c-34 -1 -125 -6 -202 -10z"/>
 <path d="M5756 5143 c19 -60 12 -139 -17 -196 -21 -39 -21 -42 -4 -52 39 -22 93 -77 105 -106 12 -28 16 -30 44 -24 17 4 62 10 101 14 l70 6 33 55 c18 30 37 71 42 90 23 83 1 169 -56 221 -28 26 -35 27 -181 34 l-152 7 15 -49z"/>
 <path d="M6090 5169 c0 -4 7 -12 16 -20 22 -18 44 -65 52 -111 7 -38 9 -40 77 -67 39 -15 90 -40 113 -55 l44 -27 40 42 c47 50 78 112 81 166 l2 38 -105 12 c-158 18 -320 29 -320 22z"/>
 <path d="M7942 5120 c0 -14 2 -19 5 -12 2 6 2 18 0 25 -3 6 -5 1 -5 -13z"/>
 <path d="M6532 5073 c-12 -60 -65 -150 -103 -177 l-22 -15 28 -33 c16 -18 36 -51 46 -72 15 -35 24 -41 86 -61 37 -12 87 -32 111 -44 24 -12 51 -19 61 -16 31 9 138 122 160 168 37 77 24 134 -47 211 -50 55 -69 63 -185 80 -59 9 -111 16 -115 16 -5 0 -13 -26 -20 -57z"/>
 <path d="M4925 5115 c-5 -2 -45 -11 -88 -20 l-79 -17 21 -22 c44 -47 65 -115 69 -226 3 -88 1 -115 -18 -169 -22 -67 -69 -147 -129 -220 l-36 -44 40 20 c100 50 176 68 290 68 95 0 116 -3 152 -22 l42 -23 29 38 c109 138 150 310 98 411 -45 86 -146 161 -278 205 -74 25 -92 28 -113 21z"/>
 <path d="M6840 5085 c0 -2 14 -18 31 -36 51 -55 71 -104 67 -166 l-3 -54 95 -40 c109 -45 122 -43 190 22 49 48 71 90 73 142 l2 40 -146 32 c-158 35 -309 64 -309 60z"/>
 <path d="M9324 5079 c-123 -9 -299 -40 -459 -80 -131 -32 -379 -108 -373 -114 1 -2 57 10 123 26 66 16 158 34 205 39 136 15 469 30 545 24 l70 -5 58 51 c31 28 57 56 57 61 0 10 -79 10 -226 -2z"/>
 <path d="M4590 5026 c-183 -63 -411 -165 -410 -185 1 -3 30 -40 66 -81 36 -41 124 -148 196 -237 72 -90 137 -163 144 -163 18 0 108 103 159 181 61 92 85 169 85 273 0 50 -7 104 -16 134 -17 53 -67 122 -87 121 -7 0 -68 -20 -137 -43z"/>
 <path d="M7316 4951 c-3 -20 -8 -47 -12 -61 -5 -22 0 -29 38 -49 72 -40 181 -118 218 -156 19 -19 38 -35 43 -35 39 0 237 150 237 179 0 13 -177 70 -370 120 l-148 39 -6 -37z"/>
 <path d="M6155 4938 c-4 -18 -22 -62 -41 -97 -19 -35 -34 -64 -32 -65 2 -1 27 -13 57 -26 103 -47 169 -157 158 -264 -3 -28 -7 -60 -9 -71 -2 -14 3 -21 18 -23 29 -4 74 51 125 154 68 136 63 209 -20 292 -46 46 -163 113 -223 127 -23 6 -27 3 -33 -27z"/>
 <path d="M9195 4953 c-22 -1 -78 -6 -124 -9 l-84 -6 29 -28 29 -27 146 6 c132 6 148 9 180 31 l34 25 -55 7 c-58 6 -89 7 -155 1z"/>
 <path d="M7841 4904 c0 -11 3 -14 6 -6 3 7 2 16 -1 19 -3 4 -6 -2 -5 -13z"/>
 <path d="M8865 4913 c-68 -8 -206 -36 -210 -43 -2 -4 62 -10 143 -14 81 -3 162 -9 181 -12 l33 -7 -18 28 c-16 25 -71 57 -91 54 -4 -1 -21 -4 -38 -6z"/>
 <path d="M5440 4899 c-96 -18 -89 -10 -83 -92 9 -112 -33 -230 -121 -342 -24 -31 -27 -37 -11 -30 11 4 58 22 105 39 77 28 96 30 210 31 112 0 130 -2 170 -24 25 -13 54 -32 66 -43 l21 -19 21 48 c34 81 47 173 33 237 -13 60 -53 122 -99 154 -62 45 -200 63 -312 41z"/>
 <path d="M9387 4878 c-31 -23 -123 -37 -245 -38 l-74 0 21 -32 c93 -143 212 -406 214 -476 l2 -43 -150 -4 c-133 -3 -403 -40 -420 -57 -6 -5 59 -90 135 -178 57 -65 81 -76 280 -125 129 -32 345 -45 442 -25 127 24 234 104 279 206 65 146 10 371 -138 569 -75 101 -129 148 -218 191 -81 40 -91 40 -128 12z m196 -524 c69 -35 109 -98 110 -173 1 -94 -58 -153 -158 -159 -48 -2 -68 2 -100 20 -47 27 -85 94 -85 150 0 68 45 148 95 168 34 14 104 11 138 -6z"/>
 <path d="M9455 4340 c-76 -31 -108 -145 -62 -224 54 -95 202 -102 259 -12 26 42 21 130 -11 174 -41 58 -128 87 -186 62z m105 -75 c40 -20 57 -73 36 -113 -47 -90 -194 -23 -155 70 11 28 50 57 77 58 7 0 26 -7 42 -15z"/>
 <path d="M9490 4247 c-52 -26 -31 -117 27 -117 45 0 63 17 63 59 0 55 -42 82 -90 58z"/>
 <path d="M8623 4863 c4 -3 10 -3 14 0 3 4 0 7 -7 7 -7 0 -10 -3 -7 -7z"/>
 <path d="M7255 4817 c-17 -18 -46 -45 -65 -60 -27 -21 -31 -29 -20 -34 8 -3 35 -26 59 -50 42 -42 44 -45 38 -91 -5 -41 -25 -111 -51 -172 -5 -12 7 -18 56 -28 35 -6 73 -15 85 -18 19 -5 36 7 92 63 73 73 131 155 131 185 0 39 -103 126 -250 211 l-45 26 -30 -32z"/>
 <path d="M8540 4834 c-25 -2 -85 -14 -135 -27 l-90 -22 205 -6 c211 -7 362 -25 497 -59 42 -11 77 -19 79 -17 1 1 -12 25 -29 54 -29 47 -34 52 -86 63 -56 12 -357 21 -441 14z"/>
 <path d="M7846 4800 c-24 -41 -107 -105 -183 -143 -35 -17 -63 -36 -63 -43 0 -7 30 -13 78 -17 116 -9 183 -34 202 -75 14 -32 17 -33 60 -27 74 10 135 34 164 64 27 28 28 33 21 90 -6 53 -11 65 -39 86 -24 18 -200 95 -218 95 -2 0 -12 -14 -22 -30z"/>
 <path d="M4068 4782 c-32 -20 -58 -39 -58 -42 0 -3 44 -53 98 -110 553 -590 904 -1147 1011 -1607 37 -160 52 -292 58 -513 8 -320 -20 -606 -94 -938 -20 -89 -34 -164 -31 -167 3 -3 37 -2 76 1 l72 7 10 36 c5 20 21 90 35 156 108 529 112 1051 10 1455 -89 355 -338 786 -774 1340 -118 150 -339 414 -349 417 -4 1 -33 -15 -64 -35z"/>
 <path d="M6875 4750 c-25 -33 -49 -60 -53 -60 -4 0 -22 -14 -40 -31 l-33 -30 26 -20 c44 -35 68 -96 68 -171 l0 -66 46 -7 c59 -9 133 -37 182 -70 21 -14 41 -25 44 -25 9 0 93 176 114 238 12 34 21 73 21 86 0 55 -104 131 -263 191 l-65 24 -47 -59z"/>
 <path d="M5905 4750 l-31 -9 0 -93 c-1 -88 -7 -118 -49 -219 -5 -14 4 -18 51 -24 84 -10 187 -48 245 -90 47 -34 52 -35 69 -20 31 28 81 133 87 183 11 96 -43 195 -134 249 -38 22 -60 27 -127 30 -45 1 -95 -2 -111 -7z"/>
 <path d="M8190 4745 l-35 -13 61 -1 c98 -1 322 -21 424 -37 195 -31 374 -90 498 -165 34 -21 62 -35 62 -32 0 3 -19 43 -41 88 l-42 83 -71 21 c-160 48 -378 71 -646 70 -121 0 -186 -5 -210 -14z"/>
 <path d="M9705 4750 c5 -8 26 -37 47 -63 137 -175 197 -397 149 -555 -37 -121 -148 -218 -291 -253 -124 -30 -364 -9 -554 47 -44 13 -81 22 -83 20 -10 -9 173 -165 265 -226 165 -110 308 -160 457 -160 205 0 395 112 457 270 32 80 32 236 -1 340 -45 146 -130 286 -251 414 -74 77 -214 197 -195 166z"/>
 <path d="M3860 4630 c-408 -325 -752 -844 -910 -1374 l-27 -90 61 -32 c34 -17 106 -57 161 -88 58 -32 112 -56 130 -56 28 0 26 -2 -44 -67 -40 -36 -126 -134 -191 -217 -65 -83 -139 -171 -164 -196 -25 -24 -46 -49 -46 -56 0 -18 286 -293 402 -385 513 -410 1078 -634 1666 -662 111 -5 97 -26 146 205 115 534 123 1012 26 1416 -88 363 -310 757 -689 1222 -90 111 -324 372 -383 428 l-35 33 -103 -81z m585 -1871 c74 -27 165 -112 202 -187 37 -76 40 -201 6 -274 -78 -169 -276 -247 -441 -173 -79 35 -152 112 -183 193 -34 87 -31 198 6 280 69 154 245 223 410 161z"/>
 <path d="M4237 2726 c-117 -43 -186 -142 -187 -267 -1 -218 200 -372 391 -300 257 97 257 421 -1 551 -55 28 -150 36 -203 16z m152 -62 c191 -56 238 -303 78 -411 -83 -56 -171 -56 -253 0 -136 91 -136 324 -1 394 70 36 103 39 176 17z"/>
 <path d="M4337 2564 c-12 -12 -8 -42 6 -47 21 -8 39 8 35 29 -3 19 -29 30 -41 18z"/>
 <path d="M4176 2418 c-33 -46 -4 -108 49 -108 55 0 87 77 47 113 -27 25 -78 22 -96 -5z"/>
 <path d="M6496 4663 c-8 -62 -61 -173 -114 -239 l-40 -51 26 -12 c39 -18 96 -66 111 -94 11 -21 23 -26 74 -32 67 -7 150 -35 177 -60 17 -16 20 -14 40 32 37 82 52 160 48 243 -2 66 -7 82 -31 113 -39 52 -158 117 -260 142 -23 6 -25 3 -31 -42z"/>
 <path d="M8166 4701 c-4 -7 1 -11 12 -11 124 0 349 -42 492 -92 152 -54 344 -163 410 -233 21 -23 31 -25 102 -25 43 0 78 4 78 9 0 5 -9 30 -20 55 -38 90 -236 191 -481 246 -180 40 -579 75 -593 51z"/>
 <path d="M8170 4661 c0 -4 24 -11 53 -14 222 -27 520 -155 674 -291 l48 -42 70 11 70 11 -62 48 c-169 132 -384 222 -618 260 -123 20 -235 28 -235 17z"/>
 <path d="M8220 4625 c0 -2 46 -29 103 -60 130 -73 288 -181 351 -241 l49 -46 81 12 c114 18 116 20 59 67 -136 114 -335 204 -555 252 -49 10 -88 18 -88 16z"/>
 <path d="M7575 4544 c-11 -20 -54 -73 -95 -116 l-75 -78 48 -30 c30 -19 53 -42 60 -60 11 -28 14 -30 47 -23 19 5 86 8 148 8 l113 0 14 47 c27 91 40 195 27 222 -14 31 -85 54 -192 62 l-75 6 -20 -38z"/>
 <path d="M8407 4432 c78 -77 157 -146 175 -154 20 -9 48 -13 71 -11 l39 5 -34 35 c-56 58 -207 162 -358 245 -22 12 19 -33 107 -120z"/>
 <path d="M8063 4510 c-30 -16 -78 -31 -112 -35 l-59 -7 -7 -46 c-4 -25 -15 -79 -26 -121 -10 -41 -17 -77 -14 -79 3 -3 15 4 28 15 42 39 145 100 191 113 l45 12 6 67 c3 36 8 76 11 89 5 27 3 26 -63 -8z"/>
 <path d="M5395 4470 c-58 -15 -151 -47 -163 -55 -2 -2 10 -24 27 -49 16 -26 35 -69 41 -97 12 -48 22 -60 36 -38 17 28 110 59 175 59 86 0 149 -31 226 -113 74 -79 89 -78 98 8 21 195 -86 306 -294 304 -42 0 -107 -8 -146 -19z"/>
 <path d="M4910 4463 c-82 -13 -310 -110 -310 -132 0 -4 23 -39 51 -76 98 -129 230 -318 301 -432 l71 -114 43 48 c52 59 58 70 78 158 20 86 61 174 110 239 34 44 37 52 30 90 -27 166 -174 252 -374 219z"/>
 <path d="M5837 4358 c14 -26 18 -56 18 -135 l-1 -103 62 0 c73 0 174 -29 227 -66 21 -14 41 -24 43 -21 12 11 19 106 12 143 -18 90 -126 167 -277 199 -104 22 -105 21 -84 -17z"/>
 <path d="M6255 4351 c-8 -16 -26 -43 -41 -60 -26 -31 -26 -33 -11 -69 25 -58 28 -93 13 -155 l-14 -58 35 -52 c19 -29 47 -58 61 -66 15 -7 35 -20 45 -29 16 -14 21 -12 58 24 61 59 101 149 102 226 0 35 -7 79 -15 99 -27 64 -101 124 -193 159 -22 8 -27 6 -40 -19z"/>
 <path d="M7162 4307 c-33 -61 -33 -62 -18 -106 20 -54 20 -139 2 -208 l-14 -52 97 1 c53 0 119 -2 148 -6 l52 -8 31 97 c40 126 49 205 26 240 -21 32 -75 59 -167 85 -114 31 -119 30 -157 -43z"/>
 <path d="M6837 4343 c-2 -4 -8 -24 -12 -43 -4 -19 -19 -60 -32 -91 l-25 -57 36 -52 c22 -32 40 -73 47 -109 l11 -58 87 -7 c47 -3 100 -9 117 -12 31 -6 32 -4 50 48 25 72 26 210 1 255 -23 43 -73 80 -138 102 -67 24 -135 35 -142 24z"/>
 <path d="M8014 4305 c-38 -19 -88 -51 -112 -72 l-43 -38 12 -64 c9 -48 9 -92 0 -176 l-11 -112 28 -64 c16 -35 34 -75 39 -89 10 -23 12 -20 32 45 53 167 141 535 141 586 0 26 -7 24 -86 -16z"/>
 <path d="M5436 4235 c-124 -47 -217 -180 -254 -365 -11 -52 -18 -96 -17 -98 2 -2 12 1 23 7 40 21 70 13 94 -24 13 -19 25 -35 28 -35 3 1 19 26 37 56 l32 56 -31 39 c-43 54 -50 129 -16 179 38 55 82 80 145 80 59 0 84 -9 124 -46 l25 -24 60 24 59 24 -50 49 c-85 82 -176 109 -259 78z"/>
 <path d="M7605 4225 c-5 -2 -26 -6 -46 -9 -35 -6 -37 -9 -43 -54 -3 -26 -20 -92 -38 -146 -25 -81 -29 -101 -17 -105 28 -9 68 -59 74 -93 l7 -36 86 36 c66 27 102 36 149 36 l61 1 6 40 c22 166 14 272 -24 310 -17 17 -35 20 -113 22 -50 1 -96 1 -102 -2z"/>
 <path d="M6517 4193 c4 -15 7 -56 6 -90 -2 -79 -35 -155 -98 -222 l-46 -49 17 -34 16 -35 98 5 c106 5 150 -4 213 -44 l38 -25 31 67 c32 69 47 169 34 237 -9 51 -61 122 -113 157 -47 31 -83 43 -161 55 l-43 7 8 -29z"/>
 <path d="M10785 4183 c4 -21 10 -96 14 -168 11 -184 48 -261 114 -236 40 15 57 49 57 111 0 46 -6 65 -38 115 -49 80 -143 215 -149 215 -3 0 -2 -17 2 -37z"/>
 <path d="M5420 4103 c-32 -12 -80 -68 -86 -101 -13 -68 36 -161 70 -132 13 10 13 15 -6 40 -62 84 36 184 133 136 34 -17 73 -13 66 7 -2 7 -18 22 -37 35 -32 21 -101 29 -140 15z"/>
 <path d="M5808 4070 c-130 -23 -229 -79 -323 -182 -59 -65 -153 -213 -142 -224 3 -4 20 -1 38 5 18 6 54 11 80 11 61 0 71 -16 77 -122 3 -43 6 -78 9 -78 2 0 34 15 71 34 175 87 416 135 587 115 43 -4 80 -7 81 -6 6 6 -17 146 -31 194 -32 107 -120 205 -216 238 -54 19 -168 27 -231 15z m127 -89 c176 -79 136 -331 -52 -331 -68 0 -110 18 -150 63 -66 75 -65 164 2 232 56 55 130 68 200 36z"/>
 <path d="M5807 3966 c-51 -19 -73 -40 -92 -91 -23 -58 -8 -111 45 -159 46 -42 73 -50 141 -44 61 6 115 52 125 106 14 74 -44 172 -114 192 -47 13 -58 12 -105 -4z m107 -60 c104 -43 74 -186 -39 -186 -113 0 -163 118 -75 178 38 25 67 28 114 8z"/>
 <path d="M5823 3890 c-12 -5 -29 -20 -39 -35 -14 -21 -15 -30 -4 -56 31 -73 141 -78 171 -7 16 40 -1 75 -46 94 -39 16 -51 16 -82 4z"/>
 <path d="M5426 4019 c-29 -23 -35 -63 -12 -94 13 -18 17 -16 74 36 l61 54 -27 12 c-40 18 -66 16 -96 -8z"/>
 <path d="M7120 3908 c0 -7 16 -23 36 -36 58 -37 78 -96 72 -208 l-5 -93 46 -6 c88 -12 142 -25 180 -45 l38 -19 12 57 c7 31 15 98 18 147 11 174 -29 207 -259 213 -111 3 -138 1 -138 -10z"/>
 <path d="M6856 3898 c-3 -7 -9 -35 -16 -62 -6 -26 -24 -74 -39 -105 l-28 -56 18 -40 c10 -22 19 -59 19 -82 0 -37 3 -43 20 -43 76 0 256 -59 275 -90 13 -21 27 -8 50 44 79 178 71 340 -18 395 -66 40 -272 69 -281 39z"/>
 <path d="M10987 3849 c-7 -50 -38 -86 -84 -95 -27 -5 -37 -2 -60 23 -15 16 -33 38 -40 48 -10 16 -12 -5 -12 -110 -1 -203 33 -252 167 -243 57 4 68 8 93 36 52 58 48 154 -12 297 -39 90 -45 95 -52 44z"/>
 <path d="M6294 3849 c19 -66 36 -159 36 -199 0 -44 2 -47 38 -60 20 -8 40 -16 45 -18 13 -6 8 103 -8 154 -15 51 -62 116 -97 135 -19 10 -20 9 -14 -12z"/>
 <path d="M7700 3821 c-30 -10 -79 -28 -107 -41 -53 -22 -53 -22 -53 -69 0 -25 -7 -85 -16 -133 -16 -86 -16 -86 7 -117 14 -19 29 -29 38 -26 42 16 202 36 247 31 l51 -6 27 80 c30 86 30 97 -6 190 -34 89 -53 110 -96 109 -20 0 -62 -8 -92 -18z"/>
 <path d="M5075 3735 c-25 -31 -35 -51 -30 -63 5 -14 12 -11 41 22 19 21 34 49 34 62 0 13 -2 24 -4 24 -2 0 -20 -20 -41 -45z"/>
 <path d="M5169 3708 c-29 -24 -61 -55 -71 -69 -20 -26 -20 -27 2 -68 l21 -42 33 29 c19 16 57 40 84 53 28 13 51 29 52 35 0 11 -57 104 -64 104 -3 0 -29 -19 -57 -42z"/>
 <path d="M6447 3743 c-16 -4 -17 -11 -11 -46 4 -23 8 -65 8 -94 1 -48 5 -56 47 -100 26 -26 54 -63 63 -80 10 -21 30 -39 53 -48 20 -9 51 -26 69 -40 l31 -24 36 77 c41 88 54 160 38 218 -15 56 -72 111 -135 129 -47 14 -159 18 -199 8z"/>
 <path d="M5380 3621 c-79 -25 -163 -67 -194 -96 -33 -30 -33 -57 0 -131 14 -33 30 -69 35 -82 l9 -23 43 34 c71 58 126 90 175 102 l47 12 3 66 c2 36 -1 81 -6 99 -10 41 -34 45 -112 19z"/>
 <path d="M5965 3575 c-147 -26 -307 -81 -384 -131 -23 -16 -22 -16 55 -55 91 -45 166 -98 190 -134 25 -39 10 -71 -72 -153 -41 -41 -74 -76 -74 -78 0 -2 7 -4 17 -4 9 0 97 -20 197 -44 356 -88 467 -85 567 14 116 116 121 346 10 472 -97 109 -290 153 -506 113z m305 -137 c24 -13 58 -40 74 -61 29 -36 31 -45 31 -117 0 -71 -3 -82 -30 -122 -55 -79 -155 -109 -233 -69 -118 61 -156 215 -80 324 47 66 156 86 238 45z"/>
 <path d="M6100 3421 c-154 -81 -85 -351 90 -351 104 0 188 118 166 234 -19 103 -161 168 -256 117z m117 -46 c12 -3 38 -24 57 -45 30 -33 36 -48 36 -84 0 -107 -123 -155 -200 -77 -54 53 -57 142 -8 188 34 31 58 35 115 18z"/>
 <path d="M6111 3334 c-41 -52 -21 -138 40 -170 43 -22 77 -17 110 15 44 44 41 92 -10 142 -32 32 -45 39 -79 39 -32 0 -45 -6 -61 -26z"/>
 <path d="M7204 3527 c-3 -12 -19 -48 -35 -79 l-28 -58 21 -47 c16 -37 19 -60 15 -112 -2 -36 -8 -73 -11 -82 -6 -14 2 -18 46 -23 55 -7 149 -45 179 -72 15 -14 19 -12 37 18 79 130 124 322 87 375 -33 47 -128 84 -252 97 -47 4 -53 3 -59 -17z"/>
 <path d="M6798 3463 c-6 -16 -25 -60 -43 -99 -29 -64 -31 -72 -18 -90 34 -43 63 -121 63 -166 l0 -48 59 -29 c32 -16 72 -41 88 -55 17 -14 36 -26 42 -26 5 0 33 27 61 61 188 225 130 417 -139 465 -101 18 -100 18 -113 -13z"/>
 <path d="M7725 3443 c-16 -2 -63 -10 -102 -19 l-73 -15 0 -44 c0 -47 -31 -159 -61 -217 -11 -21 -19 -39 -19 -40 0 -2 31 -1 69 3 37 3 92 3 122 -1 30 -4 55 -7 55 -6 4 4 79 176 107 246 34 84 34 85 13 92 -23 7 -63 7 -111 1z"/>
 <path d="M5416 3365 c-75 -39 -168 -116 -163 -134 3 -9 17 -59 33 -112 25 -90 30 -99 68 -123 70 -46 143 -33 257 44 73 51 179 156 179 180 0 23 -103 99 -185 136 -83 38 -129 40 -189 9z"/>
 <path d="M6592 3318 c30 -130 -33 -325 -127 -389 -36 -25 -31 -39 17 -39 14 0 57 -16 94 -35 l67 -35 40 42 c122 131 128 295 17 422 -27 30 -95 76 -114 76 -2 0 1 -19 6 -42z"/>
 <path d="M2782 3100 c-18 -11 -37 -31 -43 -44 -15 -32 -4 -90 24 -121 l22 -26 59 21 c65 22 196 48 266 52 l45 3 -72 43 c-127 75 -168 92 -219 92 -31 0 -61 -7 -82 -20z"/>
 <path d="M7123 3073 c-12 -21 -44 -63 -71 -94 l-51 -56 26 -52 c19 -38 26 -68 26 -111 l0 -58 66 -5 c84 -7 129 -21 177 -53 l38 -26 18 24 c33 40 87 159 94 205 20 134 -83 240 -251 259 -50 6 -50 5 -72 -33z"/>
 <path d="M7473 3083 c-12 -2 -26 -17 -33 -34 -11 -25 -10 -36 6 -72 41 -91 18 -210 -65 -331 -29 -42 -30 -46 -18 -81 l13 -38 71 104 c118 174 259 430 248 449 -6 10 -177 12 -222 3z"/>
 <path d="M6773 2962 c-17 -37 -51 -87 -75 -112 l-43 -45 23 -42 c13 -23 26 -67 29 -98 6 -52 8 -56 53 -85 26 -17 55 -39 65 -50 10 -11 23 -20 29 -20 22 0 118 94 146 144 67 116 22 252 -110 335 -78 50 -81 49 -117 -27z"/>
 <path d="M5560 2959 c-70 -38 -146 -48 -191 -25 -18 9 -34 14 -36 12 -3 -2 2 -51 11 -108 8 -56 18 -129 21 -160 l6 -58 73 0 c148 0 251 54 303 160 18 37 35 89 39 120 l6 56 -69 13 c-37 7 -77 14 -88 16 -11 2 -45 -10 -75 -26z"/>
 <path d="M7898 2960 c-114 -20 -250 -74 -261 -105 -9 -21 8 -19 78 10 66 28 257 69 375 81 75 8 75 8 30 15 -58 10 -162 9 -222 -1z"/>
 <path d="M5806 2893 c-17 -143 -106 -245 -246 -283 l-44 -12 52 -18 c133 -47 222 -147 222 -249 0 -21 3 -23 38 -17 207 37 320 164 310 349 -2 53 -10 86 -31 127 -45 91 -56 99 -164 126 -54 14 -105 27 -114 30 -14 4 -18 -6 -23 -53z"/>
 <path d="M3019 2925 c-230 -36 -352 -118 -380 -256 -15 -69 1 -130 42 -172 60 -59 123 -17 286 191 59 75 129 163 156 195 l49 57 -34 -1 c-18 -1 -72 -7 -119 -14z"/>
 <path d="M8010 2914 c-47 -7 -91 -13 -97 -14 -7 0 -13 -4 -13 -9 0 -20 35 -20 112 0 45 12 122 25 172 29 l91 7 -90 1 c-49 0 -128 -6 -175 -14z"/>
 <path d="M8056 2880 c-48 -10 -90 -21 -93 -24 -3 -2 6 -20 19 -40 l24 -35 45 26 c67 38 167 74 234 83 56 7 54 7 -40 8 -61 0 -134 -7 -189 -18z"/>
 <path d="M6350 2878 c-20 -6 -85 -8 -152 -5 l-117 5 24 -36 c33 -50 55 -116 55 -163 0 -47 9 -48 72 -8 73 47 142 130 162 197 8 24 6 25 -44 10z"/>
 <path d="M6391 2815 c-35 -68 -103 -138 -171 -176 l-39 -22 67 -32 c85 -41 156 -104 188 -166 13 -27 27 -49 30 -49 4 0 33 14 66 32 163 87 209 278 93 394 -40 39 -91 63 -170 78 -29 6 -32 3 -64 -59z"/>
 <path d="M7775 2866 c-16 -8 -43 -28 -59 -45 -24 -25 -30 -41 -33 -88 -5 -71 17 -113 76 -143 51 -26 93 -25 149 1 115 56 109 210 -11 268 -50 24 -80 26 -122 7z m116 -53 c43 -26 63 -75 49 -119 -33 -98 -177 -98 -210 0 -31 93 74 170 161 119z"/>
 <path d="M7774 2786 c-21 -18 -28 -32 -28 -61 0 -96 140 -118 172 -28 12 35 1 64 -34 92 -35 28 -76 27 -110 -3z"/>
 <path d="M8226 2859 c-41 -10 -167 -67 -199 -91 -14 -10 -17 -21 -12 -40 l7 -27 71 54 c40 29 101 67 137 84 66 32 65 36 -4 20z"/>
 <path d="M7640 2814 c-26 -11 -46 -33 -77 -85 -24 -39 -39 -69 -35 -67 44 19 125 74 129 87 2 9 11 31 19 49 15 36 13 37 -36 16z"/>
 <path d="M8166 2779 c-94 -63 -158 -117 -183 -153 -21 -32 -93 -76 -124 -76 -8 0 -58 -16 -112 -35 -90 -32 -234 -65 -349 -80 -34 -4 -51 -12 -62 -30 -16 -25 -16 -25 15 -25 102 0 375 57 501 106 60 23 75 34 133 103 68 81 142 149 213 196 23 15 42 29 42 31 0 10 -20 0 -74 -37z"/>
 <path d="M7565 2659 c-46 -29 -90 -65 -103 -86 -13 -19 -22 -36 -20 -38 2 -2 58 14 126 36 l122 40 -15 29 c-8 16 -15 38 -15 50 0 11 -3 20 -7 19 -5 0 -44 -23 -88 -50z"/>
 <path d="M7017 2637 c-15 -25 -54 -69 -87 -99 l-61 -54 22 -48 c12 -27 23 -74 26 -105 l5 -56 114 1 114 0 36 35 c20 19 65 67 100 108 51 59 64 81 64 107 0 74 -104 141 -235 151 l-72 6 -26 -46z"/>
 <path d="M6151 2553 c-33 -130 -137 -221 -291 -254 l-53 -11 59 -20 c140 -47 224 -142 224 -254 l0 -53 72 25 c142 48 241 128 272 221 20 59 20 96 0 163 -21 71 -103 154 -195 198 -37 18 -69 32 -72 32 -2 0 -10 -21 -16 -47z"/>
 <path d="M7615 2564 c-50 -18 -113 -38 -142 -45 -30 -7 -62 -22 -74 -36 l-22 -23 34 0 c68 0 351 69 363 88 2 4 -12 17 -33 28 l-37 20 -89 -32z"/>
 <path d="M5374 2488 c3 -57 2 -164 -2 -238 -5 -90 -4 -137 3 -142 5 -4 51 -8 101 -8 144 0 225 34 264 111 82 159 -23 319 -239 365 -36 7 -81 14 -100 14 l-33 0 6 -102z"/>
 <path d="M8458 2575 c-93 -35 -208 -145 -278 -265 -22 -38 -42 -75 -45 -82 -8 -21 527 -18 575 3 174 79 172 251 -5 330 -63 28 -192 36 -247 14z m151 -89 c87 -45 57 -196 -39 -196 -51 0 -83 15 -103 50 -57 95 42 197 142 146z"/>
 <path d="M8495 2455 c-35 -34 -33 -78 4 -116 72 -72 177 5 129 94 -28 53 -92 64 -133 22z"/>
 <path d="M6691 2538 c-17 -56 -100 -138 -171 -167 l-55 -23 3 -43 c2 -24 -3 -67 -12 -96 -8 -30 -14 -54 -13 -55 1 -1 36 -11 77 -23 41 -13 99 -35 127 -51 l53 -28 43 28 c158 100 198 240 108 382 -28 44 -113 117 -137 118 -6 0 -16 -19 -23 -42z"/>
 <path d="M7835 2458 c-106 -42 -254 -72 -510 -104 -31 -3 -47 -13 -69 -40 l-28 -35 64 6 c245 25 427 57 520 93 24 10 100 103 81 101 -4 -1 -30 -10 -58 -21z"/>
 <path d="M7740 2334 c-68 -22 -249 -51 -402 -65 -115 -10 -140 -15 -155 -32 -18 -20 -17 -20 142 -14 276 10 482 61 485 120 0 10 -17 8 -70 -9z"/>
 <path d="M5780 2252 c0 -10 -13 -39 -30 -65 -38 -60 -109 -98 -199 -105 l-65 -5 60 -28 c123 -58 187 -139 188 -238 l0 -53 64 5 c129 13 235 86 262 182 36 128 -29 236 -176 293 -83 32 -104 35 -104 14z"/>
 <path d="M7710 2253 c-97 -29 -223 -45 -392 -50 l-177 -6 -33 -29 -33 -29 170 5 c274 8 468 44 500 93 9 14 15 26 13 27 -2 2 -23 -3 -48 -11z"/>
 <path d="M6933 2250 c-12 -5 -30 -26 -39 -47 -22 -45 -78 -102 -135 -138 l-41 -27 27 -28 28 -29 61 41 c94 64 202 145 247 185 29 27 37 38 27 44 -17 11 -147 10 -175 -1z"/>
 <path d="M7655 2169 c-77 -24 -227 -40 -410 -46 -171 -5 -203 -9 -223 -24 -23 -17 -23 -17 34 -25 31 -3 138 -4 238 -2 223 7 312 24 365 74 20 18 34 33 31 33 -3 0 -18 -5 -35 -10z"/>
 <path d="M6394 2099 c-49 -53 -144 -108 -232 -136 l-83 -26 43 -24 c56 -31 123 -97 155 -150 14 -24 27 -43 30 -43 20 0 427 232 438 249 16 26 -139 118 -247 147 -71 18 -70 19 -104 -17z"/>
 <path d="M5360 2065 c0 -30 -32 -256 -50 -360 -11 -60 -20 -115 -20 -122 0 -18 86 -17 171 1 324 69 342 357 28 464 -80 28 -129 34 -129 17z"/>
 <path d="M7445 2058 c-33 -5 -156 -7 -273 -5 -144 2 -215 0 -221 -7 -7 -8 25 -11 107 -11 65 0 158 -6 207 -14 99 -15 168 -7 249 29 48 22 30 24 -69 8z"/>
 <path d="M6882 1980 c-24 -5 -57 -18 -74 -28 l-29 -19 153 -12 c202 -16 491 -48 579 -65 65 -12 68 -12 54 4 -23 26 -141 77 -231 101 -89 24 -374 36 -452 19z"/>
 <path d="M6052 1876 c-39 -66 -135 -118 -250 -135 l-47 -7 30 -16 c40 -22 111 -94 125 -129 l12 -28 65 24 c116 44 283 117 289 126 13 22 -99 149 -158 180 -21 10 -39 19 -42 19 -2 0 -13 -16 -24 -34z"/>
 <path d="M6731 1901 c-17 -11 13 -20 209 -62 146 -31 180 -35 196 -19 6 6 33 19 60 29 l49 19 -35 6 c-43 8 -389 36 -433 36 -18 0 -38 -4 -46 -9z"/>
 <path d="M6647 1852 l-28 -19 183 -52 c249 -70 249 -70 271 -30 10 17 16 33 15 34 -5 4 -351 78 -383 82 -18 2 -41 -4 -58 -15z"/>
 <path d="M7268 1863 c7 -3 16 -2 19 1 4 3 -2 6 -13 5 -11 0 -14 -3 -6 -6z"/>
 <path d="M7342 1850 c40 -12 94 -47 121 -79 21 -25 32 -29 105 -35 89 -8 93 -6 67 44 -17 33 -40 41 -185 65 -104 16 -154 19 -108 5z"/>
 <path d="M7199 1830 c-46 -14 -88 -52 -114 -104 -55 -109 -15 -218 100 -272 190 -90 376 91 282 273 -43 83 -172 132 -268 103z m131 -68 c146 -73 76 -304 -80 -262 -133 36 -161 191 -47 260 40 25 81 25 127 2z"/>
 <path d="M7212 1740 c-68 -42 -79 -130 -23 -184 57 -54 146 -51 181 7 38 62 15 148 -49 182 -40 20 -69 19 -109 -5z"/>
 <path d="M8443 1820 c-126 -25 -211 -110 -438 -435 -94 -134 -181 -246 -213 -272 -29 -24 -1 -27 136 -15 285 25 473 88 585 196 67 64 142 208 152 290 17 130 -29 214 -126 235 -27 6 -51 11 -52 10 -1 -1 -21 -5 -44 -9z m35 -166 c33 -21 54 -77 46 -119 -9 -50 -63 -95 -114 -95 -32 0 -48 7 -78 34 -33 31 -37 39 -37 85 0 41 5 55 29 80 42 44 101 50 154 15z"/>
 <path d="M8384 1653 c-38 -7 -69 -50 -69 -95 0 -33 6 -45 33 -69 43 -39 89 -39 124 -1 33 36 40 68 23 109 -10 22 -26 39 -49 48 -20 8 -37 14 -38 14 -2 -1 -13 -4 -24 -6z"/>
 <path d="M6566 1805 c-11 -8 -18 -17 -15 -19 6 -6 250 -89 377 -129 l112 -35 0 38 c0 35 -2 38 -36 44 -19 4 -121 32 -225 62 -105 29 -191 54 -192 54 -1 0 -11 -7 -21 -15z"/>
 <path d="M6494 1765 c-17 -12 -15 -14 21 -30 149 -63 545 -210 545 -201 0 2 -5 17 -11 34 -10 29 -19 33 -212 96 -111 37 -230 77 -264 90 -52 21 -64 22 -79 11z"/>
 <path d="M6423 1728 c-13 -6 -23 -14 -23 -18 0 -4 66 -39 148 -78 337 -162 707 -282 872 -282 50 0 120 29 120 49 0 5 -33 12 -72 16 -82 8 -83 8 -156 -1 -68 -9 -132 10 -190 53 -27 21 -89 50 -160 75 -144 49 -351 128 -442 168 -37 16 -70 30 -72 29 -2 0 -13 -5 -25 -11z"/>
 <path d="M5710 1712 c0 -19 -74 -84 -122 -108 -62 -32 -163 -54 -245 -54 -68 0 -62 6 -78 -70 -2 -8 -7 -26 -10 -39 l-7 -24 73 7 c100 10 287 48 443 91 72 19 132 37 134 39 7 8 -27 63 -60 95 -48 48 -128 87 -128 63z"/>
 <path d="M7503 1703 c3 -10 8 -30 11 -44 6 -28 38 -39 119 -39 35 0 37 2 37 33 0 17 -4 37 -8 43 -4 6 -42 15 -85 19 -74 6 -79 6 -74 -12z"/>
 <path d="M6335 1683 l-27 -15 63 -36 c401 -224 915 -382 1029 -317 l25 14 -33 1 c-152 1 -531 128 -868 290 -154 74 -162 77 -189 63z"/>
 <path d="M6268 1652 c-28 -6 -22 -14 35 -51 247 -163 513 -282 725 -326 89 -18 193 -21 230 -8 19 7 2 14 -87 31 -235 46 -547 169 -826 325 -33 18 -68 31 -77 29z"/>
 <path d="M6196 1621 c-17 -6 -14 -11 20 -38 74 -58 241 -163 340 -212 145 -73 267 -111 388 -121 55 -4 102 -6 104 -5 1 1 -37 12 -85 24 -192 49 -440 162 -644 296 -55 36 -101 65 -102 64 -1 0 -10 -4 -21 -8z"/>
 <path d="M7513 1591 c-2 -9 -9 -27 -14 -40 -5 -13 -7 -26 -4 -29 3 -4 37 -8 75 -10 l69 -4 12 41 c7 23 10 43 8 45 -2 2 -35 6 -72 9 -58 4 -69 2 -74 -12z"/>
 <path d="M6100 1580 c-18 -12 -10 -19 121 -110 76 -52 88 -58 104 -46 17 12 14 16 -31 46 -27 19 -75 53 -106 77 -61 46 -65 48 -88 33z"/>
 <path d="M6018 1548 c-16 -5 -28 -13 -28 -17 0 -8 217 -157 243 -167 12 -4 55 32 46 39 -2 2 -26 19 -54 37 -27 19 -75 53 -106 77 -59 46 -60 46 -101 31z"/>
 <path d="M5910 1509 l-25 -10 30 -25 c26 -22 240 -169 272 -188 7 -4 18 4 27 22 l15 29 -135 91 c-75 51 -141 92 -147 91 -7 0 -23 -5 -37 -10z"/>
 <path d="M7446 1471 l-27 -28 32 -7 c17 -3 53 -6 80 -6 40 0 51 4 68 27 12 14 20 27 19 28 -2 1 -35 5 -74 8 -69 5 -73 4 -98 -22z"/>
 <path d="M5807 1478 c-15 -5 -25 -14 -21 -19 14 -23 331 -250 399 -286 19 -10 20 -8 17 35 -4 47 -4 47 -87 100 -47 29 -124 82 -172 118 -93 68 -93 68 -136 52z"/>
 <path d="M5710 1451 c-23 -6 -18 -12 75 -90 204 -170 474 -331 652 -390 65 -22 95 -25 127 -12 27 10 -118 61 -176 61 -55 0 -92 19 -148 76 -25 25 -106 85 -180 134 -74 49 -175 120 -223 159 -48 39 -91 71 -95 70 -4 -1 -18 -4 -32 -8z"/>
 <path d="M5633 1433 c-13 -2 -23 -8 -23 -13 0 -12 154 -145 256 -220 191 -142 450 -270 549 -270 59 0 51 9 -35 40 -176 61 -444 230 -652 412 -36 32 -68 57 -70 57 -1 -1 -13 -4 -25 -6z"/>
 <path d="M5541 1411 c-23 -6 -19 -11 60 -85 171 -159 367 -288 523 -344 139 -50 145 -44 21 20 -181 94 -354 217 -507 357 -36 33 -68 61 -70 60 -1 -1 -14 -4 -27 -8z"/>
 <path d="M6335 1403 c-124 -65 -153 -211 -61 -311 66 -74 200 -69 273 10 43 46 65 134 47 183 -4 9 -24 25 -45 36 l-39 20 20 -38 c36 -67 17 -145 -45 -183 -59 -36 -158 -20 -186 31 -37 70 -29 136 21 184 27 26 39 30 86 30 29 0 54 1 54 2 0 2 -88 53 -92 53 -2 -1 -16 -8 -33 -17z"/>
 <path d="M5426 1390 l-40 -5 73 -67 c41 -38 76 -68 80 -68 3 0 12 9 19 21 12 18 8 25 -40 72 -49 48 -56 52 -92 47z"/>
 <path d="M5286 1373 l-28 -5 33 -29 c89 -76 220 -181 223 -178 2 2 6 18 9 34 5 28 -1 37 -78 108 -85 78 -89 80 -159 70z"/>
 <path d="M5035 1303 c82 -76 294 -223 321 -223 4 0 -47 40 -112 89 -66 49 -146 112 -179 140 -81 68 -105 64 -30 -6z"/>
 <path d="M5090 1318 c64 -59 269 -211 339 -252 58 -33 138 -66 164 -66 6 0 -18 17 -55 39 -81 47 -224 153 -338 249 -70 60 -90 72 -120 72 l-35 -1 45 -41z"/>
 <path d="M5165 1349 c20 -32 357 -289 379 -289 13 0 -33 75 -53 87 -11 7 -74 58 -140 113 -103 86 -124 100 -156 100 -23 0 -34 -4 -30 -11z"/>
 <path d="M6334 1316 c-30 -30 -34 -40 -34 -84 0 -43 5 -55 31 -81 85 -86 235 18 188 130 -16 40 -63 69 -112 69 -31 0 -46 -7 -73 -34z"/>
 <path d="M6620 1271 c0 -12 17 -23 58 -35 31 -10 63 -21 70 -23 6 -3 12 1 12 8 0 8 -31 26 -70 40 -62 24 -70 25 -70 10z"/>
 <path d="M5570 1248 c-60 -65 -23 -195 61 -213 62 -14 160 41 145 80 -5 15 -10 13 -37 -9 -66 -56 -159 -20 -159 60 0 24 7 46 20 59 18 19 19 24 6 34 -11 10 -18 8 -36 -11z"/>
 <path d="M5616 1211 c-58 -64 39 -148 105 -91 l24 20 -30 26 c-74 62 -81 65 -99 45z"/>
 <path d="M6620 1212 c0 -11 -2 -26 -5 -34 -4 -9 16 -21 60 -37 37 -13 68 -21 70 -19 3 3 7 18 11 34 5 29 4 30 -53 48 -32 10 -64 21 -70 23 -8 3 -13 -3 -13 -15z"/>
 <path d="M6587 1116 c-16 -23 -16 -23 51 -43 66 -20 67 -20 81 -1 16 24 9 31 -53 52 -63 20 -61 20 -79 -8z"/>
 <path d="M5792 1079 c-16 -25 -17 -23 28 -53 39 -25 73 -32 104 -20 14 5 -20 32 -109 86 -6 4 -16 -2 -23 -13z"/>
 <path d="M6516 1051 l-38 -26 68 -21 c70 -22 77 -21 118 11 24 18 25 18 -49 42 l-60 19 -39 -25z"/>
 <path d="M5738 1033 c-10 -2 -18 -8 -18 -12 0 -13 49 -31 83 -31 l32 0 -37 25 c-20 14 -38 24 -40 24 -2 -1 -11 -3 -20 -6z"/>
 <path d="M5650 1000 c20 -13 63 -13 55 0 -3 6 -21 10 -38 10 -24 0 -28 -3 -17 -10z"/>
 <path d="M6227 667 c26 -80 63 -250 63 -294 0 -15 9 -46 19 -68 60 -131 213 -150 272 -34 24 47 24 83 0 134 -37 81 -127 170 -266 264 -119 81 -115 82 -88 -2z m236 -228 c26 -12 47 -47 47 -78 0 -51 -80 -79 -128 -45 -82 57 -10 165 81 123z"/>
 <path d="M6393 420 c-17 -7 -23 -18 -23 -39 0 -35 31 -61 72 -61 53 0 63 81 12 100 -30 12 -32 12 -61 0z"/>
 </g>

</svg>