<!DOCTYPE svg PUBLIC "-//W3C//DTD SVG 20010904//EN" "http://www.w3.org/TR/2001/REC-SVG-20010904/DTD/svg10.dtd">
<svg version="1.0" xmlns="http://www.w3.org/2000/svg" width="500px" height="281px" viewBox="0 0 5000 2810" preserveAspectRatio="xMidYMid meet">
<g id="layer101" fill="#000000" stroke="none">
 <path d="M0 6715 l0 -6715 5000 0 5000 0 0 6715 0 6715 -5000 0 -5000 0 0 -6715z"/>
 </g>
<g id="layer101" fill="#010101" stroke="none">
 <path d="M1760 1669 c-399 -363 -726 -663 -727 -667 -2 -4 161 -125 361 -269 l364 -263 742 0 742 0 364 262 c200 145 364 265 364 268 0 3 -60 59 -133 125 -72 66 -401 364 -729 662 -329 299 -604 543 -610 542 -7 0 -339 -297 -738 -660z m653 459 c-30 -79 -62 -160 -71 -180 -14 -30 -294 -333 -690 -748 l-63 -65 123 190 c67 105 184 287 260 405 l138 215 177 162 c98 90 179 163 180 163 0 0 -24 -64 -54 -142z m322 -40 l150 -136 190 -293 c104 -162 222 -346 263 -409 l73 -115 -63 65 c-175 179 -674 715 -685 734 -6 12 -29 69 -51 127 -22 57 -50 129 -62 159 l-22 55 29 -26 c15 -14 96 -86 178 -161z m-163 -1 l66 -174 -66 -386 c-36 -213 -69 -387 -72 -387 -3 0 -36 174 -72 387 l-66 386 66 174 c37 95 69 173 72 173 3 0 35 -78 72 -173z m-157 -661 c37 -213 63 -391 60 -395 -8 -7 -451 -8 -459 0 -3 3 67 188 157 412 109 274 164 401 169 389 4 -9 37 -192 73 -406z m-458 332 c-30 -46 -145 -225 -256 -398 -112 -173 -210 -321 -219 -327 -18 -15 -227 -18 -236 -5 -4 7 749 809 762 811 1 1 -22 -36 -51 -81z m322 30 c-11 -29 -84 -210 -162 -401 -119 -297 -144 -350 -165 -358 -13 -5 -114 -8 -224 -7 l-200 3 383 407 c211 224 385 408 386 408 2 0 -7 -24 -18 -52z m551 -353 c88 -219 157 -401 154 -404 -8 -8 -451 -8 -459 0 -5 6 118 759 131 798 2 8 6 12 9 9 2 -2 76 -183 165 -403z m270 -15 l373 -395 -201 -3 c-110 -1 -211 2 -224 7 -21 8 -46 64 -173 378 -82 202 -155 384 -163 403 -12 31 -12 33 1 20 8 -8 182 -193 387 -410z m388 -99 c149 -157 269 -288 266 -293 -9 -13 -218 -10 -235 5 -9 6 -52 69 -97 139 -45 70 -160 249 -257 398 l-174 270 113 -117 c62 -65 235 -246 384 -402z m-1749 282 c-22 -25 -422 -446 -509 -536 -30 -32 -46 -40 -92 -46 l-56 -7 46 42 c26 23 178 161 337 307 160 146 292 266 294 266 3 1 -6 -11 -20 -26z m2135 -581 c-16 -2 -39 1 -51 5 -16 6 -427 427 -548 563 -16 18 118 -101 300 -266 306 -278 327 -299 299 -302z m-2714 -42 c24 -7 65 -40 135 -111 l100 -101 -130 94 c-71 52 -141 102 -155 111 -22 15 -22 17 -5 17 11 0 36 -4 55 -10z m306 -4 c15 -11 25 -47 45 -156 l26 -142 -149 149 c-119 119 -145 149 -130 155 33 13 187 9 208 -6z m474 4 l36 -10 42 -146 c24 -81 42 -148 40 -150 -5 -5 -518 300 -518 308 0 12 359 10 400 -2z m498 4 c13 -4 22 -10 20 -14 -4 -11 -359 -303 -362 -299 -7 8 -87 291 -84 295 2 2 15 7 28 13 27 11 361 15 398 5z m542 -10 c8 -8 0 -50 -30 -155 -23 -79 -43 -146 -45 -148 -2 -2 -88 66 -190 150 -165 137 -184 155 -163 161 39 11 416 4 428 -8z m480 9 c0 -8 -513 -313 -517 -309 -2 1 16 68 39 149 l43 146 35 10 c42 11 400 14 400 4z m278 -1 c20 -6 8 -22 -127 -156 l-149 -149 19 104 c11 57 22 123 26 146 4 28 12 44 27 51 23 12 168 14 204 4z m162 4 c0 -3 -48 -39 -107 -82 -60 -42 -124 -89 -143 -102 -19 -14 8 18 60 71 88 91 122 114 173 116 9 1 17 -1 17 -3z m-1994 -263 l152 -89 -74 -61 -74 -61 -166 64 c-92 35 -168 65 -169 66 -1 2 -12 62 -24 133 -12 72 -25 140 -28 153 -6 24 -19 31 383 -205z m789 75 c129 -107 180 -155 171 -160 -22 -12 -353 -128 -366 -128 -13 0 -344 116 -366 128 -10 6 38 50 172 160 102 84 190 152 195 152 5 0 92 -69 194 -152z m758 -3 c-15 -83 -27 -151 -28 -152 -1 -1 -76 -31 -168 -67 l-167 -64 -74 61 -74 61 267 157 c146 86 267 156 268 155 1 -1 -10 -69 -24 -151z m-1103 -270 l65 -24 -234 0 c-129 -1 -232 1 -230 3 2 2 34 29 72 59 l67 55 98 -35 c53 -19 126 -46 162 -58z m638 30 l62 -50 -115 -3 c-63 -1 -167 -1 -230 0 l-115 3 158 56 c86 31 162 53 168 50 6 -3 39 -28 72 -56z m-1218 -24 c71 -28 73 -30 37 -30 -24 -1 -51 8 -77 25 -35 23 -47 34 -37 34 1 0 36 -13 77 -29z m1540 25 c0 -2 -18 -15 -40 -30 -26 -17 -52 -26 -77 -25 -37 0 -36 1 32 29 71 29 85 33 85 26z"/>
 </g>

</svg>