<?xml version="1.0" standalone="yes"?>
<svg width="1924" height="1924">
<path style="stroke:#000000; fill:none;" d="M670 244C675.203 237.545 682.171 236.895 690 238.904C693.054 239.687 698.667 241.707 697.503 245.911C695.805 252.045 686.912 252.112 682 251.985C673.632 251.77 673.293 246.239 666.892 243.603C658.687 240.224 644.393 243.849 639.51 233.906C634.103 222.897 637.364 210.013 647.004 202.761C651.205 199.6 656.986 198.452 660.671 194.772C666.844 188.609 667.423 180.025 676 175.754C682.084 172.724 689.797 175.926 694.891 173.073C698.529 171.036 699.119 166.251 701.26 163.015C704.695 157.823 710.57 153.307 716 150.353C727.656 144.012 735.649 151.158 747 150.863C752.653 150.717 757.59 147.105 763 145.805C770.244 144.064 774.211 147.097 781 147.093C787.142 147.088 791.498 143.594 798 145.068C804.344 146.506 823.905 149.897 822.573 158.946C822.077 162.315 818.315 163.861 817.228 167.054C813.251 178.739 811.714 187.759 803.522 198C791.19 213.414 772.747 222.646 760.669 238C756.414 243.409 751.724 251.539 749.448 258C747.392 263.833 748.84 268.093 741.999 271.196C715.661 283.143 681.631 266.192 662.051 295C659.355 298.966 657.412 303.375 656.159 308C651.975 323.446 655.529 339.344 653.826 355C652.95 363.059 649.003 371.811 653.318 379.83C657.974 388.482 678.636 402.294 688 404.58C692.679 405.723 697.381 403.258 702 404.703C707.945 406.562 713.326 412.75 720 411.052C729.92 408.527 733.642 398.525 739 391C744.791 395.734 751.164 401.857 758.957 396.852C761.834 395.004 763.336 391.641 766.209 389.911C769.458 387.955 773.374 389.757 776.196 386.682C779.445 383.142 777.68 377.929 780.6 374.545C786.224 368.026 794.982 367.234 800.786 361.556C804.159 358.257 804.564 352.629 808.278 349.858C816.787 343.51 837.801 352.216 838 340M823 162C832.363 169.112 845.376 166.734 853.815 175.185C857.84 179.216 858.657 184.453 861.702 188.999C866.094 195.556 872.395 198.931 874.61 207C876.062 212.287 873.256 218.394 875.042 223C877.237 228.657 882.976 232.061 884.906 238C887.275 245.292 883.627 251.167 884.768 258C885.46 262.135 888.296 264.485 887.22 269C884.893 278.763 873.853 283.29 870.951 292.015C869.483 296.431 872.788 301.484 872.867 306C872.961 311.442 869.802 317.499 866.954 321.996C856.758 338.093 828.247 318.46 826 344M693 175C695.561 187.552 713.57 184.344 721.711 191.418C727.806 196.715 741.557 212.073 742.852 220.039C743.939 226.723 744.014 236.281 743.258 243C742.929 245.932 739.458 248.673 739.921 251.543C740.391 254.466 745.77 256.621 748 258M735 205C738.422 199.872 741.163 193.871 748 193.109C754.24 192.414 766.632 195.929 761.957 204.895C758.72 211.103 748.293 211.951 743 216M713 225C703.117 225 693.547 225.808 685.059 219.756C679.944 216.109 679.393 207.216 686.044 204.603C702.475 198.148 709.272 217.125 716.303 225.985C723.074 234.517 731.55 242.911 739 251M1175 349C1205.7 375.838 1182.27 406.697 1172.59 437C1168.36 450.28 1170.48 472.822 1151 473.502C1141.37 473.837 1130.96 471.932 1127.1 461.999C1124.75 455.928 1125.11 448.784 1121.16 443.289C1116.29 436.527 1109.83 439.359 1104.09 435.397C1099.44 432.183 1099.25 426.175 1095.44 422.434C1092.08 419.13 1079.77 416.624 1075 416L1064 400C1060.45 401.126 1056.76 402.514 1053.02 401.343C1048.12 399.81 1048.35 395.636 1045.44 392.302C1039.7 385.749 1024.6 377.187 1037.3 366.589C1043.22 361.649 1053.95 364.828 1061 362.185C1082.73 354.034 1103.1 341.029 1126 336.449C1134.75 334.7 1142.26 335.527 1151 336.188C1153.5 336.377 1156.32 335.986 1156.61 332.938C1157.22 326.422 1148.93 317.06 1145.49 312C1128.08 286.357 1100.63 278.004 1071 275.17C1063.85 274.486 1056.18 273.408 1049 274.174C1046 274.493 1042.05 276.339 1039.32 274.306C1032.37 269.135 1045.32 247.771 1049.71 243.318C1052.55 240.442 1068.84 235.955 1073 236.151C1076.27 236.306 1079.65 239.14 1082.9 238.264C1089.18 236.566 1090.38 225.518 1094.39 221.225C1099.87 215.375 1120.24 211.101 1128 212.218C1132.55 212.872 1135.64 216.523 1140 217.556C1145.59 218.881 1150.8 216.502 1155.89 220.513C1162.24 225.512 1161.55 236.142 1165.42 243C1178.75 266.597 1186.82 286.492 1180.65 314C1179.59 318.734 1179.48 324.734 1176.98 328.961C1173.95 334.074 1168.16 338.748 1164 343C1180.69 358.474 1197.71 325.081 1215.89 326.647C1219.86 326.988 1220.27 332.335 1222.43 334.866C1226.45 339.581 1235.49 340.385 1240.98 337.911C1247.36 335.034 1247.02 327.905 1240.98 324.92C1234.35 321.639 1226.77 323.098 1220 325M1163 229C1173.77 223.351 1183.91 220.01 1194.58 228.29C1199.31 231.965 1202.63 237.8 1208 240.544C1214.96 244.096 1222.89 242.667 1228.62 249.108C1233 254.028 1232.09 263.693 1236.32 267.258C1239.29 269.764 1244.43 269.504 1248 270.764C1253.53 272.712 1259.52 277.05 1263.53 281.3C1272.46 290.76 1267.92 299.398 1270.92 310C1273.18 318.016 1279.95 323.345 1282.86 331C1284.52 335.36 1282.03 339.77 1283.72 344C1285.9 349.453 1289.8 352.687 1290.02 359C1290.23 364.825 1290.71 377.796 1287.82 382.812C1285.65 386.582 1280.33 387.13 1278.6 391.188C1274.8 400.142 1280.44 410.697 1275.56 420C1272.69 425.471 1267.29 427.716 1263.5 432.209C1257.82 438.937 1256.46 445.959 1248 450.556C1243.78 452.847 1239.03 450.924 1235.21 453.042C1229.76 456.06 1227.37 463.829 1221.99 467.532C1215.9 471.711 1209.56 470.193 1203.17 472.588C1198.47 474.347 1195.62 478.363 1190 477.44C1181.87 476.105 1175.49 470.784 1168 468M650 366C641.906 365.927 639.993 362.64 634.791 357.093C631.416 353.495 626.41 351.352 623.873 346.985C621.85 343.503 621.908 330.348 622.152 326C622.42 321.227 628.29 317.655 627.124 313.001C625.154 305.135 615.064 303.649 612.653 295.999C610.422 288.923 611.049 269.642 614.318 263.004C616.138 259.308 619.978 257.397 622.012 253.911C627.151 245.1 624.899 237.153 638 236M699 245C709.042 247.073 719.523 249.088 729 253.09C734.918 255.59 738.522 260.381 745 257M745 247L746 256M737 255L738 254M750 257C755.349 258.115 761.409 256.002 767 256C781.431 255.994 795.269 256.849 809 261.691C820.171 265.631 831.032 269.937 841 276.449C849.521 282.016 859.636 290.933 870 292M748 267C763.116 289.901 729.493 312.496 725.619 333C723.079 346.438 724.929 362.476 730.338 375C732.797 380.694 738.046 384.816 739 391M1038 274C1034.18 276.781 1028.75 277.105 1025.42 280.419C1018.36 287.437 1010.95 311.111 1011.2 321C1011.3 325.017 1014.36 328.052 1014.6 332C1015.01 338.678 1009.26 345.526 1012.67 352C1017.62 361.43 1028.05 361.589 1036 367M1171 304C1167.36 303.54 1163.61 303.373 1160 302.787C1155.37 302.035 1146.65 295.928 1151.75 290.603C1157.95 284.118 1170.22 293.468 1171.56 300C1174.72 315.447 1154.03 332.27 1164 343M1199 312C1196.79 307.314 1192.61 302.513 1194.74 297.015C1196.99 291.21 1208.93 286.775 1212.96 293.314C1215.61 297.615 1210.58 303.104 1207.91 305.999C1200 314.573 1189.57 320.489 1180 327M1247 327L1281 342M847 340L839 343M846 342C851.183 351.712 850.324 367.867 853.774 379C857.587 391.305 867.671 401.997 870.942 414C872.895 421.165 871.682 432.162 862 430.965C848.22 429.261 845.802 418.081 836.896 410.279C831.817 405.83 824.7 407.436 819 404.428C808.592 398.936 800.47 383.406 788 383M837 346L839 356M832 349L831 373L816 369.782L805 377.436L793 383M797 367L807 375M807 373C807.652 369.089 809.136 368.3 813 368M831 373L834 376M1372 386C1370.88 443.261 1325.79 482.89 1308.97 535C1303.56 551.775 1288.59 570.946 1299 589M1373 390C1394.57 414.817 1398.85 450.888 1392.33 482C1390.14 492.497 1381.39 504.508 1382 515L1383 514M1074 417L1071 428L1064 423C1062.02 429.704 1062.76 437.108 1061.1 444C1057.99 456.894 1051.01 469.831 1044.1 481C1038.38 490.237 1028.56 497.909 1034.59 509.762C1039.04 518.512 1056.36 505.419 1062 505.033C1069.6 504.514 1077.21 508.775 1084 511.492C1095.62 516.141 1107.37 520.092 1119 524.619C1133.9 530.421 1147.91 539.337 1162 546.949C1185.79 559.8 1208.38 571.999 1230 588.503C1241.51 597.292 1250.91 608.911 1262.13 617.549C1267.5 621.679 1269.81 615.118 1274.83 615.188C1277.5 615.225 1280.65 618.67 1283 619.88C1291.35 624.173 1305.86 629.003 1307.67 640.042C1308.25 643.583 1304.56 645.977 1302.52 648.286C1298.22 653.143 1294.5 659.267 1291.49 665C1284.67 678.015 1286.78 695.658 1284 710C1293.94 707.295 1299.32 711.147 1309 711.276C1311.92 711.314 1319.23 709.818 1317.78 715.058C1315.15 724.555 1303.15 724.863 1299.89 733.015C1294.82 745.733 1302.39 757.008 1292 768C1285.76 763.815 1280.65 767.254 1275.21 764.84C1270.81 762.884 1270.83 757.117 1265 757.048C1259.1 756.978 1253.77 764.553 1248 762.059C1240.66 758.888 1230.05 753.631 1229.05 745C1228.26 738.24 1233.55 738.518 1235.67 733.701C1237.77 728.938 1231.57 721.073 1226.98 720.319C1222.3 719.55 1217.73 723.513 1213 724C1212.95 734.929 1215.57 743.956 1228 744M1071 428L1070 449M1074 428C1082.62 435.218 1078.42 449.137 1078 459L1101 456C1098.81 461.637 1096.69 466.32 1091 469M378 429C375.628 435.992 374.964 444.362 371.688 450.961L360.802 472.957C359.639 475.278 356.221 477.662 355.917 480.209C355.42 484.362 360.574 487.345 360.366 492C359.345 514.834 355.501 540.475 360.899 563C372.644 612.008 407.936 652.464 426.551 699C433.625 716.685 440.383 736.023 442.714 755C444.145 766.652 440.091 780.34 446 791C455.769 779.199 469.693 761.741 471.946 746C472.806 739.992 467.464 735.046 467.471 729C467.479 722.13 472.039 716.489 472.461 710.058C472.735 705.897 467.761 706.232 466.929 702.772C466.043 699.09 475.808 678.919 463.222 684.277C461.851 684.861 461.018 685.981 460 687M869 433C872.496 439.273 882.218 458.361 889.09 460.522C892.636 461.638 899.213 458.182 903 457.59C913.314 455.979 924.543 455.806 935 455.089C963.287 453.152 995.274 458.444 1023 463.625C1031.66 465.243 1042.1 463.782 1050 468M1571 443C1559.27 455.674 1561.88 477.087 1558.49 493C1552.96 518.935 1542.48 544.752 1526.41 566C1506.69 592.072 1481.8 621.244 1453.83 638.714C1441.21 646.596 1427.63 652.838 1414 658.719C1407.53 661.51 1397.35 664.469 1392.49 669.753C1386.08 676.739 1407.12 683.533 1411 686L1409 703M1388 820C1391.21 820.988 1391.9 821.757 1391 825C1382.72 817.723 1373.92 824.563 1367.04 830.844C1365.23 832.494 1360.6 838.399 1357.64 836.744C1354.36 834.908 1359.15 825.311 1360.18 823C1366.51 808.85 1368.97 798.531 1369 783C1369.01 778.982 1368.94 772.714 1373.98 771.461C1379.77 770.023 1386.13 784.416 1389.21 787.999C1393.63 793.142 1399.46 797.05 1402.93 803C1409.88 814.904 1409.13 829.764 1410.71 843C1411.79 851.974 1409.28 867.134 1419 871.513C1423.53 873.552 1427.39 871.485 1432 871.093C1436.82 870.682 1447.83 871.815 1451.36 868.106C1453.7 865.639 1451.98 859.884 1451.24 857C1448.67 846.979 1445.01 836.867 1441.91 827C1434.19 802.444 1423.35 778.648 1413.17 755C1409.25 745.897 1407.17 734.635 1402.68 726.089C1398.18 717.53 1392.87 706.886 1386.96 699C1382 692.362 1374.1 685.084 1372 677C1366.76 676.146 1365.44 671.909 1362.37 668C1356.51 660.513 1350.76 652.861 1344.83 645.455C1335.9 634.307 1315.31 621.484 1311.77 607C1310.72 602.675 1316.36 598.765 1317.9 595C1323.95 580.116 1336.08 566.293 1346.33 554C1367.78 528.253 1395.52 505.78 1427 493.464C1450.67 484.201 1475.95 479.654 1500 471.645C1521.92 464.345 1543.76 451.283 1566 446M371 454C377.233 462.665 371.475 476.043 371.039 486C370.008 509.547 370.468 533.788 375.285 557C379.954 579.492 391.1 595.471 404.287 613.259C417.377 630.916 431.224 655.476 439.547 676C447.034 694.46 451.7 714.501 455.6 734C457.44 743.194 457.504 756.366 463 764M884 456C868.396 469.868 838.982 462.279 820 467.434C812.451 469.484 804.814 474.89 797 477.485C759.371 489.981 719.943 504.419 685 522.809C620.748 556.626 568.351 607.795 523.486 664C518.317 670.476 511.074 676.032 506.299 682.545C498.12 693.698 488.976 706.423 482.83 719C478.94 726.963 478.519 735.792 473 743M1126 461C1122.48 463.044 1111.83 466.513 1119 471M891 464C892.095 470.143 902.107 481.075 899.068 486.866C895.938 492.832 881.846 491.511 876 492.714C853.166 497.417 830.534 501.267 808 507.49C777.214 515.992 746.962 531.885 719 547.099C693.285 561.092 669.401 574.514 646.83 593.573C634.25 604.195 614.045 615.63 607 631C610.326 631.072 610.887 630.162 610 627M1098 465L1114 467M1116 470C1107.67 476.846 1096.58 486.006 1087 490.682C1076.86 495.632 1068.55 492.611 1061 503M360 477L361 487M1102 481C1112.59 489.549 1128.6 492.384 1141 497.862C1157.36 505.088 1172.84 514.079 1189 521.637C1202.13 527.779 1215.37 532.681 1228 540.865C1244.54 551.581 1262.27 563.953 1276.83 577.25C1286.41 586 1297.56 600.773 1310 605M355 482C323.351 524.915 321.113 575.765 330.739 627C332.721 637.548 336.117 647.644 338.844 658C340.11 662.808 339.825 668.538 342.403 672.896C346.655 680.083 358.182 690.096 365 695C375.044 679.846 359.202 656.254 353.922 641C343.85 611.9 338.186 582.809 341.17 552C342.523 538.021 344.472 523.797 347.095 510C348.419 503.036 352.195 496.182 351 489M541 546L559 540C563.025 553.615 555.622 563.969 544.999 572.101C538.255 577.265 528.303 580.9 523.041 570.701C517.917 560.771 536.902 552.823 539.548 545.961C542.108 539.323 537.493 530.567 541.028 524.17C545.832 515.476 557.597 509.795 565.545 504.614C580.913 494.597 596.506 485.452 615 482M614 484C614.731 496.733 607.581 505.004 602.464 516C599.188 523.042 597.916 530.864 594.508 538C591.335 544.644 586.372 550.39 583.146 557C578.229 567.072 575.584 576.326 566 583.582C557.531 589.993 550.204 585.639 541.17 587.407C536.885 588.245 530.247 594.134 527.184 597.185C507.329 616.968 502.92 653.645 505 680M830 538C830 542.33 831.693 561.423 824.891 561.248C819.98 561.122 814.622 554.079 810 552C809.246 554.203 808.813 558.668 806.486 559.825C802.894 561.611 794.065 553.82 794.631 550.144C795.044 547.462 798.953 546.578 801 545.667C808.159 542.485 815.373 540.319 823 538.478C838.126 534.827 852.37 528.299 868 525.311C879.989 523.019 896.906 523.455 907.852 518.143C918.262 513.09 900.423 495.502 909.188 490.028C912.207 488.142 916.629 489.255 920 488.625C934.379 485.938 942.794 486.277 957 488.56C979.893 492.239 1008.76 487.654 1030 499M901 487L906 493M1524 491C1507.82 499.283 1496.71 508.219 1483.91 520.907C1481.58 523.218 1468.19 530.204 1474.6 534.781C1477.67 536.969 1483 533.762 1486 532.732C1495.8 529.364 1505.62 527.446 1516 527M476 504C468.494 510.237 468.167 520.129 464.808 529C454.364 556.576 450.699 587.784 449 617M1467 504C1470.85 510.932 1471.99 519.162 1472 527M568 506L565 532L600 522M404 612C411.207 600.394 409.986 584.851 413.799 572C419.069 554.241 433.927 535.748 448.001 523.92C454.488 518.467 460.123 510.805 469 510M1036 513L1020 530C1012 523.068 999.177 523.284 989 521.87C962.642 518.207 938.162 515.566 912 521L912 518M1381 514L1380 518M913 522C913.253 552.17 926.962 583.7 922.839 614C921.017 627.398 911.757 640.388 907.1 653C901.377 668.503 898.219 687.484 898.974 704C899.871 723.629 915.052 740.454 917 760C938.769 755.495 956.676 750.013 979 756.158C986.913 758.337 994.672 762.07 1001 767.326C1003.64 769.522 1007.05 774.504 1011 773.093C1022.57 768.968 1033.95 752.452 1040.88 743C1061.12 715.395 1071.67 687.013 1101 667C1095.13 660.392 1088.7 663.731 1081 665.195C1065.94 668.059 1051.19 674.952 1036 677L1026 659M521 569C509.998 553.705 525.58 531.734 539 524M1028 526C1034.85 532.331 1044.42 532.867 1053 535.865C1073.27 542.949 1094.19 548.964 1114 557.333C1119.55 559.68 1140 565.109 1140.67 572.133C1141.08 576.386 1135.53 581.097 1133 584L1124.95 574.631L1113 591L1107.61 583.346L1095 604C1087.19 596.217 1092.35 582.485 1085.49 575.323C1081.35 571.005 1076.9 576.044 1075.29 580.001C1071.09 590.289 1074.35 602.992 1069 613C1066.83 611.107 1064.02 607.04 1061.03 606.63C1053.9 605.654 1050.16 625.633 1047 630C1042.77 625.304 1039.2 612.422 1033.8 609.921C1028.84 607.619 1023.21 620.756 1021.35 624C1014.24 636.37 1005.09 652.219 1008.78 667C1010.37 673.373 1010.6 689.841 1019 684L1013 680M1020 531C1007.35 551.582 995.006 570.897 987.333 594C985.599 599.222 984.017 617.419 978.697 619.644C975.446 621.003 971.323 617.684 969 615.826C962.889 610.936 955.62 595.851 948.946 593.723C939.203 590.617 931.931 604.583 925 609M565 532L559 540M1473 535L1449 564C1457.49 571.847 1467.5 568.087 1478 568M834 536C843.366 544.188 848.054 551.842 853 563C855.988 561.615 859.551 557.389 862.867 557.346C868.098 557.278 867.904 571.395 869 575C871.583 573.664 873.508 570.168 876.151 569.345C884.141 566.856 878.124 588.215 883.279 589.079C893.522 590.796 891.472 565.355 901.96 566.466C913.238 567.66 902.854 591.95 905.313 597.966C907.651 603.685 915.409 600.588 920 603M1428 539C1428 551.193 1422.6 572.907 1431 582L1449 565M1379 546L1381 585L1379 622L1419 593.968L1458 594M752 574C761.863 565.111 783.952 581.415 794 586.976C823.413 603.256 849.447 630.304 867.947 658C874.504 667.817 884.614 678.354 884 691C874.243 687.198 865.912 679.894 856 675.93C831.449 666.11 805.271 666.462 780 673L779 664C780.943 663.454 782.373 663.024 783.97 661.682C797.749 650.105 767.42 645.871 768.742 635.015C770.06 624.195 787.994 633.359 788.963 624.935C789.72 618.35 771.191 616.095 767.518 611.671C764.139 607.599 768.363 604.244 766.677 600.184C764.37 594.626 756.065 593.516 753.377 587.928C751.561 584.154 755.921 582.563 755.419 578.985C754.893 575.238 750.23 571.877 748 569C757.694 560.619 768.436 559.407 779.961 555.642C784.783 554.067 787.678 550.736 793 550M560 558L583 556M753 566L755 568L751 572M778 663C775.512 650.932 761.625 647.026 753.039 641.272C750.15 639.336 748.324 635.827 744.961 634.618C740.393 632.976 735.738 635.673 731 633.427C724.585 630.387 720.147 623.136 713 621.444C705.237 619.606 684.749 625.211 681.461 612.79C679.787 606.462 697.726 595.451 702 592C707.551 587.517 712.899 584.56 719 581.046C728.358 575.657 736.518 571.033 747 568M756 568L757 569M1447 568L1453 569M522 571C518.584 576.924 518.477 583.847 515.218 590C500.437 617.912 478.438 661.497 498 693M1143 571C1147.76 572.547 1152.81 573.7 1156.87 576.849C1164.73 582.951 1160.44 591.918 1156.56 599C1150.2 610.629 1136.01 630.096 1140 644C1157.15 638.916 1171.27 629.342 1183.17 616.001C1185.74 613.124 1191.59 609.746 1192.65 605.95C1193.65 602.4 1188.35 599.654 1186 598.075C1177.85 592.595 1173.3 586.457 1163 586M869 575C866.498 589.765 861.434 604.766 862.104 620C862.517 629.378 868.545 640.236 862 648M1425 578L1422 591M537 580L539 587M1431 582L1426 584M1133 584C1133.26 596.542 1135.59 609.496 1133.2 622C1131.52 630.771 1124.59 641.202 1127 650L1139 643M1355 590C1355.19 599.081 1358.67 607.856 1358.96 617C1359.08 620.872 1356.93 626.328 1359.03 629.836C1362.57 635.739 1378.13 627.34 1379 622M1113 591C1115.54 612.517 1111.56 644.406 1098 662M192 594C202.955 609.563 227.507 620.547 243 631.714C247.475 634.94 254.837 637.825 258.012 642.39C265.2 652.722 263.54 670.126 266.003 682C267.692 690.141 275.577 703.606 271 711L272 712L273 712L275 710M946 595C962.126 645.994 954.994 699.766 955 752M194 600C194.726 616.868 202.896 634.97 207.971 651C222.581 697.143 240.566 745.699 289 765.397C298.526 769.271 308.445 771.979 318 775.8C323.264 777.906 328.363 780.842 334 779L323.209 764.911L314.415 748.727L299 739.674L274 712M904 600L903 604L908 604M1194 606C1202.37 609.833 1204.75 618.108 1211.3 622.558C1227.52 633.566 1245.34 624.461 1260 616M680 613C676.019 618.965 663.327 626.597 662.269 633.001C661.109 640.026 667.281 647.737 669.564 654C673.784 665.578 673.512 676.948 674.039 689C674.222 693.178 675.879 697.859 674.107 701.902C671.672 707.454 656.581 703.15 651 704.785C634.181 709.711 614.846 729.441 617.185 748C619.471 766.139 637.692 772.182 653 775.87C660 777.556 672.521 779.714 673.573 769C674.229 762.323 665.6 761.62 661 760.738C650.738 758.772 629.829 751.872 633.43 738C638.869 717.047 662.707 719.157 677 727.464C680.869 729.713 685.511 736.125 689.981 736.454C701.956 737.334 689.553 718.507 686.999 716.015C683.227 712.336 678.39 709.958 675 706M450 616L457 615C457.289 620.278 454.653 625.925 455.35 630.999C455.876 634.836 459.957 636.539 460.806 640.17C462.311 646.601 457.432 660.668 454 666M1437 618C1425.77 625.83 1413.13 625.576 1400 627.282C1392.87 628.208 1385.09 629.382 1379 625M1084 621L1072 665M981 622C984.191 634.23 999.041 650.871 1007 661M1177 625L1208 623M612 632L636 628.021L660 631M1223 629L1220.31 640.957L1230.64 652.015L1228 667C1210.94 666.648 1210.54 671.484 1200.9 683.853C1198.42 687.027 1193.54 687.637 1192.62 692.019C1191.6 696.833 1196.11 700.667 1197.25 705C1198.06 708.1 1196.98 710.905 1198 714C1200.14 710.783 1200.6 708.287 1196 709L1196 709M1047 630L1052 671M607 631C595.117 637.885 579.105 636.693 568.148 646.419C564.937 649.27 565.056 653.668 562.566 656.985C556.282 665.358 547.19 672.664 542.434 682.093C539.035 688.833 542.088 696.96 541.606 704C541.343 707.861 538.544 710.991 539.258 715C539.825 718.185 542.251 720.779 542.64 724C543.151 728.238 537.954 731.734 539.371 735.791C542.911 745.926 564.458 749.226 571.985 756.171C585.013 768.189 591.874 785.971 604.17 798.961C615.219 810.632 631.588 817.013 645 825.118C657.052 832.401 658.162 846.109 667.773 854.048C670.946 856.669 675.239 855.896 679 857C669.118 865.825 645.184 858.835 632 861.669C609.015 866.61 585.511 884.307 567 898C556.555 905.727 547.664 910.765 542 923C551.484 926.992 570.232 917.897 579 912.997C602.808 899.692 624.547 886.346 652 880.207C659.758 878.472 677.875 872.286 675 862M1357 631C1356.8 638.277 1350.4 640.403 1345 644M259 632L260 640L265 635L261 633M1151 643C1158.91 651.699 1175.52 635.96 1182 633.604C1187.95 631.441 1191.63 636.422 1197 637.323C1205.25 638.71 1210.46 633.767 1219 639M1362 633L1358 635M453 634L454 639L458 638M265 635L279 650M1456 639C1462.45 642.443 1469.95 640.373 1477 641.289C1489.81 642.953 1502.29 645.609 1514 651.259C1525.91 657.008 1537.41 663.434 1549 669.792C1559.47 675.536 1568.86 683.969 1578 691.586C1580.57 693.726 1586.29 697.071 1585.82 701.024C1585.03 707.816 1565.52 717.552 1560 721.135C1532.64 738.899 1492.73 752 1460 752C1450.11 752 1439.7 751.603 1430 749.547C1423.31 748.13 1417.72 743.909 1411 747M782 645C799.121 641.821 820.765 639.37 838 642.209C845.116 643.381 850.821 650.856 858 650L859 649L860 648L861 647M279 646C285.984 642.872 293.918 655.142 297.941 659.714C302.724 665.151 301.856 675.069 303.63 682C306.799 694.383 312.809 707.889 319 719C324.806 712.572 320.071 698.612 315 692M685 644C693.501 663.759 693.425 692.787 683 712M1310 644C1315.22 653.763 1327.05 656.769 1333.44 664.279C1337.52 669.078 1337.94 682.871 1337.62 689C1337.19 697.54 1332.12 700.964 1328.44 708C1325.49 713.646 1326.58 720.171 1324.24 726C1319 739.027 1309.17 746.62 1317 761C1327.72 754.901 1341.26 755.244 1348.85 743.985C1352.44 738.654 1350.11 732.871 1350.74 727C1351.15 723.231 1353.34 719.822 1353.49 716C1353.66 711.693 1350.68 708.189 1350.25 704C1349.18 693.59 1352.67 677.815 1337 677M867 646L865 653M1150 646C1146.8 657.221 1140.39 667.749 1138.38 679C1137.35 684.752 1140.79 689.428 1140.91 695C1141.01 700.385 1137.71 704.793 1137.13 710C1136.44 716.25 1139.26 722.77 1139.89 729C1140.7 737.004 1147.79 758.043 1159.86 753.509C1164.02 751.945 1164.04 746.356 1162.46 743C1156.35 729.999 1152.51 719.089 1163.28 706.019C1175.02 691.769 1182.75 711.828 1196 707M731 647L707 700C715.487 704.523 721.434 696.207 729 692.823C745.076 685.631 763.543 681.641 779 672M1126 649C1121.23 653.668 1106.9 659.772 1104.6 665.144C1097.45 681.924 1110.42 704.406 1103 722C1112.08 726.844 1127.82 723.79 1138 724M632 651C645.468 662.659 656.414 685.489 659 703M864 652L857 652M320 696C327.031 700.977 332.014 703.213 339 697C326.315 691.292 323.488 674.796 314.008 665C312.101 663.029 306.104 656.845 310.593 654.213C313.182 652.695 316.934 655.552 319 656.845C325.547 660.943 332.702 666.58 340 669M587 653L618 687.826L640 708M1229 668C1236.22 665.486 1239.11 657.326 1247 655.344C1261.01 651.824 1274.4 669.519 1287 674M301 661L308 659M458 661C469.969 661.393 462.906 675.651 461 683M1102 661L1105 663M754 662L733 690M1411 686C1417.58 687.132 1426.18 693.201 1432.87 691.781C1437.05 690.895 1441.13 684.386 1445 682.065C1458.81 673.77 1470.94 665.995 1487 663M1102 668L1112 671.168L1140 669M1372 677L1390 671M1105 673L1109 672M342 676C342.743 680.509 344.497 680.504 348 678L348 678M569 677C578.525 689.501 592.358 701.912 606 709.769C612.804 713.687 620.559 715.454 627 720M1036 677L1019 684M1538 706C1523.6 706 1509.34 705.667 1495 705.039C1490.86 704.858 1482.69 706.315 1479.79 702.441C1476.93 698.62 1483.53 695.632 1486 694.295C1495.4 689.206 1505.56 682.501 1516 680M343 683C343.004 688.315 345.711 695.877 339 697M370 683C380.999 686.096 379.457 698.2 386.815 704.338C391.87 708.555 395.859 696.209 400.801 696.921C408.322 698.006 406.4 720.588 408 726C410.704 724.678 414.673 721.247 417.853 722.371C422.546 724.031 427.025 742.231 428.761 747C434.725 763.39 434.63 780.915 437.275 798C438.829 808.046 442.983 815.602 443 826C443.009 831.501 448.614 848.423 440.985 850.654C437.198 851.762 434.538 844.584 431.945 842.699C423.904 836.851 413.242 834.999 405 829.271C395.234 822.483 385.463 815.555 376 808.346C362.564 798.109 346.936 790.71 334 780M1011 687C1007.4 693.758 997.48 698.057 992.174 704C979.938 717.703 972.344 734.848 970 753M1106 695L1138 690M884 691L897 706M1435 692C1446.36 699.063 1463.61 703.792 1477 703M1434 693C1434 702.318 1433.29 709.765 1440 717M333 696L333 701M1230 721C1236.37 714.957 1241.2 715.306 1249 713C1243.28 693.474 1272.94 697.099 1270 714C1275.58 715.444 1279.82 716.658 1283 711M1224 719C1223.25 716.354 1221.85 713.719 1221.43 711C1218.77 693.628 1240.55 703.137 1248 705M706 702C705.043 707.155 703.23 716.062 706.179 720.813C708.138 723.969 712.982 723.59 716 725.344C725.649 730.953 734.517 737.627 745 741.796C750.748 744.083 757.118 748.313 763 749.687C779.49 753.539 797.291 750.318 814 754.015C835.099 758.684 857.758 772.122 872.941 787.17C878.979 793.154 876.427 801.327 877.17 809C878.37 821.406 881.365 831.573 886.281 843C887.817 846.57 892.531 854.804 885.965 856.335C881.882 857.287 875.35 852.54 872 850.547C861.919 844.55 851.829 840.449 841 836.129C818.038 826.968 786.157 829.128 763 836.042C745.842 841.166 735.002 859.925 718.911 865.299C707.821 869.002 690.174 858.506 679 857M716 702C736.766 708.876 762.527 701.489 784 702.015C814.151 702.753 849.838 711.033 872.961 731.439C884.013 741.193 892.38 754.552 900 767C889.771 774.304 883.809 779.307 877 790M1106 703L1137 707M1474 704C1474.18 711.757 1477.73 719.341 1484 724M720 705C724.71 710.394 733.206 711.867 740 713.338C755.893 716.78 771.941 719.049 788 721.427C822.441 726.528 864.392 745.826 885 775M1199 713L1200 712M1201 711L1212 723M553 712C571.307 722.796 594.209 737.614 616 739M1198 714C1199.49 718.679 1205.83 724.77 1204.37 729.895C1203.27 733.784 1197.19 735.498 1194 737.213C1182.98 743.141 1178.05 748.649 1165 747M1249 714C1257.59 721.659 1259.91 718.199 1269 715M325 716L319 722L325 717M1281 717C1280.96 728.797 1273.39 725.17 1268.03 732.56C1264.63 737.238 1263.05 750.119 1263 756M319 719C310.69 728.923 323.482 745.132 333 750M327 720L328 726L321 723M495 720L497 724C509.039 720.474 525.847 732.472 538 735M1260 721C1260.07 727.253 1262.38 729.114 1267 733M318 722L319 722M544 725C553.779 722.243 562.804 741.315 571 746.974C580.718 753.685 591.512 758.484 601 765.594C616.034 776.86 636.315 800.583 658 795.847C663.299 794.69 670.121 787.937 675 785L671 782L669 787M1104 723C1100.54 729.488 1098.96 738.377 1104 744C1102.05 744.763 1089.64 748.901 1096.41 752.686C1099.23 754.261 1104.12 752.247 1107 751.665C1113.75 750.303 1122.17 748.562 1129 748.472C1132.4 748.428 1134.67 751.263 1137.91 751.539C1140.95 751.796 1143.1 748.911 1145 747M1352 723C1359.95 729.49 1358.7 733.481 1361.95 742C1365.54 751.408 1370.91 758.894 1373 769M497 724C482.248 749.842 478.585 779.653 495.046 806C498.337 811.267 503.637 814.482 507.699 819.039C514.568 826.745 520.199 837.242 523.484 847C529.694 865.448 531.5 884.369 536.964 903C538.685 908.865 538.367 914.95 542 920M706 724C704.311 730.508 703.337 734.831 696 736M497 726C508.168 739.627 503.618 755.575 508.174 771C511.299 781.581 520.595 790.044 527.471 798.17C530.072 801.243 534.418 816.121 538.896 815.369C543.491 814.598 542.893 797.785 542.985 794C543.344 779.356 537.403 764.205 529.456 752C524.565 744.488 515.792 736.91 514 728M1282 727C1294.21 733.684 1286.21 739.656 1283.54 748.17C1282.32 752.094 1283.64 758.54 1283 763M1244 759C1247.62 755.61 1250.47 752.312 1250.01 747C1249.73 743.808 1247.08 740.343 1248.33 737.13C1249.76 733.481 1255.82 730.951 1259 729M1207 732L1212 732M1237 733L1247 737M689 737L674 766M1098 740L1098 745M1115 740L1104 744M1351 742L1360 743M1266 743L1282 748M1350 744C1354.99 750.063 1351.32 754.281 1349.43 761C1346.23 772.35 1348.71 786.324 1344 797C1337.12 795.722 1334.22 802.393 1332.06 808C1328.08 818.363 1316.17 843.726 1327 852C1334.42 840.94 1347.02 810.847 1337 800M1357 744L1354 747M1133 748L1143 746M1251 747L1263 746M327 747L317 748M760 749C751.817 754.909 738.621 754.556 729 757.742C710.053 764.017 691.811 772.814 676 785M557 750C560.573 764.136 572.229 775.062 575.192 790C579.828 813.368 564.872 836.956 555.515 857C552.465 863.532 550.999 870.968 547 877C552.441 879.298 555.954 875.261 560 871.714C568.128 864.589 575.956 855.884 586 851.352C608.208 841.332 641.088 843.281 663 852M1094 752C1073.97 768.089 1049.61 775.27 1030.83 793.715C1027.49 796.995 1020.74 801.15 1018.74 805.299C1017.17 808.571 1017.55 813.419 1016.79 817C1015.29 824.039 1011.63 832.14 1015 839C1030.45 831.362 1043.68 820.248 1060 814.228C1089.68 803.283 1133.08 806.097 1161 820.677C1170.15 825.456 1178 831.906 1184.34 840C1186.72 843.038 1190.75 852.498 1194.39 853.654C1197.26 854.567 1200.19 850.727 1202 849.086C1206.51 845.001 1211.07 842.007 1217 840.478C1234.82 835.89 1252.52 839.292 1269 847C1271.11 840.048 1275.03 832.723 1276.68 826C1278.58 818.285 1276.82 808.588 1280.41 801.213C1282.41 797.12 1288.63 795.592 1291.96 792.671C1295.16 789.859 1296.22 785.646 1299.3 782.904C1305.17 777.681 1312.69 777.418 1320 776L1310.17 811L1309 852C1299.15 849.662 1288.43 859.203 1298.06 867.771C1301.37 870.716 1319.67 872.998 1319.66 865.966C1319.65 861.134 1312.68 856.552 1310 853M1150 752L1142 753M349 834C341.765 838.229 332.024 831.987 325 829C307.523 821.569 288.717 814.115 270 809.374C217.017 795.955 163.237 799.267 112 818.053C90.8725 825.8 68.8435 834.999 46 835C36.1605 835.001 26.7902 834.75 19 828C29.5435 819.497 46.7778 817.827 59 811.136C100.188 788.586 141.48 763.023 189 756.286C206.077 753.864 223.81 753.506 241 755.17C249.753 756.017 261.975 761.26 270 757M1161 755C1171.6 762.483 1185.87 764.115 1198 767.498C1202.51 768.757 1206.16 772.915 1211 773.012C1216.04 773.112 1220.91 770.256 1226 770.13C1234.12 769.93 1248.94 777.687 1250 764M464 764C471.149 766.7 476.914 759.031 483 756M1326 757L1330 761L1332 758M901 767L916 761M1317 761C1309.3 767.659 1292.68 771.403 1296 782M1330 762L1321 775M1292 768L1295 773M929 771L932 771M956 771L961 774M1250 771C1249.79 776.253 1249.98 798.08 1254.32 800.972C1260.12 804.847 1272.48 801.28 1279 801M1245 774L1249 775M1213 775C1215.59 781.108 1228.64 799.947 1235.05 801.797C1239.77 803.158 1246.07 801.014 1251 801M1011 776L1018 802M671 777L671 782M673 782L674 783M906 791L903 799M360 792L358 794M445 792L443 812M654 830C665.203 820.794 680.646 816.518 694 811.388C736.591 795.027 784.544 788.741 829 801.427C839.143 804.322 849.951 808.098 859 813.595C865.401 817.484 870.866 823.594 878 826M977 795L986 795M656 797L633 818M923 797L930 798M1344 797L1343 804M1231 802C1225.31 811.75 1216.21 807.797 1208 810.968C1198.24 814.738 1186.95 825.052 1178 831M1212 808C1215.8 803.746 1218.8 804.686 1223 808M470 817C470.061 838.418 488.792 848.814 503.91 860.026C512.12 866.113 519.541 873.223 528 879M538 817C539.352 834.131 534.147 863.318 546 877M631 817L601 822.159L566 841M960 817L963 822M1003 817L1003 819M912 822L913 827M307 825C300.901 828.517 293.585 828.354 287 830.81C277.099 834.502 268.039 839.966 259 845.29C252.875 848.898 245.749 850.988 243 858L232 858M1391 826L1370.9 842.88L1352.85 852.51L1349 867C1346.07 864.922 1338.9 863.426 1341.33 869.835C1342.43 872.718 1345.67 874.179 1346.92 877.015C1348.13 879.769 1346.29 882.251 1346.86 885C1347.69 888.976 1352.27 892.269 1355 895L1340 906L1329.91 880.001L1318 871M3 827L19 828M1276 829C1287.69 850.909 1269.41 877.852 1288 898L1290 895L1297 902C1302.68 898.499 1306.32 902.483 1311 906.12C1321.61 914.369 1326 927.089 1337 935L1340 906M1337 834L1351 850L1357 838M351 835L347 837M354 836L349 838M354 840L358 838L352 839M1012 838C1006.54 845.985 1001.4 852.762 998.054 862C997.114 864.599 994.773 869.764 997.607 871.968C1001.58 875.06 1011.01 867.445 1015 865.95C1031.89 859.625 1049.07 855.876 1067 854.17C1094.71 851.533 1123.09 856.366 1149 866.05C1158.44 869.579 1168.82 877.914 1178.17 880.123C1187.68 882.373 1199.15 877.934 1209 878.734C1226.82 880.182 1241.91 888.477 1257 897.601C1262.08 900.67 1270.13 904.608 1272.97 910.04C1275.87 915.572 1272.25 924.072 1272 930C1257.83 925.467 1246.82 914.973 1233 908.862C1213.6 900.286 1189.74 901.021 1176 883C1172.56 885.002 1166.16 889.074 1167.45 893.96C1168.57 898.207 1174.62 900.295 1177.46 903.268C1187.31 913.605 1195.69 927.371 1209 933.838C1217.87 938.148 1233.5 927.657 1243 926.3C1248.02 925.583 1252.39 926.459 1257 924M361 839L357 841M846 839C832.834 848.58 809.421 848.832 794 855.427C757.136 871.193 725.219 898.29 703.547 932C700.298 937.054 691.743 949.713 693.082 955.892C693.914 959.73 702.238 965.062 705.039 968C712.565 975.895 719.119 984.489 722.594 995C726.868 1007.93 719.815 1016.05 718.123 1028C716.878 1036.79 719.911 1047.13 711.895 1053.68C704.823 1059.46 689.375 1045.14 682 1042.67C655.651 1033.85 628.767 1041 602 1041C604.058 1046.84 609.43 1050.63 612.483 1056C618.467 1066.52 622.09 1080.96 622.911 1093C623.709 1104.72 617.986 1115.79 615.459 1127C613.537 1135.52 613.362 1148.23 613.648 1157C614.05 1169.33 628.847 1176.36 621 1189L625 1191L626 1186M1357 839L1364 846M363 840C360.685 844.78 363.476 849.965 369.015 850.852C382.976 853.087 396.923 848.829 411 850.17C419.062 850.938 429.581 854.939 437 851M980 841L981 844M1332 844C1338.55 848.651 1340.66 855.092 1341 863M1374 844C1377.65 860.776 1363.74 880.743 1355 894M947 847L948 849M1269 847L1271 871C1251.33 864.762 1226.38 861.091 1206 865.511C1197.28 867.402 1187.27 869.554 1185 879M243 858C254.811 866.74 280.028 866.767 294 864.59C297.675 864.018 302.479 864.937 305.896 863.548C312.44 860.886 312.997 852.464 321 851.019C329.805 849.43 343.216 847.609 352 848.606C357.476 849.228 359.12 853.29 365 851M442 852C451.036 859.869 461.088 862.772 471 868.914C487.338 879.039 502.891 894.334 510.819 912C515.243 921.859 516.365 933.32 516.78 944C516.879 946.54 514.452 953.217 518.308 954.052C521.86 954.822 525.139 950.497 527.192 948.281C533.501 941.471 537.49 932.514 541 924M1326 852L1326 854M360 853C355.912 856.544 340.01 860.857 343.261 868.004C348.799 880.179 366.018 886.09 378 888.388C407.72 894.089 438.012 892.752 466 906.258C477.477 911.797 487.882 918.002 496.996 927.015C502.292 932.251 506.192 940.814 513 944L516 941M892 855C894.117 867.578 914.324 874.908 915.49 887.985C916.059 894.368 901.52 898.438 897 900.757C877.718 910.652 866.705 928.352 854 945C852.33 942.4 851.034 939.508 849.201 937.019C845.406 931.867 836.216 930.007 832.089 936.148C826.751 944.093 832.111 956.573 823.786 963.486C818.595 967.797 808.1 963.398 804.318 969.314C796.81 981.056 808.742 994.576 811.587 1005C814.542 1015.83 812.433 1025.65 819 1035L815 1038L813 1031M1194 855L1189 870M670 857L670 859M888 859L891 860M918 859L922 862M1280 860L1293 859M306 865C305.754 870.71 303.331 876.339 303.463 882C303.771 895.223 312.105 911.672 321 921L316 926L291 910M677 865C681.16 866.085 688.563 870.373 685.917 875.815C683.885 879.996 677.304 882.686 674.04 886.015C663.587 896.679 654.073 906.893 643 917C657.037 928.661 672.65 952.843 692 955M517 955C516.71 958.809 513.458 965.819 508.313 962.983C503.942 960.573 500.897 950.884 496.96 947.055C491.794 942.031 485.041 941.392 479.09 937.865C474.075 934.893 470.509 930.796 465 928.312C433.367 914.049 397.234 912.695 365 898.85C354.661 894.409 344.777 889.47 337.105 880.999C331.147 874.422 331.769 868.195 341 866M973 866L973 867M1321 866L1324 873M1349 867L1348 876M1512 885C1515.52 885.638 1517.97 887.028 1521 888.911C1523.94 890.737 1529 891.785 1530.5 895.214C1532.33 899.425 1529.19 906.405 1527.07 910C1520.35 921.377 1511.4 929.967 1500 936.576C1479.07 948.703 1456.87 954.276 1433 955.911C1424.38 956.501 1415.59 955.211 1407 956.174C1402.86 956.639 1399.18 958.958 1395 959.047C1382.22 959.32 1373.13 955.756 1361 962.417C1354.52 965.976 1350.85 972.69 1346 978C1336.06 959.365 1356.42 941.796 1371 933.792C1391.17 922.716 1411.12 915.364 1434 912.282C1452.16 909.836 1474.33 911.244 1491 902.676C1496.33 899.935 1512.6 891.709 1510.43 884.039C1509.07 879.267 1493.53 874.948 1499.03 868.693C1500.96 866.498 1506.52 868.086 1509 868.424C1517.99 869.647 1532.34 867.484 1539.54 873.765C1551.44 884.139 1550.13 898.594 1547.26 912C1539.61 947.724 1507.12 965.051 1476 977.299C1470.78 979.353 1436.37 986.82 1450 994L1451 987M717 868C704.966 894.914 683.26 918.526 683 950M901 869C894.987 872.668 889.555 870.65 883 871.704C867.42 874.209 849.09 876.338 836 885.786C825.374 893.454 817.231 905.577 811.059 917C804.992 928.227 803.41 935.975 790 941.049C777.5 945.78 763.333 948.997 750 949.911C731.428 951.182 714.194 947.862 699 961M1413 869C1406.38 875.567 1399.69 882.149 1390 883C1390.15 878.119 1387.85 875.752 1384 873C1381.1 878.287 1382.6 886.25 1390 883M1454 869L1497 876M1271 871L1277 876M1384 873C1388.3 871.008 1390.27 872.401 1391 877M307 892C312.333 885.106 322.027 873.386 331 872M1004 872C1009.66 875.023 1015.83 873.467 1022 874.439C1031.55 875.943 1042.87 879.675 1051 884.966C1064.87 893.995 1072.46 908.208 1082.1 921C1084.72 924.478 1086.66 931.738 1090.39 933.933C1094.96 936.617 1106.86 933.371 1112 932.714C1133.94 929.913 1161.11 919.993 1179 907M1340 872C1340.18 877.402 1342.3 880.179 1346 884M936 1172C941.32 1176.73 945.917 1178.37 952 1174C944.617 1168.67 929.991 1172.08 938 1159C946.061 1164.69 950.454 1164.03 956 1156L961 1161C958.006 1163.98 956.01 1165.7 957 1170C961.253 1166.37 966.644 1165.04 970.907 1161.47C975.864 1157.32 978.721 1150.96 982.808 1146.02C984.785 1143.62 988.107 1139.37 991.762 1140.71C994.968 1141.89 994.191 1148.24 995 1151C997.946 1149.56 1005.33 1147.47 1004.25 1143C1003.28 1138.97 997.45 1136.95 999.908 1132.09C1003.02 1125.94 1010.83 1120.82 1014.96 1115C1023.05 1103.6 1028.2 1090.51 1034.26 1078C1052.91 1039.48 1077.12 1012.55 1114 991C1110.72 979.918 1118.82 965.659 1110.81 956.301C1099.3 942.85 1081.15 956.058 1068 959.679C1039.88 967.421 1007.27 985.419 985 1004.13C973.267 1013.98 964.229 1030.55 951 1038C946.166 1029.41 945.186 1020.15 936.961 1013.53C930.921 1008.66 918.38 1009.43 916.8 1000.01C916.101 995.846 921.125 992.022 923.36 988.996C928.472 982.075 933.983 973.503 935.877 965C940.101 946.027 937.466 927.261 939.381 908C939.93 902.483 936.872 896.01 940.047 891.04C947.277 879.725 957.274 887.377 967 884.952C977.29 882.387 984.802 875.133 995 873M323 880C334.194 928.365 398.411 936.935 439 937C451.401 937.02 464.02 943.393 476 937M547 880L549 908M1381 880L1381 885L1381 883M1178 881L1176 883M981 883C985.017 898.389 1003.74 900.718 1016 906.756C1035.29 916.258 1059.49 937.424 1063 960M1299 892L1292 885C1302.07 880.37 1298.42 893.595 1299 899M1379 883C1376.45 887.509 1378.66 889.51 1382 893L1387 887M1378 885L1384 891M1382 885L1385 888M1292 886L1290 895M1345 887L1345 899M1376 887L1373 893L1374 894L1375 893C1372.08 892.748 1371.54 893.101 1371 896L1372 895M917 888C925.434 888 930.984 888.991 938 894M1284 889L1290 888M1375 889L1382 894M1521 891C1519.51 904.336 1500.91 912.323 1490 916.999C1462.5 928.79 1434.22 932.26 1406 940.885C1396.9 943.667 1381.5 946.842 1377 956M1283 893L1274 909M1375 894L1381 895M1282 895L1288 899M1370 895C1365.85 903.26 1374.6 904.068 1378 897M1373 897L1376 900M1532 897L1547 911M1287 900L1280.03 928.938L1287 934.283L1307 947C1306.92 942.81 1305.67 941.764 1302 944L1302 944M1704 942L1675 958L1668.49 945.213L1651 951C1652 944.257 1653.53 930.062 1657.02 924.455C1662.9 915.023 1675.09 910.299 1685 906.834C1688.9 905.471 1699.71 899.673 1703.41 902.708C1709.84 907.98 1706.69 922.764 1704.14 929C1702.84 932.165 1699.73 937.758 1704.16 940.006C1707.55 941.724 1711.91 938.053 1715 936.965C1720.29 935.103 1738.73 931.195 1743.38 935.028C1748.09 938.904 1741.16 954.608 1739.45 959C1738.67 961.009 1736.58 965.131 1738.7 966.958C1741.1 969.028 1746.36 966.768 1749 966.211C1757.65 964.387 1767.17 963.986 1776 964C1779.32 964.005 1785.84 963.267 1787.3 967.279C1788.49 970.545 1786.08 976.681 1785.33 980C1782.33 993.306 1768.38 1013.52 1755.91 1019.57C1749.62 1022.62 1739.93 1022.15 1733 1023.32C1727.03 1024.33 1716.51 1031.99 1720.33 1039.64C1721.78 1042.54 1727.44 1041.03 1730 1041C1736.01 1040.94 1749.74 1040.48 1754.38 1044.94C1758.58 1048.98 1748.73 1055.39 1756.06 1058.88C1760.08 1060.8 1767.22 1057.25 1770.91 1055.52C1779.27 1051.59 1788.41 1043.37 1795 1036.96C1797.07 1034.94 1802.02 1030.82 1799.34 1027.59C1797.27 1025.1 1791.95 1024.99 1789 1024.4C1779.93 1022.59 1766.96 1023.25 1759 1019M1297 902L1292.78 923.83L1306 940M1370 904L1350 925C1356.15 932.038 1350.44 940.049 1348 948M1674 959C1674.13 975.14 1678.63 999.276 1666.69 1012.88C1660.73 1019.66 1645.33 1021.5 1637 1024.35C1627.48 1027.61 1620.15 1033.43 1612 1039C1607.41 1032.69 1600.36 1025.78 1596.89 1019C1590.37 1006.29 1605.39 991.068 1613.17 983.054C1616.02 980.12 1620.58 978.199 1621.68 973.982C1625.7 958.549 1615.11 939.533 1623.21 925C1627.79 916.787 1635.09 912.509 1643 908.05C1645.02 906.909 1648.94 903.904 1651.4 905.241C1654.14 906.735 1655.53 918.843 1656 922M597 905L615 908.424L642 917M292 913C292.027 922.817 294.986 935.117 301 943M1359 919C1357.98 923.628 1356.88 926.548 1352 924L1352 924M1282 921L1286 932M322 923L322 928L317 926M1354 924L1355 925M1292 925L1286 932M1354 932L1350 925M1353 934L1348 926M275 976C283.684 979.33 291.47 985.078 300 988.909C302.008 989.811 307.84 991.501 306.654 994.738C305.569 997.7 299.528 997.659 297 997.929C288.073 998.884 280.226 1000.41 271 1000.29C234.104 999.799 195.833 992.751 162 977C166.098 972.764 166.097 966.045 169.603 962.607C173.895 958.4 189.131 965.173 194 967C195.002 964.562 194.754 960.516 196.617 958.603C205.725 949.258 220.31 973.814 228.589 967.164C235.206 961.849 216.973 951.793 221.782 944.059C229.909 930.989 244.251 947.539 252.721 946.003C259.337 944.803 253.58 930.408 259.318 927.603C268.378 923.175 287.626 938.663 297 941M1351 939L1343 929L1346 927M323 928C335.816 938.638 350.219 948.684 366 954.456C379.298 959.32 397.728 961.401 409 970C400.811 974.856 385.718 972.975 376 975.374C353.19 981.005 332.177 994.997 308 995M1340 928L1342 930M1356 928L1355 929M1600 997L1581 976C1588.44 964.174 1587.14 949.915 1596.52 938C1598.66 935.28 1603.69 928.176 1607.82 929.346C1612.65 930.714 1615.21 938.572 1620 941M1344 929L1352 937M1272 930C1275 933.391 1276.68 934.997 1281 933M1339 934L1349 941M805 935C802.152 944.545 801.633 957.55 805 967M1090 935L1091 950M1337 935L1348 948M1211 936C1199.51 945.039 1190.47 956.461 1179 965.482C1171.9 971.069 1163.14 974.081 1156.04 979.61C1139.89 992.175 1127.71 1012.17 1130 1033C1139.96 1028.1 1146.12 1012.12 1155.01 1004.61C1178.5 984.796 1205.14 972.919 1235 966.665C1255.56 962.359 1277.55 962.818 1298 967.654C1306.52 969.671 1318.88 979.956 1327 976L1307 947M1337 939L1347 952M1700 939L1699 941M455 940L410 970M1336 943C1336 949.964 1336.4 954.921 1344 957M517 961C528.75 969.452 538.303 954.444 549 950.695C569.84 943.392 593.479 943.886 615 947.134C645.573 951.748 674.361 965.512 698 985.325C706.803 992.703 713.163 1008.16 723 1013M512 945L515 950M854 945C856.079 958.435 869.686 952.676 877.956 957.799C884.46 961.829 884.638 971.259 889.688 976.566C893.289 980.352 900.468 979.442 904.999 982.086C910.558 985.329 912.719 990.848 916 996M941 950C953.663 959.11 958.27 970.969 967.235 983C972.953 990.673 980.174 995.486 987 1002M1651 951C1642.83 959.004 1626.13 969.487 1624.71 982C1624.06 987.721 1630.9 994.019 1633.2 999C1636.73 1006.62 1637 1014.77 1637 1023M1335 954C1335.22 960.873 1339.36 964.352 1344 969M1400 960L1427 975.09L1445 988M1595 1018C1590.18 1016.61 1582.98 1010.63 1578.15 1011.11C1573.43 1011.59 1575.34 1020.12 1569 1017.71C1551.44 1011.06 1542.7 976.547 1551 961L1581 975M1335 962C1335 969.967 1335.38 978.778 1328.83 984.686C1321.48 991.32 1303.17 989.703 1294 988.83C1276.28 987.143 1258.85 984.385 1241 986.171C1210.68 989.202 1178.39 1003.6 1156 1023.83C1149.44 1029.76 1140.8 1036.18 1136.03 1043.71C1132.24 1049.69 1136.8 1074.67 1146 1074.8C1151.29 1074.87 1161.1 1066.45 1166 1063.89C1174.5 1059.45 1184.64 1058.7 1194 1057.43C1210.72 1055.15 1227.35 1059.71 1244 1059.82C1261.38 1059.94 1276.76 1055.17 1293 1050.42C1298.71 1048.75 1308.12 1048.45 1312.96 1045.36C1317.94 1042.18 1319.62 1034.9 1322.43 1030C1327.58 1020.99 1333.68 1013.34 1341 1006C1349.46 1017.42 1351.32 1033.43 1360.39 1045C1374.37 1062.83 1395.79 1070.85 1413 1084.6C1427.29 1096.02 1436.86 1112.18 1451 1123.49C1461.32 1131.73 1472.58 1139.37 1485 1144.01C1490.89 1146.22 1495.92 1149.62 1500.51 1142.96C1504.57 1137.06 1496.71 1135.7 1493 1133.44C1481.8 1126.61 1471.84 1118.42 1462.17 1109.61C1438.68 1088.24 1419.08 1063.76 1398.16 1040C1383.63 1023.5 1366.2 1005.14 1344 1000L1346 980C1359.62 987.27 1376.41 984.295 1390 994.351C1426.16 1021.11 1443.31 1066.7 1472.58 1100C1481.34 1109.96 1505.62 1136.03 1517.57 1119.99C1523.19 1112.43 1514.69 1105.88 1511.93 1099C1508.64 1090.78 1509.18 1081 1502.67 1074.21C1493.75 1064.9 1479.67 1060.87 1474.23 1048C1471.51 1041.59 1475 1033.79 1475 1027C1475.01 1011.3 1473.97 995.557 1472 980M544 1028C545.662 1030.56 546.292 1030.32 549 1029L539.479 1025.42L531.548 1012L513 987C504.301 998.754 502.706 1015.3 492.787 1027C478.995 1043.27 459.382 1050.85 443 1063.66C428.241 1075.2 418.024 1090.82 403.996 1103C393.816 1111.84 382.462 1119.31 370 1124.55C365.886 1126.28 360.407 1130.45 356.394 1126.68C353.484 1123.94 346.193 1112.07 347.997 1108.19C350.157 1103.54 358.953 1100.24 363 1097.27C372.025 1090.63 380.239 1082.45 387.576 1074C414.9 1042.53 430.001 995.143 467 972.93C478.96 965.749 491.831 965.445 505 963M131 965C133.685 978.73 146.949 986.763 155.59 997C159.26 1001.35 163.15 1008.21 168 1011M510 965C510.697 980.993 532.722 988.713 547 990.866C581.802 996.114 616.039 983.03 651 993.039C665.12 997.081 678.54 1003.13 690 1012.46C697.929 1018.92 707.142 1031.23 717 1034M132 966C141.16 966.195 150.704 969.272 157 976L159 971L166 971M547 971C568.723 970.067 590.092 964.98 612 967.171C654.921 971.462 689.712 995.289 718 1026M1737 967C1733.13 971.2 1717.35 986.518 1719.45 992.678C1721.08 997.469 1729.42 991.226 1730.51 997.148C1732.25 1006.58 1726.91 1015.1 1726 1024M155 970L158 970M1584 972L1584 978M406 973C403.861 981.466 397.606 988.135 394.035 996C387.734 1009.88 384.777 1024.07 374.572 1036C366.844 1045.04 352.229 1050.04 347.468 1061C344.405 1068.05 344.395 1076.12 341.005 1083C338.814 1087.45 333.259 1092.5 334.362 1097.91C335.304 1102.53 341.494 1106.33 345 1109M1327 976L1331 980M159 977L162 977M512 977C506.094 982.265 498.773 984.195 492 988.043C483.369 992.947 475.149 1000.19 468 1007.04C445.226 1028.85 427.056 1055.41 404.985 1078C389.144 1094.21 371.459 1106.27 353 1119M1346 978L1346 980M1620 979L1624 981M514 980L513 987M1332 984C1332.8 990.364 1334.64 1004.11 1344 1000M355 985C353.457 992.097 348.742 996.795 345.312 1003C339.462 1013.58 335.101 1025.81 335 1038M1114 992C1123.74 996.851 1130.92 988.825 1138 999M1718 993L1692 1000.86L1669 1011M1333 995C1312.92 1015.92 1284.47 1010.7 1258 1008.17C1240.42 1006.49 1222.29 1007.17 1205 1011.24C1190.65 1014.61 1176.48 1020.85 1165 1030.17C1156.24 1037.29 1147.54 1048.92 1137 1053M1451 995L1471 1041M285 1001L264 1035M1341 1003L1341 1006M813 1007C826.073 1012.06 824.594 1022.38 819 1033M165 1010L159 1013C164.067 1022.24 174.077 1019.99 181.926 1024.46C188.393 1028.14 179.93 1032.29 182.831 1036.4C185.899 1040.74 194.779 1037.48 198.353 1041.59C205.759 1050.11 180.186 1057.64 185.047 1065.58C191.116 1075.5 209.984 1065.14 217.852 1065.69C223.847 1066.12 218.16 1075.43 221.607 1078.21C224.003 1080.14 227.896 1077.58 230 1076.33C237.372 1071.92 243.836 1068.78 248 1061M725 1011C733.706 1013.44 740.028 1023.82 744.833 1031C749.987 1038.71 756.69 1049.63 757.814 1059C758.784 1067.08 754.141 1074.33 752.425 1082C749.241 1096.23 748.787 1110.29 743 1124C763.554 1135.39 787.252 1130.89 809 1130.35C815.838 1130.19 822.3 1132.77 829 1132.98C848.354 1133.59 863.723 1131.17 883 1136.71C895.4 1140.27 904.394 1145.5 915 1152.65C918.629 1155.1 923.254 1157.3 927 1154M156 1013L159 1013M1662 1017C1661.7 1031.53 1654.58 1044 1643.62 1053.44C1639.41 1057.07 1632.86 1057.84 1629.89 1063.09C1628.43 1065.68 1627.19 1072.14 1628.73 1074.79C1630.66 1078.12 1635.89 1080.14 1633.11 1084.85C1630.36 1089.52 1622.49 1087.67 1618 1089C1629.83 1114.16 1657.72 1123.56 1682 1130M825 1018C832.009 1020.06 835.401 1028.19 836 1035C829.923 1036.58 817.033 1050.75 815 1038M1574 1020C1574.61 1034.26 1581.3 1045.62 1591.96 1054.8C1594.62 1057.09 1598.04 1062.36 1601.9 1062.36C1605.65 1062.36 1607.66 1056.69 1612 1056L1612 1039M869 1022L913.309 1085L924 1109C914.447 1107.07 908.172 1097.69 898 1095.52C865.873 1088.66 828.933 1082.78 796 1085.09C781.167 1086.13 766.757 1090.83 752 1092M538 1028C538.468 1050.66 527.732 1069.66 508.985 1082.96C502.211 1087.77 495.285 1091.33 488.005 1095.26C485.818 1096.44 481.799 1098.53 482.752 1101.69C483.92 1105.57 491.398 1102.29 494 1102.09C507.531 1101.07 515.968 1109.89 528 1113L522 1075M549 1029C595.651 1033.07 603.478 1092.1 595.489 1129C593.485 1138.26 593.258 1147.93 591.101 1157C589.898 1162.06 586.884 1170.52 588.773 1175.68C590.108 1179.33 595.896 1177 598.625 1178.83C606.057 1183.81 612.972 1192.16 620 1198L626 1192M546 1033C570.701 1058.24 585.509 1097.6 583.961 1133C583.32 1147.65 577.54 1161.49 576.813 1175.94C576.52 1181.78 583.74 1178.92 587 1178M1130 1033C1120.04 1049.72 1113.77 1070.69 1107.18 1089C1105.54 1093.56 1099.65 1103.95 1101.65 1108.68C1102.91 1111.67 1109.29 1110.95 1112 1112.06C1118.04 1114.54 1122.32 1118.51 1129 1119.56C1134.37 1120.41 1139.75 1118.32 1145 1119.35C1152.77 1120.87 1154.46 1130.38 1161.04 1133.82C1167.79 1137.35 1177.61 1134.09 1185 1135.9C1194.58 1138.24 1196.72 1146.53 1203.09 1152.95C1209.35 1159.25 1227.68 1163.82 1235.68 1158.01C1239.16 1155.49 1238.22 1148.71 1237.71 1145C1236.22 1134.12 1228.82 1119.31 1223 1110C1205.72 1124.67 1214.62 1140.27 1218 1158M1130 1035L1134 1042M837 1036C837 1053.06 835.93 1069.61 844 1085M577 1038L601 1040M952 1038C939.796 1055.91 939.259 1080.28 936.714 1101C935.77 1108.68 932.124 1117.48 934 1125M1719 1040C1711.65 1047.35 1696.49 1056.01 1697 1067L1724 1076.91L1755 1060M617 1043L612 1053M1313 1046C1318.04 1053.01 1316.08 1064.36 1319.22 1072.79C1321.56 1079.07 1328.42 1083.32 1330.57 1090C1335.56 1105.54 1326.51 1129.98 1322.43 1145C1317.7 1162.42 1301.52 1178.34 1313 1197C1318.62 1193.61 1324.28 1193 1328.3 1187C1332.21 1181.16 1332.97 1166.72 1324 1166L1322 1149M1309 1047C1306.88 1054.58 1299.23 1061.51 1294.72 1068C1287.21 1078.8 1281 1091.37 1277.21 1104C1272.4 1120.05 1268.58 1140.26 1270.17 1157C1271.52 1171.14 1276.96 1184.73 1277 1199C1266.82 1198.19 1250.03 1197.65 1243.99 1187.83C1238.36 1178.67 1240.84 1167.62 1238 1158M1646 1055L1675 1055.44L1696 1061M534 1056C550.951 1082.65 570.987 1116.52 571 1149C571.003 1158.07 571.159 1169.73 566.697 1177.96C564.562 1181.89 559.988 1183.77 557 1187L575 1198L570 1203L576 1207C568.403 1212.46 556.005 1210 547 1210C527.363 1210 504.062 1209.17 485 1204.33C477.909 1202.54 470.386 1199.7 464 1196.14C461.045 1194.49 456.654 1190.34 453.054 1190.91C449.856 1191.4 448.806 1195.3 445.871 1196.36C435.097 1200.26 430.522 1186.42 422 1200C438.592 1208.87 461.392 1212.28 480 1214.87C488.687 1216.08 500.784 1214.81 508 1220C498.79 1227.79 479.685 1225.72 468 1226.83C464.666 1227.15 460.142 1226.17 457.167 1228.03C447.911 1233.8 475.035 1242.05 463.721 1247.8C455.029 1252.22 434.849 1234.34 429.479 1228.68C427.431 1226.52 422.757 1219.59 428.152 1218.36C436.734 1216.4 445.485 1228.72 454 1230M1612 1056C1617.35 1064.56 1617.93 1062.65 1627 1064M1752 1056L1750 1058M1772 1056C1778.28 1060.67 1794.61 1062.62 1797.82 1070.33C1800 1075.53 1788.43 1082.42 1785 1084.78C1776.99 1090.29 1768.35 1093.87 1759 1096.37C1756.05 1097.17 1749.66 1098.04 1748.37 1101.3C1747.02 1104.7 1751.34 1112.03 1753 1115M1217 1058L1206.8 1078L1208.83 1101L1211 1127M1276 1059C1272.99 1066.83 1266.95 1073.41 1263.26 1081C1258.48 1090.83 1256.22 1103.16 1255.17 1114C1252.54 1141.14 1264.84 1168.92 1266 1196M1251 1060L1235.7 1087L1229 1119M1605 1064C1602.17 1073.03 1594.26 1078.65 1587 1084.2C1568.64 1098.21 1542.83 1112.56 1520 1117M1697 1067C1689.08 1074.3 1680.27 1082.14 1670 1085.91C1667.43 1086.85 1659.28 1087.31 1659.35 1091.11C1659.42 1095.48 1668.02 1100.83 1670.68 1104C1676.54 1111.01 1678.85 1119.06 1680 1128M721 1071C724.231 1086.74 719.662 1091.38 712.905 1105C709.49 1111.88 709.345 1119.15 705.485 1126C701.14 1133.71 693.9 1140.37 689 1148C683.542 1142.96 682.004 1132.15 680.75 1125C676.266 1099.42 680.544 1065.06 715 1069.18C719.621 1069.74 725.039 1071.08 728.996 1073.56C740.635 1080.87 740.944 1095.09 747 1106M243 1071C237.148 1091.82 255.631 1073.37 265 1071L266 1072C264.762 1076.36 263.659 1080.84 261.826 1085C260.598 1087.79 258.887 1090.3 257.493 1093C254.226 1099.33 255.89 1109.13 265 1104.43C275.03 1099.25 279.655 1084.19 290.115 1080.29C296.187 1078.03 291.784 1089.98 297.148 1090.3C305.861 1090.83 313.947 1080.64 321 1077L320 1106L334 1100M727 1072L723 1076M1318 1076C1315.81 1088.27 1306.23 1100.18 1300.31 1111C1290.05 1129.72 1282.99 1149.46 1283 1171C1283 1178.87 1283.2 1191.99 1287.94 1198.66C1291.97 1204.34 1303.19 1207.85 1309 1212L1303 1237L1325 1234C1321.83 1231.91 1320.18 1230.6 1317 1233M1725 1078L1747 1102M317 1080L321 1084M515 1082L521 1088M1636 1086L1658 1090M677 1087L677 1088M1502 1137C1506.79 1132.72 1508.92 1133.22 1513 1138C1521.35 1130.76 1534.69 1127.17 1545 1123.19C1560.45 1117.22 1574.79 1110.13 1589 1101.6C1596.56 1097.06 1607.76 1087.2 1617 1089M642 1090C618.376 1125.82 643 1166.04 643 1204C634.446 1203.63 630.092 1200.33 626 1193M1332 1093C1341.67 1096.75 1348.56 1105.95 1358 1110.56C1372.75 1117.76 1387.79 1124.69 1403 1130.99C1411.73 1134.61 1422.39 1136.87 1429 1144C1416.38 1154.45 1400.06 1159.85 1388.17 1171.29C1372.9 1185.97 1363.94 1205.01 1345 1215C1347.79 1216.7 1348.4 1216.99 1351 1215M257 1160L214 1121C217.501 1115.77 220.32 1100.21 227.13 1098.46C232.283 1097.14 238.192 1106.85 241.086 1110C250.759 1120.52 269.912 1148.12 258 1161C261.554 1162.2 262.877 1161.62 264 1158M482 1103L475 1103L482 1099M1223 1109L1231 1100M922 1102L918 1106M421 1155L427 1153C426.11 1158.31 422.628 1157.59 419.376 1153.94C414.362 1148.31 411.038 1141.29 407 1135C424.985 1119.71 452.328 1108.88 475 1103M144 1189L123 1190C128.371 1202.16 140.594 1215.29 153 1220.61C160.021 1223.62 167.826 1223.29 174 1228L166.485 1235.01L173.001 1241.28L194 1254C185.934 1259.97 174.32 1258.74 166.09 1264.59C158.639 1269.88 154.734 1279.68 152.001 1288C151.198 1290.44 149.09 1294.88 151.618 1296.97C153.992 1298.93 159.145 1298 162 1298C171.725 1298 183.547 1299.92 193 1297.44C210.117 1292.96 210.276 1271.14 222.184 1260.52C231.117 1252.55 245.219 1253.84 253 1245C240.185 1239.01 226.564 1232.88 217.954 1220.91C212.07 1212.73 208.028 1196.18 199.985 1190.99C184.775 1181.18 163.524 1194.79 148.129 1188.4C139.359 1184.75 130.202 1165.75 128.208 1157C127.475 1153.79 124.211 1146.64 128.319 1144.6C132.125 1142.72 138.025 1144.5 142 1144.95C153.023 1146.19 164.07 1149.05 175 1150L173.924 1120L177.433 1108.04L188 1110.56L213 1121M924 1109L931 1119M1354 1109L1350.8 1150L1347.4 1163.38L1329 1166M1101 1110L1079.5 1153L1067 1171L1069 1169M1677 1111L1699 1115C1696.29 1116.32 1695.66 1116.56 1694 1114M1751 1113L1733 1117C1735.3 1121.55 1739.6 1124.79 1742.56 1129C1744.12 1131.22 1745.53 1133.56 1746.73 1136C1756.5 1156.03 1726.78 1148.28 1717 1144.68C1714.3 1143.69 1710.24 1141.43 1707.32 1142.65C1700.64 1145.43 1708.96 1158.46 1704.36 1161.93C1701.3 1164.23 1693.13 1159.43 1690 1158.31C1672.82 1152.17 1661.27 1140.95 1654 1124M529 1114C534.305 1127.78 544.3 1146.32 544.961 1161C545.234 1167.07 545.194 1179.25 535.999 1176.17C528 1173.48 522.677 1166.47 523.047 1158C523.18 1154.95 525.992 1150.17 524.184 1147.43C521.892 1143.97 514.559 1144.9 511 1143C502.903 1152.24 494.614 1152.14 493.329 1167C491.952 1182.91 509.861 1204.96 527 1197C524.337 1194.57 523.248 1194.46 520 1196M1699 1115L1733 1117M1696 1118L1705 1141M263 1147C267.097 1141.69 269.328 1135.38 274.184 1130.58C277.148 1127.65 282.318 1120.64 286.871 1120.64C290.287 1120.64 293.857 1126.81 296.004 1129C306.647 1139.88 313.539 1156.44 310.91 1172C309.664 1179.38 299.395 1183.1 299.745 1191C300.026 1197.37 302.986 1203.24 303 1210C303.004 1212.05 302.45 1215.65 304.028 1217.29C307.758 1221.16 316.165 1209.3 318.079 1207C327.419 1195.77 339.573 1178.47 335 1163L312 1173M964 1130C957.529 1130.44 957.54 1124.54 960 1120C969.361 1132.96 966.556 1145.94 961 1160M743 1125C730.788 1140.36 721.55 1135.38 705 1129M1510 1127L1516 1134M1508 1128L1508 1132M363 1129C378.688 1139.81 389.588 1139.66 407 1135M957 1129L958 1137L962 1133M1528 1131C1536.5 1135.54 1549.39 1132.71 1559 1134.89C1585.77 1140.96 1614.81 1154.02 1633.68 1174.63C1639.39 1180.87 1629.55 1181.14 1626.96 1184.43C1619.63 1193.76 1609.84 1193.22 1606.43 1208C1605.56 1211.76 1602.81 1221.4 1607.43 1223.79C1613.08 1226.71 1618.49 1217.88 1624 1219C1613.98 1228.54 1618.32 1240.34 1626.44 1250C1628.88 1252.9 1632.8 1258.24 1637 1258.39C1640.56 1258.52 1643.53 1254.44 1645.54 1252C1652.92 1243.02 1654 1234.18 1654 1223C1660.21 1224.6 1667.19 1232.78 1673.85 1231.58C1679.45 1230.56 1675.36 1221.16 1674.33 1218C1670.43 1206.04 1665.31 1195.56 1652 1194.96C1649.21 1194.84 1644.95 1193.35 1642.68 1195.62C1639.93 1198.36 1642.95 1203.65 1642.94 1207C1642.92 1213.86 1640.48 1222.45 1636.03 1227.81C1631.34 1233.48 1626.41 1223.29 1624 1220M824 1133C818.974 1142.34 797.619 1144.57 788 1143.91C766.713 1142.46 738.52 1140.83 718 1147.67C707.763 1151.09 699.873 1158.79 690 1163L688 1148M992 1138C992.652 1134.09 994.136 1133.3 998 1133M1511 1133L1513 1132M465 1140C471.117 1138.06 482.042 1133.32 487.945 1137.49C492.115 1140.43 494.462 1146.26 498 1150M488 1135C495.285 1135.06 507.41 1135.88 511 1143M958 1138C952.7 1144.19 957.674 1147.82 957 1155M1512 1138L1504 1142M957 1139L958 1148M1000 1139L995 1142M998 1142L1000 1148M1429 1144C1440.59 1146.1 1439.9 1155.87 1430 1160.82C1423.75 1163.95 1414.32 1161.87 1409 1158M1440 1152C1447.64 1153.03 1454.38 1157.58 1462 1158.44C1468.43 1159.17 1475.49 1155.9 1482 1155.48C1488 1155.09 1493.77 1157.47 1500 1156.83C1508.67 1155.94 1515.26 1147.88 1524 1145.71C1540.49 1141.6 1558.56 1147.85 1574 1153C1590.21 1158.41 1616 1169.49 1618 1189M940 1154L934 1148L942 1148L938 1158M953 1146L957 1153M237 1147C236.847 1165.43 230.431 1187.72 249.213 1200.86C252.654 1203.26 257.102 1203.74 261 1205.04C264.65 1206.26 270.808 1211.52 274.682 1210.26C281.127 1208.18 278.829 1180.38 290.005 1183.51C293.262 1184.42 295.906 1187.56 299 1189M1006 1147C1006.45 1157.52 1005.61 1163.25 1001.53 1173C1000.52 1175.41 998.174 1182.15 994.328 1180.08C990.768 1178.16 993.912 1168.73 992 1165L976 1172.1L964.002 1174.03L958.393 1181L964 1193L1005 1191.43L1012.97 1188.4L1015 1166C1023.16 1176.66 1024.6 1197 1019 1209C1036.02 1210.61 1028.63 1178.98 1025.46 1171C1023.55 1166.17 1019.63 1157.04 1015 1165L1015 1166M925 1153L930 1152L929 1153C928.378 1148.94 930.21 1148.14 934 1149M1491 1148L1486 1155M1001 1149L1003 1169M1386 1149C1377.34 1155.41 1362.28 1164.59 1359.73 1176C1358.86 1179.9 1361.04 1184.02 1360.79 1188C1360.36 1194.71 1357.19 1198.16 1362 1204M459 1154L434 1156L433 1152C442.131 1148.43 457.794 1148.49 464.257 1157.26C466.831 1160.75 465.204 1165.4 468.383 1168.7C473.428 1173.93 485.943 1177.38 493 1178M933 1150L930 1153M952 1150L954 1159M176 1151L214 1160.43L234 1167M428 1152L432 1151M995 1151L993 1165M179 1153L193 1187M931 1155L928 1156M1507 1156C1515.45 1161.75 1526.83 1167.5 1537 1168.71C1549.21 1170.18 1562.21 1167.66 1573 1175L1550.04 1190L1532.89 1212L1528.76 1222.4L1517 1223.11L1485 1217C1478.37 1225.43 1466.85 1226.24 1457 1228.73C1436.31 1233.97 1414.88 1237.06 1394 1241.49C1385.78 1243.23 1375.94 1242.95 1369 1248L1380 1252C1376.9 1255.06 1373.82 1258.83 1369 1257.54C1364.17 1256.24 1361.9 1250.95 1356.96 1250.15C1345.89 1248.35 1333.22 1250 1322 1250C1316.16 1250 1308.71 1248.77 1303.06 1250.32C1298.26 1251.63 1296.94 1259.57 1298.94 1263.57C1301.96 1269.62 1309.85 1273.38 1314 1279L1315 1279L1318 1274L1311 1273M420 1157C418.786 1162.89 421.893 1166.26 428 1166.67C439.957 1167.48 452.868 1165 465 1165M427 1157L433 1157M923 1158L924 1161L929 1158M792 1164C824.386 1157.81 851.915 1163.26 884 1167.87C896.407 1169.65 909.961 1168.13 922 1171L924 1161M614 1161C606.548 1171.56 613.542 1180.38 621 1189M961 1161L965 1165M954 1162L956 1165M262 1163L284 1183M690 1163C690 1170.93 690.165 1179.27 688.073 1187C687.357 1189.64 683.768 1194.72 685.241 1197.4C686.963 1200.52 693.326 1198.3 696 1198.26C701.097 1198.19 709.961 1200.69 713.432 1204.64C716.462 1208.08 712.998 1218.91 714.239 1224C718.911 1243.16 736.251 1258.83 756 1258M1348 1165L1359 1176M1323 1167C1322.63 1175.45 1315.85 1185.62 1321 1193M429 1168C430.031 1176.16 430.602 1181.87 426 1189L432 1183M957 1170C955.944 1180.64 951.151 1184.36 943 1190.79C939.236 1193.75 931.422 1193.23 933 1199C939.986 1191.54 931.959 1181.23 936 1173M1631 1172C1642.5 1165.86 1658.27 1173.17 1667.83 1180.03C1677.61 1187.05 1675.63 1193.98 1664 1195M601 1177L608 1172M923 1172C924.221 1181.66 925.882 1187.11 933 1194M1244 1189C1231.93 1208.04 1244.46 1221.51 1244.87 1241C1245.08 1251.09 1237.67 1263.9 1228 1267C1229.88 1252.44 1228.96 1240.07 1212.91 1234.03C1208.46 1232.35 1203.43 1233.45 1199.05 1231.35C1191.84 1227.87 1188.34 1220.35 1179 1220.2C1171.6 1220.08 1166.36 1227.4 1159 1226.49C1144.9 1224.75 1136.42 1213.6 1121 1217.53C1113.74 1219.38 1111.03 1225.76 1105.82 1230.32C1102.06 1233.6 1097.46 1235.01 1093 1237L1072.84 1208.17L1046 1184L1066 1172M953 1174L955 1176M541 1178C538.735 1186.7 530.924 1189.59 524 1194M1444 1187L1472 1180C1466.66 1185.34 1462.29 1192.34 1456.78 1197.24C1448.41 1204.68 1436 1210.21 1426 1215.14C1421.45 1217.38 1410.25 1219.78 1412 1226M576 1179C572.268 1181.67 570.112 1182.15 566 1180M1671 1179C1684.85 1179.63 1692.67 1189.49 1700.31 1200C1702.29 1202.73 1707.43 1209.04 1705.76 1212.68C1704 1216.51 1694.56 1214.95 1691 1216C1696.28 1228.72 1704.62 1237.35 1703.96 1252C1703.8 1255.55 1703.29 1263.09 1699.7 1265.01C1696.04 1266.96 1690.05 1261.85 1687 1260.18C1674.53 1253.32 1664.66 1245.39 1654 1236M1472 1180C1476.09 1183.69 1468.36 1188.06 1465 1189M421 1181L429 1181M1475 1181L1489 1193M422 1183L426 1189M433 1184L451 1189M1031 1186L1046 1184M1460 1185L1463 1188M528 1198L557 1187M1626 1189L1642 1193M1470 1190L1481 1191M427 1191L428 1192M1014 1191C1014.68 1200.48 1007.37 1200.54 1000.09 1203.47C989.249 1207.83 965.387 1211.39 964 1193M1317 1191L1316 1193M1622 1192L1622 1217M456 1193C453.609 1196.13 451.975 1197.57 448 1197M966 1193C970.714 1196.65 975.389 1197.98 971 1204L971 1204M545 1194C551.779 1199.22 561.569 1201.86 570 1203M1638 1195L1639 1197M973 1197L968 1202M1313 1197C1315.26 1205.66 1322.31 1208.23 1329 1213C1322.93 1219.81 1316.25 1214.07 1309 1212M575 1198L586.133 1211.26L606 1213.09L639 1216.94L648 1213.78L669.946 1213.58L684 1198M621 1198L628 1199M1261 1198C1259.78 1213.43 1262.94 1226.62 1272.83 1238.96C1278.11 1245.54 1287.41 1250.61 1295.72 1246.06C1298.75 1244.4 1299.65 1240.42 1302 1238M933 1199C929.613 1206.26 922.534 1210.87 920.443 1219C917.194 1231.64 922.512 1241.61 922.578 1254C922.618 1261.42 917.574 1274.54 915.367 1282C911.242 1295.95 902.918 1307.43 896.32 1320C890.941 1330.25 886.468 1342.92 878.54 1351.7C874.5 1356.17 867.26 1357.14 863.647 1361.64C860.702 1365.3 865.169 1375.19 864.571 1380C861.851 1401.88 845.366 1407.65 826 1404C828.863 1414.92 839.647 1419.86 842.387 1430C847.563 1449.16 835.727 1468.57 826.261 1484C823.799 1488.01 821.244 1496.41 817.441 1499.1C812.136 1502.84 795.593 1494.13 790 1492.34C766.411 1484.81 742.355 1474.44 721 1462.04C715.215 1458.68 702.821 1455.23 700.76 1447.98C699.667 1444.14 703.429 1440.84 706.039 1438.67C713.104 1432.77 721.312 1429.44 727 1422C717.029 1414.37 702.246 1412 690 1412M975 1199L979 1200L974 1205M1287 1199L1278 1200M207 1200L247 1200M964 1200L965 1209L970 1204M979 1200L997 1204M1013 1200L1019 1209M789 1328C799.22 1316.21 801.2 1298.31 809.468 1285C817.032 1272.82 830.613 1265.3 833 1250C852.342 1250 872.021 1250.7 891 1245.51C895.021 1244.41 906.227 1236.24 909.083 1242.16C910.56 1245.23 906.813 1248.82 905.115 1251C899.902 1257.7 893.647 1264.92 887.036 1270.25C861.401 1290.93 837.379 1320.24 822.981 1350C818.796 1358.65 816.273 1368.57 814.615 1378C814.05 1381.21 814.787 1386.71 810.852 1387.82C808.463 1388.49 805.46 1388.01 803 1388C778.323 1387.93 796.602 1357.83 792.36 1342C790.992 1336.9 790.96 1329.03 785 1328L785 1318C776.438 1318.18 769.551 1323.57 761 1323.96C728.357 1325.44 699.89 1312.27 678.174 1288C668.426 1277.1 664.019 1264.79 658.228 1251.71C654.209 1242.64 651.813 1232.63 640.961 1228.6C625.739 1222.95 601.336 1234.05 588 1240.51C569.246 1249.59 549.845 1261.17 529 1264.68C519.506 1266.27 510.306 1264.29 501 1265.18C483.91 1266.8 469.259 1268.86 452 1265.54C438.734 1262.99 422.895 1254.35 411 1247.86C407.663 1246.04 400.063 1244.71 398.697 1240.78C397.473 1237.25 400.33 1232.2 401.601 1229C405.528 1219.1 413.008 1208.12 421 1201M972 1201L973 1202M1357 1201L1356 1205M644 1205L648 1211M1485 1217C1486.83 1200.36 1508.26 1203.86 1519.96 1208.79C1524.2 1210.58 1526.13 1213.63 1531 1214M577 1207L582 1211M716 1208C732.067 1211.26 739.79 1231.64 754 1238.86C768.342 1246.15 787.617 1240.63 803 1242.17C813.147 1243.19 821.608 1248.79 832 1249M965 1209C968.459 1221.65 982.297 1242.28 997.906 1239.85C1003.56 1238.97 1002.06 1220.35 1008.14 1226.61C1013.9 1232.54 1010.34 1242.76 1014.6 1248.71C1020.4 1256.81 1029.15 1262.65 1034.96 1271C1056.06 1301.3 1076.36 1345.41 1078 1383M1514 1209C1508.88 1214.21 1494.23 1211 1487 1211M1518 1209L1513 1212M582 1211C574.545 1218.37 568.959 1216.61 560 1219.89C549.223 1223.84 535.898 1228.38 526.004 1234.35C519.87 1238.06 520.448 1248.66 513 1249.88C504.249 1251.32 490.268 1243.07 486 1236C489.074 1234.86 494.65 1232.94 492 1238L491 1239L490 1240L489 1241M277 1212L282.637 1235L282.667 1243.97L263 1248L280.798 1259.13L277 1269C284.636 1268.82 291.325 1263.58 299 1264.34C316.094 1266.03 333.063 1279.56 349 1285.57C374.891 1295.35 401.558 1299.15 429 1300.02C447.85 1300.61 479.985 1291.72 480 1269M1524 1212L1517 1213M1674 1212L1691 1217M673 1213C676.91 1216.25 682.289 1218.86 685.142 1223.17C687.709 1227.05 686.694 1232.02 689.653 1235.82C692.389 1239.32 697.641 1240.92 699.397 1245.17C702.023 1251.53 696.504 1259.24 701.318 1264.87C711.222 1276.44 739.164 1267.62 748 1259M1329 1213L1345 1215M1335 1215L1319 1230M1643 1215L1653 1222M1327 1216L1330 1219M643 1217L645 1230M508 1220C521.712 1219.89 545.247 1212.55 557 1221M1323 1218L1323 1224M1349 1218L1326 1234M305 1219C298.005 1229.98 295.393 1231.57 283 1228M151 1220C140.838 1228.11 125.238 1227.55 114.015 1236.46C111.16 1238.73 104.508 1244.56 105.6 1248.79C106.704 1253.06 115.446 1254.52 119 1255.66C128.424 1258.67 138.199 1261.17 148 1262.57C153.576 1263.37 158.905 1262.28 164 1265M218 1222C211.128 1226.94 203.836 1223.86 196 1224.02C188.422 1224.16 181.342 1226.48 174 1228M1359 1250L1369.18 1239.21L1409 1223M1323 1226L1325 1230M301 1230C307.794 1247.51 323.467 1256.83 340 1264.31C365.592 1275.87 391.502 1286.71 420 1287.96C430.602 1288.42 441.48 1287.97 452 1286.71C457.211 1286.09 463.522 1283.62 468 1287M1196 1230L1165.71 1262.01L1148 1264M1323 1231L1324 1232M645 1233L627 1245L623 1240L630 1239M912 1241C913.01 1236.74 913.836 1234.72 918 1233M1010 1233C1006.63 1239.27 997.383 1258.14 1003 1263L1002 1255M455 1234L447 1242M495 1235L519 1241M906 1239L912 1236M1093 1237C1101.36 1260.37 1110.74 1283.1 1113.71 1308C1114.81 1317.19 1115 1326.75 1115 1336C1115 1339.79 1113.78 1346.21 1115.6 1349.64C1117.99 1354.12 1129.07 1346.87 1132 1345.49C1136.22 1343.49 1142.25 1342.04 1145.4 1338.39C1148.18 1335.16 1146.38 1330.77 1146.94 1327C1147.84 1320.96 1150.95 1316.43 1151 1310L1116 1326M1216 1238C1207.56 1249.72 1186.33 1259.38 1172 1260M1525 1238L1526 1239L1522 1246L1517 1240L1525 1238M567 1239L566 1240M626 1245L623 1240M652 1240C620.372 1284.29 565.978 1306.26 545.815 1360C542.855 1367.89 543.046 1376.73 542 1385M1516 1249L1524 1255L1523 1256C1520.55 1254.29 1517.96 1251.35 1515 1250.64C1505.75 1248.39 1500.62 1254.97 1492 1247C1498.69 1242.05 1508.81 1240.65 1517 1240M466 1241L460 1248M624 1246L621 1241M1002 1241L1004 1244M622 1247L619 1242M620 1248L615 1243L617 1243M1275 1243L1260.39 1250.3L1253.7 1262.73L1243.18 1271.04L1239.35 1292.58L1224 1295.45L1214 1301C1208.62 1293.44 1201.51 1294.52 1193 1295.92C1178.46 1298.3 1165.1 1302.14 1152 1309M521 1244L526 1247C522.411 1250.32 519.919 1252.29 515 1251M618 1249L614 1244M254 1245L256 1247L251 1250M616 1250L612 1245M526 1247L541 1246M478 1684L478 1690L473 1687C478.301 1679.13 472.825 1673.8 469.312 1666C463.015 1652.02 458.551 1636.63 454.025 1622C444.91 1592.52 446.971 1562.1 450.715 1532C452.043 1521.32 452.684 1509.33 456.228 1499.1C458.811 1491.65 464.386 1486.48 466.349 1478C466.881 1475.7 467.086 1471.41 469.514 1470.17C473.901 1467.94 478.281 1476 482.856 1475.61C490.751 1474.93 485.107 1451.63 484 1447L495.397 1445.38L497.92 1435L501 1409C476.742 1409.2 444.743 1412.79 427 1391C433.653 1385.91 441.563 1383.57 448 1377.83C467.569 1360.36 481.299 1338.24 499.196 1319.3C519.591 1297.72 543.506 1281.68 569 1266.69C581.593 1259.29 595.98 1250.13 610 1246M1298 1246L1300 1249M1364 1246L1369 1248M1380 1252C1406.25 1253.13 1433.69 1258.25 1460 1255.11C1471.01 1253.8 1480.5 1248.87 1491 1246M257 1247L263 1248M1518 1248L1521 1246M1014 1250C1008.82 1258.94 1008.95 1282.49 995 1269C994.114 1272.89 995.048 1274.34 999 1275M614 1251C603.313 1258.77 591.112 1264.38 580 1271.54C548.088 1292.1 511.239 1327.89 513.039 1369C513.466 1378.74 514.398 1390.84 517.89 1400C522.845 1412.99 531.069 1424.84 531 1439C534.471 1436.45 537.141 1434.1 533 1431M1372 1251L1370 1257M195 1254L221 1260M656 1254C656.065 1277.67 668.724 1298.27 673.37 1321C675.005 1329 673.343 1337 673 1345C693.647 1350.31 680.827 1367.5 665 1357C657.385 1369.6 636.368 1371.09 629.103 1383.21C625.371 1389.44 637.788 1399.18 643 1400.68C654.186 1403.9 670.437 1387.92 682 1387M1524 1255C1531.27 1255.24 1533.72 1259.85 1528 1265L1539.53 1284L1543.32 1293.53L1572 1288.1L1619 1295.39L1641 1301L1611 1313.32L1601.21 1319.92L1609 1326M1522 1256C1521.93 1260.62 1523.06 1262.58 1527 1265M924 1259C930.707 1265.91 934.179 1277.74 939.436 1286C948.198 1299.77 962.673 1314.71 968.196 1330C974.166 1346.52 970.673 1373.75 968.826 1391C966.873 1409.24 962.034 1427.47 956.856 1445C955.065 1451.06 948.814 1458.9 952.589 1465C960.657 1478.03 970.794 1489.9 978.796 1503C981.843 1507.99 984.98 1517.94 990.21 1520.86C995.164 1523.63 1006.67 1517.57 1012 1516.34C1030.45 1512.05 1047.84 1506.62 1066 1501.43C1071.11 1499.97 1083.29 1498.12 1085.79 1492.73C1088.68 1486.48 1075.9 1475.35 1073.33 1470C1066.91 1456.64 1064.98 1436.53 1067.29 1422C1068.31 1415.59 1074.81 1401.47 1081.02 1398.88C1086.92 1396.42 1093.33 1398.94 1099 1395.61C1105.98 1391.5 1110.36 1382.76 1116 1377C1108.65 1370.38 1112.83 1359.47 1117 1352M1472 1294C1474.36 1295.83 1473.92 1299.31 1476.44 1300.96C1483.71 1305.73 1498.28 1294.32 1504 1290.81C1506.93 1289.02 1522.63 1281.19 1516.38 1276.03C1510.26 1270.98 1497.4 1283.07 1491 1283.72C1486.69 1284.15 1483.13 1280.81 1479 1279.94C1467.5 1277.51 1445.65 1277.65 1438 1268L1460 1266L1497 1263.41L1520 1260M1005 1260L1009 1264M1375 1260C1381.27 1260.81 1385.88 1261.96 1390 1267L1395 1262L1387 1263M998 1261L995 1268M1300 1265C1311.08 1255.72 1335.31 1268.22 1346 1274.42C1366.77 1286.48 1385.79 1302.41 1409 1309.91C1417.86 1312.77 1427.04 1311.75 1436 1313.26C1443.55 1314.54 1450.02 1318.41 1457.98 1318.14C1462.33 1317.99 1463.21 1314.69 1461.56 1311C1459.02 1305.31 1452.77 1302.86 1449.58 1297.83C1447.31 1294.25 1456.25 1283.62 1446.04 1285.86L1442 1287L1441 1282L1434 1285L1435 1289L1438 1284M1395 1262L1438 1268M1003 1263L1008 1268M1167 1263C1181.17 1275.1 1211.83 1277.86 1227 1268M1003 1265L1007 1271M1115 1357C1122 1360.72 1133.4 1357.51 1141 1356.07C1143.75 1355.54 1147.96 1353.21 1150.7 1354.36C1153.29 1355.44 1154.34 1359.8 1155.76 1362C1159.42 1367.62 1163.93 1373.33 1170 1376.45C1200.22 1391.94 1228.42 1377.76 1258 1371C1258 1343.48 1275.01 1326.13 1282.08 1301C1285.85 1287.58 1281.57 1271.99 1297 1265M1002 1268L1000 1273M1392 1268C1401.77 1271.09 1423.89 1280.51 1427 1291C1430.04 1289.65 1430.99 1286.47 1427 1286M276 1270C267.652 1291.26 226.888 1289.84 208 1290M717 1270C715.396 1272.73 714.439 1273.07 712 1271M1290 1271C1294.96 1279.48 1298.26 1288.25 1304.62 1296C1332.3 1329.78 1368.55 1353.7 1381.09 1398C1383.94 1408.05 1383 1418.65 1383 1429M275 1275C289.43 1293.08 260.637 1315.53 248 1325.48C244.36 1328.35 234.101 1337.13 229.214 1335.49C221.314 1332.83 221.48 1315.38 222.174 1309C222.844 1302.83 225.976 1296.82 228 1291M717 1275C731.997 1279.14 738.306 1296.28 751 1304.45C762.599 1311.92 776.372 1308.73 787 1316C789.297 1311.19 788.135 1308.79 786.455 1304C780.672 1287.49 767.737 1285.11 752 1279.93C744.3 1277.39 734.924 1274.69 728 1280M1318 1275L1322 1281L1315 1279M725 1278L730 1276M1322 1276L1324 1282L1327 1279M1329 1280C1329.34 1284.96 1326.17 1285.65 1322 1284L1321 1283M1332 1282C1363.73 1303.39 1399.26 1324.47 1423.33 1355C1447.19 1385.26 1462.7 1428.21 1498 1447C1501.68 1440.06 1498.96 1429.88 1500.33 1422C1503.84 1401.81 1513.7 1383.84 1501.16 1364C1497.11 1357.6 1489.83 1354.75 1484.21 1350.1C1476.81 1343.97 1469.09 1329.52 1469 1320C1488.95 1319.64 1507.66 1315.61 1526 1307.85C1532.24 1305.21 1544.39 1304.97 1542 1296M1443 1282L1448 1284M1284 1292C1281.47 1288.91 1280.12 1287.15 1283 1284M1430 1286L1433 1284M1451 1284C1455.23 1284.69 1455.98 1286.22 1454 1290L1454 1290M1420 1285L1410 1292C1418.33 1304.96 1434.38 1295.1 1447 1295M1419 1286L1423 1292L1424 1292L1425 1292L1426 1292M1487 1286L1475 1294M1327 1287C1360.65 1314.38 1398.93 1341.06 1411.96 1385C1416.24 1399.41 1415.22 1412.62 1411.63 1427C1410.49 1431.53 1404.91 1442.44 1407.7 1446.49C1411.87 1452.55 1420.49 1455.07 1427 1457.41C1447.79 1464.89 1480.83 1461.88 1498 1447M1280 1288C1276.28 1293.85 1274.02 1300.54 1269.48 1305.91C1248.07 1331.27 1213.57 1347.73 1180 1343.71C1167.91 1342.27 1160.1 1334.86 1149 1332M1438 1288L1441 1288M1400 1290L1409 1291M1430 1290L1434 1290M1414 1291L1421 1293M1211 1295C1214.94 1293.22 1217.3 1293.88 1221 1296M182 1299C179.53 1308.5 161.882 1328.31 171.028 1339.38C173.679 1342.59 180.931 1338.64 184 1337.72C197.751 1333.62 208.24 1327.84 221 1322M1213 1300C1204.57 1310.35 1193.14 1322.17 1180 1326.23C1170.53 1329.15 1158.53 1325.36 1151 1332M1641 1301L1649 1303C1634.85 1328.31 1615.49 1351.19 1588 1362.2C1580.74 1365.11 1572.87 1369.34 1565 1369.94C1562.91 1370.1 1558.19 1369.66 1558.69 1373.08C1559.28 1377.09 1565.22 1381.34 1568 1383.94C1577.3 1392.64 1587.4 1400.59 1598 1407.66C1622.59 1424.05 1650.01 1438.2 1679 1444.59C1703.3 1449.94 1727.64 1449.88 1752 1453.41C1769.65 1455.97 1788.17 1456.89 1804 1466.15C1807.5 1468.19 1817.59 1474 1816.54 1478.98C1815.24 1485.2 1807.65 1481.48 1804 1480.65C1789.95 1477.45 1774.08 1480.21 1760 1482.12C1707.55 1489.22 1651.75 1487.7 1603 1465.29C1592.57 1460.49 1582.72 1455.11 1573 1448.96C1570.36 1447.28 1563.32 1441.64 1564 1448L1567 1445M435 1303C433.373 1306.92 430.292 1314.06 425.907 1315.49C418.609 1317.88 405.805 1310.27 397 1311.42C373.297 1314.54 350.636 1322.73 327 1325.84C315.954 1327.3 297.828 1326.27 289 1333C295.301 1336.63 302.929 1336.76 310 1337.92C330.02 1341.2 353.924 1341.69 374 1338.56C385.819 1336.72 407.626 1328.54 418 1336L400 1351C402.41 1353.94 403.513 1354.56 407 1353L404 1349M781 1310L786 1306M1577 1307C1570.2 1320.18 1560.81 1324.69 1549 1331L1569 1350M905 1308C912.744 1318.77 907.854 1342.83 909.171 1356C912.522 1389.51 923.863 1435.67 950 1459M787 1316L785 1318M426 1317C425.448 1323.32 424.003 1332.97 418 1336M1528 1318C1517.08 1328.45 1513.09 1330.81 1503 1318M1463 1319L1468 1319M1566 1322C1572.9 1328.51 1590.96 1320.37 1600 1319M1150 1322L1155 1327M1564 1325L1568 1327M785 1328C780.326 1334.84 777.352 1341.88 770.911 1347.54C759.281 1357.75 734.345 1364.23 719 1361.67C708.186 1359.87 697.295 1349.18 686 1352M1519 1328L1549 1331M1516 1330C1520.74 1341.2 1532.56 1348.62 1540.83 1357.09C1545.59 1361.96 1551.34 1368.98 1558 1371M892 1332C896.407 1340.22 896.116 1351.87 898.235 1361C902.928 1381.2 908.262 1400.38 915.078 1420C923.329 1443.76 936.003 1467.05 950.274 1487.54C956.729 1496.82 965.815 1504.69 972.457 1514C979.72 1524.18 984.819 1536.31 993 1546C999.734 1539.31 993.07 1531.31 993 1523M399 1351C392.571 1355.67 383.917 1363.24 376 1364.82C369.579 1366.09 360.422 1363.58 354 1362.42C334.195 1358.85 294.16 1354.1 285 1334L289 1333M971 1334C977.207 1337.53 981.494 1343.09 987.259 1346.87C998.173 1354.03 1011.67 1357.9 1021.95 1366.02C1025.61 1368.91 1026.81 1374.19 1030.5 1376.69C1034.87 1379.65 1041.24 1378.48 1046 1380.84C1060.3 1387.92 1064.2 1400.17 1069 1414M421 1336L423 1345L416 1341M1146 1339L1151 1352M418 1341L419 1342M413 1343L416 1343M420 1344L408 1353M410 1345L413 1345M673 1345L665 1357M424 1346L424 1352L407 1362.33L372 1387L367 1382C339.165 1403.4 299.813 1422.26 264 1423C262.615 1418.45 260.108 1418.15 256 1420L263 1424M407 1347L407 1349M410 1347L411 1348M986 1347C983.513 1378.51 979.02 1411.05 968.217 1441C964.885 1450.24 962.562 1460.84 957 1469M425 1353C425.028 1363.02 423.284 1380.38 430 1388M390 1374C384.001 1366.23 396.925 1360.78 403 1357M665 1362L669 1362M374 1366C367.38 1373.76 357.672 1378.79 349 1384C321.445 1400.57 292.572 1406.84 263 1418M385 1369C382.952 1372.58 383.488 1373.77 386 1377M649 1371L675 1387M381 1372C377.575 1375.13 375.495 1376.66 378 1381L379 1382M1259 1372C1261.74 1387.05 1241.4 1392.47 1233.8 1402.19C1227.05 1410.81 1219.29 1414.73 1211.32 1421.51C1200.44 1430.78 1191 1442.08 1179.79 1451.17C1171.9 1457.56 1161.77 1461.34 1153 1466.36C1143.09 1472.04 1128.49 1480.9 1117 1481C1118.8 1471.29 1118.42 1461.77 1119.09 1452C1120.34 1433.84 1125.12 1412.85 1113 1397C1105.54 1405.32 1106.88 1414.06 1103.78 1424C1100.74 1433.75 1094.36 1442.44 1089 1451M1113 1375L1110 1381M699 1376L761 1376.17L788 1385M374 1377L368 1382M1116 1377L1129 1385L1124 1390L1184 1446M1066 1423C1062.9 1423.85 1059.27 1425.87 1056 1425.38C1044.67 1423.69 1040.52 1403.81 1034.47 1396C1031.59 1392.28 1018.64 1381.14 1028 1378M372 1380L372 1382M1261 1382C1264.26 1385.13 1265.99 1389.45 1269.26 1392.54C1290.93 1413.05 1316.97 1425.57 1325.71 1456C1329.35 1468.68 1333.41 1482.99 1322 1493M1122 1383L1123 1389M425 1385C419.895 1393.86 408.397 1398.21 402.588 1407C397.358 1414.92 391.571 1428.69 389.515 1438C387.405 1447.56 394.95 1447.96 400.995 1443.2C403.083 1441.55 405.046 1439.8 407 1438M1109 1385L1113 1397M1130 1385C1146.22 1396.79 1165.71 1405.16 1184 1411.98C1192.64 1415.2 1203.19 1416.21 1211 1421M532 1439C535.576 1442.89 540.95 1452.55 546.985 1452.52C550.22 1452.5 551.858 1448.74 555.089 1448.74C565.471 1448.72 577.977 1465.64 589.747 1457.05C592.692 1454.9 588.81 1437.96 589.59 1433C592.519 1414.39 607.453 1390.21 627 1386M783 1386C771.427 1394.6 749.895 1400.1 743.002 1414.09C741.394 1417.35 743.86 1421.55 743.98 1425C744.221 1431.92 742.449 1438.06 739 1444M371 1387C325.806 1426.1 261.922 1442.12 204 1446.09C194.807 1446.72 184.575 1452.64 176 1451.96C161.821 1450.83 147.381 1444.13 134 1439.67C118.836 1434.61 102.695 1431.19 87 1428.83C80.4302 1427.85 73.5798 1432.58 67 1433M813 1388L826 1404M424 1389L426 1391M783 1389L786.548 1409L793.74 1433L783 1467M1508 1393C1517.29 1395.19 1528.39 1411.04 1534.99 1418C1537.25 1420.38 1538.31 1425.62 1541 1426L1541 1423M1178 1405L1233 1400M489 1688L483 1694C483.626 1690.29 487.651 1687.7 487.473 1683.91C487.232 1678.78 484.005 1673.03 482.745 1668C478.237 1650.02 471.391 1628.71 473.17 1610C477.651 1562.88 498.685 1519.45 507.389 1473C510.534 1456.22 511.945 1439 512.907 1422C513.334 1414.45 509.133 1406.49 516 1401M648 1403C653.085 1414.32 665.935 1420.55 675 1428.3C682.264 1434.51 689.69 1443.03 699 1446M501 1409L511 1405M375 1540C374.971 1550.16 367.902 1561.65 360 1568L357 1561C335.126 1572.35 325.083 1600.47 304 1613C297.963 1601.69 303.653 1581.37 304.83 1569C305.87 1558.08 304.909 1546.87 306.129 1536C309.499 1505.98 321.621 1471.7 342 1449L338 1444C360.468 1437.78 379.31 1418.97 400 1408M471 1411C469.313 1416.99 464.783 1417.8 460.753 1421.76C451.016 1431.35 447.739 1437.07 434 1441L439 1446L441 1441M259 1424C245.219 1428.36 229.318 1428.41 215 1429.04C188.809 1430.19 163.03 1428.99 137 1425.27C126.793 1423.81 106.451 1426.47 100 1418C124.889 1409.56 151.781 1415.83 177 1418.83C203.289 1421.96 228.843 1421.14 255 1419M418 1415C429.509 1415.49 450.041 1415.69 460 1421M727 1422L741 1417M103 1423L95 1422L100 1418M1123 1418C1135.93 1428.07 1147.66 1448.58 1153 1464M88 1428L94 1423M1535 1423L1538 1426M1542 1426L1563 1443M455 1431L461 1453M537 1433L553 1448M1310 1434C1306.91 1441.45 1295.18 1444.92 1289.42 1451.09C1264.14 1478.19 1228.12 1506.28 1193 1519C1194.72 1523.44 1199.97 1542.91 1205.94 1542.08C1209.73 1541.55 1213.1 1533.92 1215 1531M1316 1436L1309 1439M367 1439L387 1439M531 1439C524.826 1450.58 536.058 1465.3 544.576 1472.68C547.409 1475.14 553.463 1476.2 553.744 1470.94C554.058 1465.04 548.056 1459.85 547 1454M418 1440L434 1441M1183 1444L1189 1442L1189 1442M1311 1441C1311 1447.25 1312.31 1455.25 1309.31 1460.96C1307.21 1464.96 1301.11 1467.27 1300.66 1472.01C1300.03 1478.76 1310.24 1481.19 1307.39 1488.98C1305.61 1493.85 1299.65 1495.17 1297.74 1500.02C1295.14 1506.64 1300.07 1511.84 1299.47 1518C1298.9 1523.87 1293.1 1524.94 1297 1531L1301 1522M183 1452C193.349 1459.47 213.482 1460.17 226 1461.09C263.39 1463.83 302.894 1462.16 337 1444M344 1445L342 1448M1406 1446C1401.34 1452.04 1399.38 1459.95 1394.37 1465.74C1388.76 1472.22 1375.99 1477.64 1374.65 1487C1374.09 1490.88 1377.61 1495.07 1378.27 1499C1380.57 1512.87 1383.9 1526.2 1385.72 1540C1389.31 1567.31 1383.22 1594.46 1373.57 1620C1367.81 1635.28 1360.48 1650.07 1351.96 1664C1350.41 1666.53 1344.21 1675.24 1348.6 1677.78C1352.88 1680.26 1359.54 1671.41 1362 1669C1373.49 1657.73 1389.25 1653.63 1401 1642C1436.05 1607.31 1456.61 1552.87 1459.95 1504C1460.94 1489.45 1456.72 1476.15 1456 1462M438 1447C433.997 1455.57 428.063 1464.07 430 1474M393 1448C397.616 1459.89 391.332 1466.11 407 1464L408 1465C405.266 1473.57 400.347 1484.01 403 1493C408.855 1490.76 424.136 1484.75 428.486 1493.15C430.353 1496.75 429.587 1501.17 430.505 1505C435.404 1525.46 429.114 1548.87 430.039 1570C431.902 1612.52 446.279 1653.85 473 1687M393 1450C376.326 1466.63 346.61 1483.61 342.097 1509C340.232 1519.49 350.188 1528.22 348 1540M531 1456C523.892 1469.25 531.49 1480.53 539.503 1491C541.57 1493.7 550.68 1503.13 552.642 1494.85C554.176 1488.38 546.994 1481.37 546 1475M594 1457C601.021 1459.95 619.196 1472.85 612.917 1481.96C608.839 1487.87 600.501 1488.13 596.623 1494.09C592.617 1500.24 601.642 1503.75 592.985 1509.44C588.75 1512.22 567.397 1519.11 570.176 1525.86C573.307 1533.45 594.465 1529.56 601 1530.42C606.725 1531.19 616.644 1530.11 621.681 1532.6C625.444 1534.47 622.019 1540.61 627.073 1541.1C635.189 1541.89 641.332 1531.8 648.902 1532.4C654.2 1532.82 649.925 1542.3 656.059 1541.15C660.906 1540.25 665.793 1533.24 670.941 1534.59C680.719 1537.15 668.318 1560.95 677.148 1561.29C691.767 1561.86 700.745 1537.5 709 1529C705.364 1527.88 703.692 1528.04 703 1532L703 1533M1439 1461C1439 1500.58 1440.63 1542.58 1424.66 1580C1417.02 1597.92 1406.85 1614.5 1396.57 1631C1392.44 1637.64 1385.66 1643.74 1383 1651L1384 1652L1386 1654M1395 1468C1395 1507.5 1408.72 1547.6 1399.1 1587C1394.84 1604.44 1386.82 1622.34 1378.14 1638C1374.19 1645.12 1365.67 1654.57 1367 1663M342 1478C348.26 1473.36 355.435 1471.76 363 1474M371 1474C371 1489.33 380.613 1503.82 377 1519M529 1478C520.292 1494.07 540.731 1509.37 548 1522L554 1522C556.307 1513.52 548.446 1506.73 546 1499M943 1478C933.899 1487.59 927.771 1500.1 920.34 1511C918.135 1514.24 915.919 1520.87 912.687 1522.97C907.018 1526.65 893.991 1521.99 888 1520.59C871.241 1516.69 855.454 1512.46 839 1507.22C831.881 1504.95 824.314 1504.22 818 1500M616 1479C627.18 1481.34 636.989 1486.87 644 1496L612 1510M1117 1481C1111.41 1487.11 1095.23 1494.44 1087 1492M1819 1481L1834 1488M1254 1484L1294 1527M433 1508L448.934 1487.92L457 1496M1325 1531C1331.36 1515.05 1340.38 1498.84 1356 1492.13C1362.29 1489.42 1366.7 1485.52 1373 1490C1364.19 1502.38 1354.47 1513.94 1342 1523.24C1335.9 1527.79 1327.57 1530.33 1322.05 1535.2C1314.9 1541.52 1311.42 1551.46 1305.51 1558.71C1298.27 1567.59 1280.24 1578.14 1289 1590L1270 1593M950 1489C942.703 1497.9 931.714 1514.61 930 1526L914 1524M418 1491L417.089 1514L412.891 1521.54L403 1516C395.604 1525.31 390.699 1535 384.424 1545C381.639 1549.43 379.505 1553.34 374 1551M527 1492C515.837 1506.64 539.387 1532.99 549 1544C554.916 1537.75 553.776 1533.71 549 1527L554 1522M1324 1493L1342 1498M644 1496L683 1518.12L703 1527M1367 1503L1366 1511L1361 1506M523 1505C518.729 1511.27 519.699 1517.28 517.412 1524C513.924 1534.24 508.985 1544.67 505.413 1555C501.47 1566.41 494.324 1575.62 491.807 1588C483.548 1628.63 495.912 1664.1 504.848 1703C505.919 1707.66 500.164 1710.7 501.345 1714.62C502.076 1717.05 505.412 1718.81 506.737 1721.04C510.842 1727.97 515.044 1735.5 518 1743M1359 1507L1365 1511M1367 1510C1370.89 1517.17 1368.99 1532.15 1380 1522M1364 1513C1360.03 1519.73 1352.21 1533.93 1359.94 1541.34C1365.51 1546.67 1371.3 1530.34 1372 1527M322 1558C329.172 1545.08 328.752 1524.27 340 1514M1174 1597C1165.7 1606.09 1158.03 1621.25 1147.91 1628.01C1140.93 1632.67 1133.79 1631.01 1126 1631C1120.21 1630.99 1114.16 1634.34 1109 1634.05C1098.87 1633.47 1083.77 1617.45 1076 1611.33C1066.85 1604.12 1057.33 1596.13 1049 1587.99C1046.93 1585.97 1041.22 1581.77 1042.35 1578.31C1043.87 1573.65 1052.66 1575.83 1056 1575.62C1062.84 1575.18 1073.06 1568.7 1080 1566.31C1118.82 1552.91 1156.05 1538.65 1192 1519M548 1522L549 1526M931 1527L975 1524M1215 1534C1222.54 1540.14 1227.26 1548.16 1236 1553.24C1238.47 1554.67 1243.66 1557.41 1245.53 1553.68C1248.13 1548.51 1237.91 1530.16 1246.23 1528.04C1252.75 1526.39 1257.81 1535.49 1263.68 1534.12C1268.32 1533.04 1263.65 1524.12 1270.06 1524.54C1279.37 1525.15 1286.36 1535.12 1296 1530M518 1526C520.443 1530.51 520.12 1536.1 522.562 1540.51C524.145 1543.36 527.53 1545.16 529.384 1548.02C536.802 1559.44 544.901 1573.02 557 1580L557 1573L552 1577M710 1529C744.937 1547.78 784.872 1563.99 824 1572.07C835.662 1574.47 847.233 1576.21 859 1578.47C862.641 1579.17 868.878 1580.96 870.969 1584.3C873.129 1587.75 871.492 1593.12 872.423 1597C873.43 1601.2 877.974 1603.66 878.357 1608C879.527 1621.23 872.462 1638.43 871.17 1652C869.773 1666.67 877.557 1688.09 867 1699C861.648 1684.71 860.615 1667.12 859.17 1652C858.901 1649.19 860.646 1637.54 856.683 1637.04C853.437 1636.62 850.758 1640.76 849.232 1643C844.509 1649.95 839.817 1656.9 834 1663L829 1658C826.657 1662.63 828.886 1666.26 834 1664M1291 1580L1289 1581C1295.77 1582.15 1303.53 1575.29 1309 1571.65C1326.69 1559.84 1339.47 1541.68 1356 1529M718 1536C716.659 1551.24 710.196 1540.68 703 1537M998 1539C1017.06 1541.99 1023.82 1571.29 1041 1578M556 1540L557 1544L550 1544C547.629 1552.71 554.988 1564.3 557 1573M623 1540L619 1543M1349 1541L1351 1557C1356.75 1554.25 1359.08 1549.11 1360 1543M521 1543C520.39 1551.17 513.624 1557.84 512.289 1566C511.011 1573.81 516.561 1578.11 519.825 1584.17C523.853 1591.64 526.244 1599.45 531.174 1607C533.363 1610.35 538.809 1617.55 543.682 1616.18C547.313 1615.16 545.756 1607.78 546.555 1605C549.742 1593.91 540.704 1590.01 534.524 1581.58C531.561 1577.53 531.011 1573.43 527 1570L520 1582M1004 1545L1005 1559L998 1566L992 1547M520 1549C524.313 1554.6 527.258 1561.86 527 1569M1323 1560L1320 1556L1326 1555M996 1557L1002 1556M1328 1556L1329 1573C1339.46 1572.08 1345.45 1564.43 1352 1557M505 1557L512 1564M1307 1560L1319 1556M1006 1561L1019 1575L1013 1581L1009 1568M998 1566C998.032 1569.85 1001.09 1578.45 998.357 1581.4C995.118 1584.89 979.911 1584.4 975 1584.95C951.075 1587.65 925.864 1588.14 902 1584.41C894.156 1583.18 877.567 1579.57 871 1583M1015 1571L1010 1576M1016 1573L1011 1578M1289 1590L1328 1574M1019 1576C1036.54 1593.9 1054.72 1609.54 1075 1624.21C1084.13 1630.82 1099.52 1638.16 1106.18 1647.14C1109.51 1651.64 1110.61 1657.43 1114.04 1662C1120.78 1670.95 1129.65 1678.08 1136.47 1687C1141.16 1693.13 1145.09 1701.86 1154 1702C1154.09 1683.85 1142.14 1661.3 1126 1653M1289 1578L1290 1579M558 1580C560.802 1583.69 573.713 1603.65 563.977 1605.25C559.678 1605.95 554.273 1600.12 550 1599M533 1582L526 1598M868 1582C866.426 1586.14 868.115 1587.85 871 1591M1013 1582L1045 1628C1054.29 1617.62 1035.6 1604.54 1034 1593M1001 1583C1001.72 1599.81 1005.41 1615.99 1004.99 1633C1004.73 1643.15 1000.17 1650.53 1008 1659C1015.8 1640.64 1017 1616.7 1017 1597M1286 1584L1281 1588M1290 1583L1288 1585L1292 1589M1287 1584L1288 1585M884 1585L879 1605M866 1586C845.181 1611.57 821.455 1634.79 795 1654.47C782.423 1663.83 770.987 1672.83 756 1677.96C741.735 1682.84 732.002 1678.45 718 1678.06C710.836 1677.87 703.059 1679.92 696 1681.08C690.516 1681.98 681.539 1681.4 677.278 1685.51C674.814 1687.89 675.566 1691.88 679.13 1692.51C686.076 1693.75 693.755 1691.74 701 1693.02C718.182 1696.05 732.908 1703.49 749 1692M874 1595L881 1598M1039.33 1599L1039.67 1600L1039.33 1599M871 1600L859 1613.04L837 1644L832 1639C824.339 1645.24 812.398 1658.05 824 1666L826 1663M1045 1600L1042 1604L1042 1602M1172 1600C1174.38 1605.98 1171.13 1613.21 1168.94 1619C1166.74 1624.77 1163.42 1633.22 1158.59 1637.27C1147.43 1646.6 1122.14 1642.6 1112 1634M549 1602L556 1605C551.397 1618.87 587.142 1628.39 578 1641L545 1617M553 1604L555 1606M570 1604L571 1608L565 1607M1167 1604L1172 1609M868 1609L864 1619L859 1614M572 1610C578.354 1619.93 589.942 1631.64 580 1642L597 1648M860 1612L863 1613M1056 1612C1056.1 1617.29 1057.34 1624.5 1050 1624M303 1614L301 1622M864 1620L858 1636M1058 1623L1053 1628L1057 1632L1058 1624M1049.33 1628L1049.67 1629L1049.33 1628M1045 1629C1055.27 1637.61 1064.63 1639.82 1070 1654M581 1632L582 1631M1057 1632L1057 1634M832 1639L842 1633M700 1635C708.674 1644.64 719.344 1663.84 731.001 1669.09C741.65 1673.9 753.013 1666.73 763 1674M582 1636L584 1636M835 1637L837 1637M579 1638L580 1639M587 1638L588 1642M835 1639L836 1640M1161 1639C1174.1 1642.13 1192.39 1639.94 1203 1649L1198 1654L1217 1668M703 1641L704 1649L709 1644M1101 1644C1096.43 1668.6 1112.26 1684.75 1122.81 1705C1127.67 1714.31 1130.35 1729.64 1131 1740M837 1645L829 1657M704 1649L716 1677M1203 1649L1210 1650M738 1699C736.743 1705.32 731.916 1709.64 728.618 1715C723.599 1723.15 724.902 1730.72 715 1734L724.05 1740.69L733.973 1737.7L735.87 1750L743 1777C749.364 1770.77 746.94 1757.21 750.313 1749C755.427 1736.55 764.958 1726.3 770.486 1714C773.025 1708.35 775.543 1702.24 775.907 1696C776.126 1692.23 774.176 1687.62 775.467 1684.04C777.117 1679.46 783.261 1676.61 787 1673.96C797.115 1666.82 807.928 1654.12 820 1651M1381 1652L1380 1656M814 1653L819 1658M1197 1669L1206 1668L1200 1673C1192.17 1663.92 1176.9 1668.17 1169.47 1659.49C1166.18 1655.66 1172.39 1654.16 1175 1653.73C1182.81 1652.47 1190.21 1653.39 1198 1654M1370 1654L1372 1654M1002 1655C1002.02 1660.55 1006.48 1668.53 1008 1659M1370 1656L1371 1657M1373 1656L1376 1659M1138 1658L1167 1657M817 1663C817.124 1674.15 823.408 1675.08 831 1668M824 1666L819 1671M825 1666L827 1666M1213 1666L1206 1668M1005 1667L1005 1668M825 1668L826 1669M1349 1671L1354 1676M819 1673L805 1694M1201 1673L1232 1701M1349 1679L1330 1701M734 1736C738.67 1721.25 754.082 1712.44 762.48 1700C765.997 1694.79 767.642 1685.91 774 1684M665 1689L674 1688M479 1690L482 1693M490 1690L488 1698L500 1714M678 1693L655 1708M1155 1694C1176.79 1694.46 1182.97 1713.68 1201 1720M483 1695L487 1697M873 1695L871 1705L867 1699M709 1697L681.089 1707.14L643 1740M1140 1697C1140 1709.29 1139.49 1725.71 1132 1736M1228 1698C1214.45 1705.24 1196.32 1698.77 1182 1703M1155 1703C1165.62 1707.64 1180.49 1725.9 1193 1717M1151 1704L1151 1712M663 1705L679 1708M871 1705L871 1708M669 1707L674 1712M507 1709L505 1717M676 1759C684.885 1756.52 688.854 1747.58 695.274 1741.76C700.451 1737.08 708.386 1735.52 715 1734M722 1734L722 1738M647 1737C658.785 1743.3 678.855 1741 692 1741M683 1757C695.958 1763.65 709.666 1747.28 720 1742M724 1742L724 1753"/>
</svg>
